<?xml version="1.0" encoding="utf-8"?>
<!-- Generator: Adobe Illustrator 26.0.1, SVG Export Plug-In . SVG Version: 6.00 Build 0)  -->
<svg version="1.1" id="Layer_1" xmlns="http://www.w3.org/2000/svg" xmlns:xlink="http://www.w3.org/1999/xlink" x="0px" y="0px"
	 viewBox="0 0 5000 5000" style="enable-background:new 0 0 5000 5000;" xml:space="preserve">
<style type="text/css">
	.st0{filter:url(#Adobe_OpacityMaskFilter);}
	.st1{filter:url(#Adobe_OpacityMaskFilter_00000022559725706795598230000014166346912573714057_);}
	.st2{mask:url(#SVGID_1_);fill:url(#SVGID_00000150810012004844639640000017163653212873332617_);}
	.st3{fill:url(#SVGID_00000152977012449237167940000008218926047808097690_);}
	.st4{filter:url(#Adobe_OpacityMaskFilter_00000158006483033781155420000007407468344083927962_);}
	.st5{filter:url(#Adobe_OpacityMaskFilter_00000117662653221034803930000000700913529966705580_);}
	
		.st6{mask:url(#SVGID_00000023247423051707013370000012921636621831436419_);fill:url(#SVGID_00000163051038052405451470000003458128483336532141_);}
	.st7{fill:url(#SVGID_00000080910054397933798860000012756191868579524246_);}
	.st8{fill:url(#SVGID_00000112627698631975620500000003486108945042401699_);}
	.st9{fill:#FFFFFF;}
	.st10{opacity:0.03;}
	.st11{fill:url(#SVGID_00000103239004457706064790000012133128211658466952_);}
	.st12{fill:url(#SVGID_00000058549042848552032970000011040396093715661213_);}
	.st13{fill:url(#SVGID_00000029757876211631319300000001195685659438686084_);}
	.st14{fill:url(#SVGID_00000127757842544325171080000011986897656246092458_);}
	.st15{fill:url(#SVGID_00000155118553080653979510000015015616832468796583_);}
	.st16{fill:url(#SVGID_00000129926130639350874330000010832442128976566435_);}
	.st17{fill:url(#SVGID_00000031906737622716328280000004106729923805120395_);}
	.st18{fill:url(#SVGID_00000116953234196451934280000007768173116988017843_);}
	.st19{fill:url(#SVGID_00000172430109251754419690000001869207472240837537_);}
	.st20{fill:url(#SVGID_00000171703804770411744750000015690161045569635263_);}
	.st21{fill:url(#SVGID_00000136377887315224192140000013774111534063459514_);}
	.st22{fill:url(#SVGID_00000137090206550584362300000008718763941209548178_);}
	.st23{fill:url(#SVGID_00000093869098837110129120000005209544445494767525_);}
	.st24{fill:url(#SVGID_00000075124722090223685540000004730620756789490599_);}
	.st25{fill:url(#SVGID_00000070094713642658473230000001631027927537154961_);}
	.st26{fill:url(#SVGID_00000137834114110974952640000011117121354709941649_);}
	.st27{fill:url(#SVGID_00000136379223474793672420000011058574882676468404_);}
	.st28{fill:url(#SVGID_00000031188838964657623530000008379800581824096185_);}
	.st29{fill:url(#SVGID_00000139294493703396459920000011925034988211176626_);}
	.st30{fill:url(#SVGID_00000056415939379607215330000000105705403279033225_);}
	.st31{fill:url(#SVGID_00000018217958734013298420000014601994325393241785_);}
	.st32{fill:url(#SVGID_00000107587086637687582160000003940151312027057299_);}
	.st33{fill:url(#SVGID_00000114752532578752587450000017587802844867976845_);}
	.st34{fill:url(#SVGID_00000098200336101263016920000005112347282463373988_);}
	.st35{fill:url(#SVGID_00000049191882602870522670000011753986318327189671_);}
	.st36{fill:url(#SVGID_00000103263925732546747950000009860363807023574656_);}
	.st37{fill:url(#SVGID_00000060012209207808983950000006092239639124285351_);}
	.st38{fill:url(#SVGID_00000149367182610086820930000013808522945068588720_);}
	.st39{fill:url(#SVGID_00000171715744770442484690000000995131611665986956_);}
	.st40{fill:url(#SVGID_00000040559777093778295040000013918420253122707624_);}
	.st41{fill:url(#SVGID_00000103265717540218985040000006818508957391714204_);}
	.st42{fill:#FFDAD9;}
	.st43{fill:#373A50;}
	.st44{fill:#3A4AC3;}
	.st45{fill:#FECDCB;}
	.st46{fill:#111228;}
	.st47{fill:#EAC250;}
	.st48{fill:#FADF68;}
	.st49{fill:#61656D;}
	.st50{fill:url(#SVGID_00000005951486436575719800000017559349982971113660_);}
</style>
<g>
	<g>
		<g>
			<defs>
				<filter id="Adobe_OpacityMaskFilter" filterUnits="userSpaceOnUse" x="364.7" y="617.95" width="4285.3" height="2785.51">
					<feFlood  style="flood-color:white;flood-opacity:1" result="back"/>
					<feBlend  in="SourceGraphic" in2="back" mode="normal"/>
				</filter>
			</defs>
			<mask maskUnits="userSpaceOnUse" x="364.7" y="617.95" width="4285.3" height="2785.51" id="SVGID_1_">
				<g class="st0">
					<defs>
						
							<filter id="Adobe_OpacityMaskFilter_00000106869588893485170070000007467049035740526736_" filterUnits="userSpaceOnUse" x="364.7" y="617.95" width="4285.3" height="2785.51">
							<feFlood  style="flood-color:white;flood-opacity:1" result="back"/>
							<feBlend  in="SourceGraphic" in2="back" mode="normal"/>
						</filter>
					</defs>
					<mask maskUnits="userSpaceOnUse" x="364.7" y="617.95" width="4285.3" height="2785.51" id="SVGID_1_">
						<g style="filter:url(#Adobe_OpacityMaskFilter_00000106869588893485170070000007467049035740526736_);">
						</g>
					</mask>
					
						<linearGradient id="SVGID_00000182498446668622543120000018374897123347060156_" gradientUnits="userSpaceOnUse" x1="1955.5564" y1="624.8844" x2="3076.9363" y2="3825.9146">
						<stop  offset="0" style="stop-color:#000000"/>
						<stop  offset="1" style="stop-color:#FFFFFF"/>
					</linearGradient>
					<path style="mask:url(#SVGID_1_);fill:url(#SVGID_00000182498446668622543120000018374897123347060156_);" d="M4197.18,3403.45
						H818.01c-421.16,0-614.33-477.99-291.85-723.89c2.68-2.09,5.44-4.02,8.12-6.11c73.49-55.33,121.53-136.09,121.53-254.19
						c28.62-154.92-129.4-196.18-171.66-464.68c-74.41-471.97,178.69-782.06,461.67-939.83c943.35-526.2,2733.7-526.2,3504.47-16.99
						c148.39,98.09,226.9,375.38,166.89,506.2c-369.44,805.83-169.23,1023.53-14.48,1307.68
						C4751.17,3084.15,4532.06,3403.45,4197.18,3403.45z"/>
				</g>
			</mask>
			
				<linearGradient id="SVGID_00000067222046961748053250000011444583975786047384_" gradientUnits="userSpaceOnUse" x1="1955.5564" y1="624.8844" x2="3076.9363" y2="3825.9146">
				<stop  offset="0" style="stop-color:#FF94D3"/>
				<stop  offset="1" style="stop-color:#E97EB4"/>
			</linearGradient>
			<path style="fill:url(#SVGID_00000067222046961748053250000011444583975786047384_);" d="M4197.18,3403.45H818.01
				c-421.16,0-614.33-477.99-291.85-723.89c2.68-2.09,5.44-4.02,8.12-6.11c73.49-55.33,121.53-136.09,121.53-254.19
				c28.62-154.92-129.4-196.18-171.66-464.68c-74.41-471.97,178.69-782.06,461.67-939.83c943.35-526.2,2733.7-526.2,3504.47-16.99
				c148.39,98.09,226.9,375.38,166.89,506.2c-369.44,805.83-169.23,1023.53-14.48,1307.68
				C4751.17,3084.15,4532.06,3403.45,4197.18,3403.45z"/>
		</g>
		<defs>
			
				<filter id="Adobe_OpacityMaskFilter_00000129196179239906541070000005990551264735818165_" filterUnits="userSpaceOnUse" x="350" y="3403.44" width="4283.84" height="978.61">
				<feFlood  style="flood-color:white;flood-opacity:1" result="back"/>
				<feBlend  in="SourceGraphic" in2="back" mode="normal"/>
			</filter>
		</defs>
		
			<mask maskUnits="userSpaceOnUse" x="350" y="3403.44" width="4283.84" height="978.61" id="SVGID_00000031176869959875881800000010578075657651517371_">
			<g style="filter:url(#Adobe_OpacityMaskFilter_00000129196179239906541070000005990551264735818165_);">
				<defs>
					
						<filter id="Adobe_OpacityMaskFilter_00000153688185840637598790000004566511197658751873_" filterUnits="userSpaceOnUse" x="350" y="3403.44" width="4283.84" height="978.61">
						<feFlood  style="flood-color:white;flood-opacity:1" result="back"/>
						<feBlend  in="SourceGraphic" in2="back" mode="normal"/>
					</filter>
				</defs>
				
					<mask maskUnits="userSpaceOnUse" x="350" y="3403.44" width="4283.84" height="978.61" id="SVGID_00000031176869959875881800000010578075657651517371_">
					<g style="filter:url(#Adobe_OpacityMaskFilter_00000153688185840637598790000004566511197658751873_);">
					</g>
				</mask>
				
					<linearGradient id="SVGID_00000009584600596859055800000004799215353217076110_" gradientUnits="userSpaceOnUse" x1="2485.6431" y1="4080.8042" x2="2503.1294" y2="3363.8782">
					<stop  offset="0" style="stop-color:#000000"/>
					<stop  offset="1" style="stop-color:#FFFFFF"/>
				</linearGradient>
				
					<path style="mask:url(#SVGID_00000031176869959875881800000010578075657651517371_);fill:url(#SVGID_00000009584600596859055800000004799215353217076110_);" d="
					M4633.84,3830.81v11.07c-1.34,231.93-336.46,347.44-1514.24,341.81c-154.5-0.67-315.87-3.6-479.75-8.39
					c-87.38,119.78-564.2,209.37-1138.86,206.68c-636.18-3.1-1151.17-118.27-1150.24-257.26c0.08-16.44,7.37-32.54,21.26-48.06
					c59.84-66.6,55.07-158.87-3.26-226.48c-19.8-22.95-19.18-37.17-18.5-54.61c7.53-219.77,191.33-392.31,410.78-392.14
					l3439.35,1.76C4436.4,3405.29,4631,3594.44,4633.84,3830.81z"/>
			</g>
		</mask>
		
			<linearGradient id="SVGID_00000163047853344944041750000000299633816009912753_" gradientUnits="userSpaceOnUse" x1="2485.6431" y1="4080.8042" x2="2503.1294" y2="3363.8782">
			<stop  offset="0" style="stop-color:#FF94D3"/>
			<stop  offset="1" style="stop-color:#E97EB4"/>
		</linearGradient>
		<path style="fill:url(#SVGID_00000163047853344944041750000000299633816009912753_);" d="M4633.84,3830.81v11.07
			c-1.34,231.93-336.46,347.44-1514.24,341.81c-154.5-0.67-315.87-3.6-479.75-8.39c-87.38,119.78-564.2,209.37-1138.86,206.68
			c-636.18-3.1-1151.17-118.27-1150.24-257.26c0.08-16.44,7.37-32.54,21.26-48.06c59.84-66.6,55.07-158.87-3.26-226.48
			c-19.8-22.95-19.18-37.17-18.5-54.61c7.53-219.77,191.33-392.31,410.78-392.14l3439.35,1.76
			C4436.4,3405.29,4631,3594.44,4633.84,3830.81z"/>
	</g>
</g>
<linearGradient id="SVGID_00000010305001552579687290000000705327641097375652_" gradientUnits="userSpaceOnUse" x1="4135.231" y1="1689.8878" x2="4310.3403" y2="1689.8878">
	<stop  offset="0" style="stop-color:#D1DEFF"/>
	<stop  offset="1" style="stop-color:#B2C7FF"/>
</linearGradient>
<path style="fill:url(#SVGID_00000010305001552579687290000000705327641097375652_);" d="M4310.3,2598.91
	c0,57.4-46.44,103.84-103.83,103.84h-71.23V677.02h71.57c53.74,0,97.89,40.92,102.98,93.39
	C4310.76,780.08,4310.12,693.77,4310.3,2598.91z"/>
<path class="st9" d="M4266.26,781.02v1817.91c0,57.41-46.42,103.82-103.82,103.82H2249.89c-57.4,0-103.92-46.42-103.92-103.82
	V781.02c0-57.41,46.51-103.91,103.92-103.91h1912.55C4219.84,677.1,4266.26,723.61,4266.26,781.02z"/>
<path class="st10" d="M4097.07,2372.91v329.84H2652.17v-329.84c0-39.03,31.64-70.67,70.67-70.67h1303.58
	C4065.43,2302.25,4097.07,2333.88,4097.07,2372.91z"/>
<path class="st10" d="M4244.62,1026.58v1122.59H3138.37c-41.02,0-74.24-33.31-74.24-74.33v-974.01c0-41.02,33.22-74.24,74.24-74.24
	H4244.62z"/>
<linearGradient id="SVGID_00000127013933049214495620000011887307114744580281_" gradientUnits="userSpaceOnUse" x1="2146.0298" y1="782.1041" x2="4266.3252" y2="782.1041">
	<stop  offset="0" style="stop-color:#D1DEFF"/>
	<stop  offset="1" style="stop-color:#B2C7FF"/>
</linearGradient>
<path style="fill:url(#SVGID_00000127013933049214495620000011887307114744580281_);" d="M4266.33,780.62v106.55h-2120.3V780.62
	c0-57.22,46.27-103.58,103.49-103.58h1913.31C4219.97,677.04,4266.33,723.4,4266.33,780.62z"/>
<path class="st9" d="M2284.78,787.21c0,18.25-14.78,33.03-33.03,33.03c-18.21,0-32.99-14.78-32.99-33.03
	c0-18.25,14.78-33.03,32.99-33.03C2270,754.18,2284.78,768.96,2284.78,787.21z"/>
<path class="st9" d="M2374.66,787.21c0,18.25-14.78,33.03-33.03,33.03c-18.21,0-32.99-14.78-32.99-33.03
	c0-18.25,14.78-33.03,32.99-33.03C2359.88,754.18,2374.66,768.96,2374.66,787.21z"/>
<path class="st9" d="M2464.55,787.21c0,18.25-14.78,33.03-33.03,33.03c-18.21,0-32.99-14.78-32.99-33.03
	c0-18.25,14.78-33.03,32.99-33.03C2449.77,754.18,2464.55,768.96,2464.55,787.21z"/>
<g>
	<g>
		
			<linearGradient id="SVGID_00000029753897285172956410000006427176833857301657_" gradientUnits="userSpaceOnUse" x1="2490.219" y1="1262.8604" x2="2661.3101" y2="1262.8604">
			<stop  offset="0" style="stop-color:#EBF2FF"/>
			<stop  offset="1" style="stop-color:#E1E8FF"/>
		</linearGradient>
		<polygon style="fill:url(#SVGID_00000029753897285172956410000006427176833857301657_);" points="2575.74,1262.84 
			2575.73,1262.86 2575.76,1262.88 		"/>
		
			<linearGradient id="SVGID_00000140006509829336877840000005985835518941364640_" gradientUnits="userSpaceOnUse" x1="2490.1777" y1="2081.3601" x2="2661.3826" y2="2081.3601">
			<stop  offset="0" style="stop-color:#EBF2FF"/>
			<stop  offset="1" style="stop-color:#E1E8FF"/>
		</linearGradient>
		<polygon style="fill:url(#SVGID_00000140006509829336877840000005985835518941364640_);" points="2575.8,2081.38 2575.81,2081.36 
			2575.79,2081.34 		"/>
	</g>
	
		<linearGradient id="SVGID_00000006678403170333397660000004495569963788640644_" gradientUnits="userSpaceOnUse" x1="2418.2964" y1="1672.7281" x2="2498.4053" y2="1668.973">
		<stop  offset="0" style="stop-color:#D1DEFF"/>
		<stop  offset="1" style="stop-color:#B2C7FF"/>
	</linearGradient>
	<polygon style="fill:url(#SVGID_00000006678403170333397660000004495569963788640644_);" points="2490.02,1919.93 2490.02,1424.29 
		2373.72,1424.29 2373.77,1424.26 2373.69,1424.26 2373.69,1919.96 2373.77,1919.96 2373.72,1919.93 	"/>
	
		<linearGradient id="SVGID_00000023986587891231080830000011695727371964285080_" gradientUnits="userSpaceOnUse" x1="2768.8801" y1="1665.5214" x2="2615.4062" y2="1686.0652">
		<stop  offset="0" style="stop-color:#D1DEFF"/>
		<stop  offset="1" style="stop-color:#B2C7FF"/>
	</linearGradient>
	<polygon style="fill:url(#SVGID_00000023986587891231080830000011695727371964285080_);" points="2661.49,1424.29 2661.49,1919.93 
		2661.51,1919.93 2777.82,1919.93 2777.82,1424.29 2661.49,1424.29 	"/>
	
		<linearGradient id="SVGID_00000059308336287127762740000002906421613470211239_" gradientUnits="userSpaceOnUse" x1="2373.7417" y1="1343.5671" x2="2777.7781" y2="1343.5671">
		<stop  offset="0" style="stop-color:#EBF2FF"/>
		<stop  offset="1" style="stop-color:#E1E8FF"/>
	</linearGradient>
	<polygon style="fill:url(#SVGID_00000059308336287127762740000002906421613470211239_);" points="2661.49,1424.26 2777.78,1424.26 
		2575.76,1262.88 2661.47,1424.26 	"/>
	
		<linearGradient id="SVGID_00000018955411097778074000000016518483110188603312_" gradientUnits="userSpaceOnUse" x1="2373.7671" y1="1343.5493" x2="2777.7029" y2="1343.5493">
		<stop  offset="0" style="stop-color:#EBF2FF"/>
		<stop  offset="1" style="stop-color:#E1E8FF"/>
	</linearGradient>
	<polygon style="fill:url(#SVGID_00000018955411097778074000000016518483110188603312_);" points="2490.06,1424.26 2575.73,1262.86 
		2575.72,1262.84 2373.77,1424.26 2490.02,1424.26 	"/>
	
		<linearGradient id="SVGID_00000095297827966408943170000000805857547649821578_" gradientUnits="userSpaceOnUse" x1="2490.0239" y1="1672.1102" x2="2661.4927" y2="1672.1102">
		<stop  offset="0" style="stop-color:#EBF2FF"/>
		<stop  offset="1" style="stop-color:#E1E8FF"/>
	</linearGradient>
	<polygon style="fill:url(#SVGID_00000095297827966408943170000000805857547649821578_);" points="2661.49,1919.93 2661.49,1424.29 
		2490.04,1424.29 2490.02,1424.29 2490.02,1919.93 2490.05,1919.93 	"/>
	
		<linearGradient id="SVGID_00000158733407636183697840000012735008372321272964_" gradientUnits="userSpaceOnUse" x1="2490.0554" y1="1343.556" x2="2661.4744" y2="1343.556">
		<stop  offset="0" style="stop-color:#D1DEFF"/>
		<stop  offset="1" style="stop-color:#B2C7FF"/>
	</linearGradient>
	<polygon style="fill:url(#SVGID_00000158733407636183697840000012735008372321272964_);" points="2661.47,1424.26 2575.76,1262.88 
		2575.73,1262.86 2490.06,1424.26 	"/>
	
		<linearGradient id="SVGID_00000147192313562752165600000011494111620772334262_" gradientUnits="userSpaceOnUse" x1="2373.842" y1="2000.671" x2="2777.7781" y2="2000.671">
		<stop  offset="0" style="stop-color:#EBF2FF"/>
		<stop  offset="1" style="stop-color:#E1E8FF"/>
	</linearGradient>
	<polygon style="fill:url(#SVGID_00000147192313562752165600000011494111620772334262_);" points="2661.49,1919.96 2575.81,2081.36 
		2575.83,2081.38 2777.78,1919.96 2661.49,1919.96 	"/>
	
		<linearGradient id="SVGID_00000098931602851123004340000003533347563380091806_" gradientUnits="userSpaceOnUse" x1="2373.7671" y1="2000.6532" x2="2777.8057" y2="2000.6532">
		<stop  offset="0" style="stop-color:#EBF2FF"/>
		<stop  offset="1" style="stop-color:#E1E8FF"/>
	</linearGradient>
	<polygon style="fill:url(#SVGID_00000098931602851123004340000003533347563380091806_);" points="2490.02,1919.96 2373.77,1919.96 
		2575.79,2081.34 2490.07,1919.96 	"/>
	
		<linearGradient id="SVGID_00000045578864228024959070000017982843163368266903_" gradientUnits="userSpaceOnUse" x1="2490.0713" y1="2000.6643" x2="2661.4895" y2="2000.6643">
		<stop  offset="0" style="stop-color:#D1DEFF"/>
		<stop  offset="1" style="stop-color:#B2C7FF"/>
	</linearGradient>
	<polygon style="fill:url(#SVGID_00000045578864228024959070000017982843163368266903_);" points="2490.07,1919.96 2575.79,2081.34 
		2575.81,2081.36 2661.49,1919.96 	"/>
</g>
<g>
	
		<linearGradient id="SVGID_00000016050739992534004580000006319322757777883821_" gradientUnits="userSpaceOnUse" x1="4363.5518" y1="1556.1064" x2="4402.9048" y2="1556.1064">
		<stop  offset="0" style="stop-color:#909EFF"/>
		<stop  offset="1" style="stop-color:#6977E3"/>
	</linearGradient>
	<path style="fill:url(#SVGID_00000016050739992534004580000006319322757777883821_);" d="M4361.39,994.84h-93.84v1122.54h93.84
		c41.02,0,74.3-33.27,74.3-74.29v-974.04C4435.69,1028.02,4402.41,994.84,4361.39,994.84z"/>
	
		<linearGradient id="SVGID_00000183230393502334070820000010992121986781482687_" gradientUnits="userSpaceOnUse" x1="3973.614" y1="1333.1031" x2="3322.321" y2="1973.3953">
		<stop  offset="0" style="stop-color:#909EFF"/>
		<stop  offset="1" style="stop-color:#6977E3"/>
	</linearGradient>
	<path style="fill:url(#SVGID_00000183230393502334070820000010992121986781482687_);" d="M4397.74,1069.05v974.04
		c0,41.02-33.27,74.29-74.3,74.29H3170.16c-41.02,0-74.3-33.27-74.3-74.29v-974.04c0-41.02,33.27-74.21,74.3-74.21h1153.29
		C4364.47,994.84,4397.74,1028.02,4397.74,1069.05z"/>
</g>
<g>
	<g>
		<rect x="3188.26" y="1154.53" class="st9" width="618.19" height="34.33"/>
		<rect x="3188.26" y="1234.44" class="st9" width="186.64" height="34.33"/>
		<rect x="3856.11" y="1234.44" class="st9" width="154.08" height="34.33"/>
		<rect x="4067.08" y="1234.44" class="st9" width="238.26" height="34.33"/>
		<rect x="3455.49" y="1234.44" class="st9" width="284.46" height="34.33"/>
		<rect x="3188.26" y="1314.36" class="st9" width="305.17" height="34.33"/>
		<rect x="3578.94" y="1314.36" class="st9" width="187.17" height="34.33"/>
		<rect x="3333.69" y="1394.27" class="st9" width="196.85" height="34.34"/>
		<rect x="3606.37" y="1394.27" class="st9" width="88.74" height="34.34"/>
		<rect x="3753.2" y="1394.27" class="st9" width="180.71" height="34.34"/>
		<rect x="4011.37" y="1394.27" class="st9" width="93.58" height="34.34"/>
		<rect x="4163.03" y="1394.27" class="st9" width="142.31" height="34.34"/>
		<rect x="3349.83" y="1474.19" class="st9" width="122.63" height="34.34"/>
		<rect x="3546.67" y="1474.19" class="st9" width="216.21" height="34.34"/>
		<rect x="3485.36" y="1554.11" class="st9" width="195.24" height="34.34"/>
	</g>
	<rect x="3333.48" y="1728.06" class="st9" width="171.12" height="34.33"/>
	<rect x="3582.76" y="1728.06" class="st9" width="90.28" height="34.33"/>
	<rect x="3962.73" y="1728.06" class="st9" width="121.26" height="34.33"/>
	<rect x="4129.81" y="1728.06" class="st9" width="146.87" height="34.33"/>
	<rect x="3747.14" y="1728.06" class="st9" width="160.34" height="34.33"/>
	<rect x="3582.76" y="1807.97" class="st9" width="177.86" height="34.34"/>
	<rect x="3945.22" y="1807.97" class="st9" width="177.86" height="34.34"/>
	<rect x="3333.48" y="1807.97" class="st9" width="171.12" height="34.34"/>
	<rect x="3582.76" y="1887.88" class="st9" width="113.18" height="34.34"/>
	<rect x="4148.67" y="1887.88" class="st9" width="144.17" height="34.34"/>
	<rect x="4026.06" y="1887.88" class="st9" width="88.93" height="34.34"/>
	<rect x="3757.92" y="1887.88" class="st9" width="177.86" height="34.34"/>
	<rect x="3333.48" y="1887.88" class="st9" width="171.12" height="34.34"/>
	<rect x="3333.48" y="1967.8" class="st9" width="171.12" height="34.34"/>
	<rect x="3582.76" y="1967.8" class="st9" width="347.64" height="34.34"/>
	<rect x="3980.25" y="1967.8" class="st9" width="195.38" height="34.34"/>
</g>
<g>
	
		<linearGradient id="SVGID_00000134246653242357626210000013441372864183070341_" gradientUnits="userSpaceOnUse" x1="2251.9519" y1="1124.0365" x2="2298.9592" y2="1124.0365">
		<stop  offset="0" style="stop-color:#D1DEFF"/>
		<stop  offset="1" style="stop-color:#B2C7FF"/>
	</linearGradient>
	<path style="fill:url(#SVGID_00000134246653242357626210000013441372864183070341_);" d="M2264.51,1072.34
		c0,23.25,12.22,45.39-11.38,45.39h-1.18v12.22h1.18c23.44,0,11.38,23.6,11.38,44.62c0,18.09,10.1,27.66,29.2,27.66h5.24v-13h-4.66
		c-9.61,0-14.08-4.97-14.08-15.63c0-15.21,10.26-42.16-9.17-49.88c19.44-7.89,9.17-33.92,9.17-49.45c0-10.82,4.21-15.44,14.08-15.44
		h4.66v-13h-5.24C2274.88,1045.84,2264.51,1055.25,2264.51,1072.34z"/>
	
		<linearGradient id="SVGID_00000085219267266548944070000003157684235743281081_" gradientUnits="userSpaceOnUse" x1="2470.1902" y1="1124.0365" x2="2517.1978" y2="1124.0365">
		<stop  offset="0" style="stop-color:#D1DEFF"/>
		<stop  offset="1" style="stop-color:#B2C7FF"/>
	</linearGradient>
	<path style="fill:url(#SVGID_00000085219267266548944070000003157684235743281081_);" d="M2516.01,1117.73
		c-23.6,0-11.38-22.15-11.38-45.39c0-16.85-10.72-26.5-29.4-26.5h-5.05v13h4.64c9.88,0.17,14.1,4.79,14.1,15.44
		c0,15.58-10.53,41.37,9.03,49.45c-19.65,7.94-9.03,34.77-9.03,49.88c0,19.22-16.37,15-18.74,15.63v13
		c5.59-0.78,34.45,3.44,34.45-27.66c0-20.95-12.07-44.62,11.38-44.62h1.18v-12.22H2516.01z"/>
</g>
<linearGradient id="SVGID_00000134247441113857377570000001211029960440187025_" gradientUnits="userSpaceOnUse" x1="2318.458" y1="1085.5956" x2="2450.5081" y2="1085.5956">
	<stop  offset="0" style="stop-color:#D1DEFF"/>
	<stop  offset="1" style="stop-color:#B2C7FF"/>
</linearGradient>
<rect x="2318.46" y="1078.18" style="fill:url(#SVGID_00000134247441113857377570000001211029960440187025_);" width="132.05" height="14.84"/>
<linearGradient id="SVGID_00000104699221683985267320000011625026455566551983_" gradientUnits="userSpaceOnUse" x1="2318.458" y1="1119.2721" x2="2450.5081" y2="1119.2721">
	<stop  offset="0" style="stop-color:#D1DEFF"/>
	<stop  offset="1" style="stop-color:#B2C7FF"/>
</linearGradient>
<rect x="2318.46" y="1111.85" style="fill:url(#SVGID_00000104699221683985267320000011625026455566551983_);" width="132.05" height="14.84"/>
<linearGradient id="SVGID_00000016771931844681747820000012238633873290760350_" gradientUnits="userSpaceOnUse" x1="2318.458" y1="1152.9497" x2="2450.5081" y2="1152.9497">
	<stop  offset="0" style="stop-color:#D1DEFF"/>
	<stop  offset="1" style="stop-color:#B2C7FF"/>
</linearGradient>
<rect x="2318.46" y="1145.53" style="fill:url(#SVGID_00000016771931844681747820000012238633873290760350_);" width="46.25" height="14.84"/>
<linearGradient id="SVGID_00000089547983424807771460000000192229023741272962_" gradientUnits="userSpaceOnUse" x1="2344.1262" y1="1152.9497" x2="2426.8738" y2="1152.9497">
	<stop  offset="0" style="stop-color:#D1DEFF"/>
	<stop  offset="1" style="stop-color:#B2C7FF"/>
</linearGradient>
<rect x="2387.21" y="1145.53" style="fill:url(#SVGID_00000089547983424807771460000000192229023741272962_);" width="39.67" height="14.84"/>
<g>
	
		<linearGradient id="SVGID_00000041988511934673151160000013763230115804163261_" gradientUnits="userSpaceOnUse" x1="2744.3721" y1="2101.3857" x2="2841.301" y2="2101.3857">
		<stop  offset="0" style="stop-color:#D1DEFF"/>
		<stop  offset="1" style="stop-color:#B2C7FF"/>
	</linearGradient>
	<path style="fill:url(#SVGID_00000041988511934673151160000013763230115804163261_);" d="M2771.87,2122.87l-12.03,36.43h-15.47
		l39.36-115.84h18.04l39.53,115.84h-15.98l-12.38-36.43H2771.87z M2809.85,2111.18c-11.36-34.7-11.07-29.92-17.35-54.48h-0.35
		c-6.05,24.22-8.81,28.7-17.18,54.48H2809.85z"/>
	
		<linearGradient id="SVGID_00000056426795583085872610000017261531888197496713_" gradientUnits="userSpaceOnUse" x1="2856.6433" y1="2099.2371" x2="2936.0439" y2="2099.2371">
		<stop  offset="0" style="stop-color:#D1DEFF"/>
		<stop  offset="1" style="stop-color:#B2C7FF"/>
	</linearGradient>
	<path style="fill:url(#SVGID_00000056426795583085872610000017261531888197496713_);" d="M2856.64,2159.3
		c1.26-20.91,0.42-31.75,0.68-122.02h14.95v52.25h0.34c5.33-9.28,14.95-15.3,28.36-15.3c20.62,0,35.23,17.19,35.06,42.45
		c0,29.73-18.73,44.51-37.29,44.51c-12.03,0-21.66-4.64-27.84-15.64h-0.52l-0.68,13.75H2856.64z M2872.28,2125.96
		c0,11.67,9.53,23.2,23.37,23.2c15.81,0,25.26-12.89,25.26-31.97c0-16.67-8.59-30.93-24.75-30.93c-13.43,0-23.89,11.79-23.89,24.75
		V2125.96z"/>
	
		<linearGradient id="SVGID_00000094582020842938854500000012089680240492009884_" gradientUnits="userSpaceOnUse" x1="2949.1367" y1="2117.7131" x2="3014.7891" y2="2117.7131">
		<stop  offset="0" style="stop-color:#D1DEFF"/>
		<stop  offset="1" style="stop-color:#B2C7FF"/>
	</linearGradient>
	<path style="fill:url(#SVGID_00000094582020842938854500000012089680240492009884_);" d="M3014.44,2156.21
		c-3.95,2.06-12.72,4.81-23.89,4.81c-25.09,0-41.42-17.01-41.42-42.45c0-25.61,17.53-44.17,44.69-44.17
		c8.94,0,16.84,2.23,20.97,4.29l-3.44,11.69c-3.61-2.06-9.28-3.95-17.53-3.95c-19.08,0-29.39,14.09-29.39,31.45
		c0,19.25,12.37,31.11,28.87,31.11c8.59,0,14.26-2.23,18.56-4.12L3014.44,2156.21z"/>
</g>
<g>
	
		<linearGradient id="SVGID_00000058559749786734450130000016932360899108587931_" gradientUnits="userSpaceOnUse" x1="3399.2485" y1="2702.6658" x2="3399.2485" y2="2109.1025">
		<stop  offset="0" style="stop-color:#EBF2FF"/>
		<stop  offset="0.6273" style="stop-color:#E7EEFF"/>
		<stop  offset="1" style="stop-color:#E1E8FF"/>
	</linearGradient>
	<path style="fill:url(#SVGID_00000058559749786734450130000016932360899108587931_);" d="M4121.7,2334.35v452.23
		c0,39.03-31.64,70.67-70.67,70.67H2747.46c-39.03,0-70.67-31.64-70.67-70.67v-452.23c0-39.03,31.64-70.67,70.67-70.67h1303.58
		C4090.06,2263.69,4121.7,2295.33,4121.7,2334.35z"/>
	<g>
		
			<linearGradient id="SVGID_00000175283056457074482260000003862068874679408798_" gradientUnits="userSpaceOnUse" x1="2888.6255" y1="2560.4978" x2="2888.6255" y2="2349.2285">
			<stop  offset="0" style="stop-color:#D1DEFF"/>
			<stop  offset="1" style="stop-color:#B2C7FF"/>
		</linearGradient>
		<path style="fill:url(#SVGID_00000175283056457074482260000003862068874679408798_);" d="M2994.26,2367.28v175.17
			c0,9.97-8.08,18.05-18.05,18.05h-175.17c-9.97,0-18.05-8.08-18.05-18.05v-175.17c0-9.97,8.08-18.05,18.05-18.05h175.17
			C2986.18,2349.23,2994.26,2357.31,2994.26,2367.28z"/>
		
			<linearGradient id="SVGID_00000158730007679551814860000009550410078706848653_" gradientUnits="userSpaceOnUse" x1="3549.6677" y1="2406.8813" x2="3549.6677" y2="2432.0398">
			<stop  offset="0" style="stop-color:#D1DEFF"/>
			<stop  offset="1" style="stop-color:#B2C7FF"/>
		</linearGradient>
		
			<rect x="3083.83" y="2388.97" style="fill:url(#SVGID_00000158730007679551814860000009550410078706848653_);" width="931.68" height="25.66"/>
		
			<linearGradient id="SVGID_00000110440551092225888720000012071119494368380039_" gradientUnits="userSpaceOnUse" x1="3549.6677" y1="2478.2991" x2="3549.6677" y2="2503.4573">
			<stop  offset="0" style="stop-color:#D1DEFF"/>
			<stop  offset="1" style="stop-color:#B2C7FF"/>
		</linearGradient>
		
			<rect x="3083.83" y="2460.38" style="fill:url(#SVGID_00000110440551092225888720000012071119494368380039_);" width="931.68" height="25.66"/>
		
			<linearGradient id="SVGID_00000153692729268008274860000003668913094702041740_" gradientUnits="userSpaceOnUse" x1="3549.6677" y1="2549.7166" x2="3549.6677" y2="2574.875">
			<stop  offset="0" style="stop-color:#D1DEFF"/>
			<stop  offset="1" style="stop-color:#B2C7FF"/>
		</linearGradient>
		
			<rect x="3083.83" y="2531.8" style="fill:url(#SVGID_00000153692729268008274860000003668913094702041740_);" width="931.68" height="25.66"/>
		
			<linearGradient id="SVGID_00000064356227388197654760000013818963863955979443_" gradientUnits="userSpaceOnUse" x1="3401.1716" y1="2621.134" x2="3401.1716" y2="2646.2925">
			<stop  offset="0" style="stop-color:#D1DEFF"/>
			<stop  offset="1" style="stop-color:#B2C7FF"/>
		</linearGradient>
		
			<rect x="2786.84" y="2603.22" style="fill:url(#SVGID_00000064356227388197654760000013818963863955979443_);" width="1228.67" height="25.66"/>
		
			<linearGradient id="SVGID_00000001629835853758870140000012438895010747434401_" gradientUnits="userSpaceOnUse" x1="3401.1716" y1="2692.5515" x2="3401.1716" y2="2717.71">
			<stop  offset="0" style="stop-color:#D1DEFF"/>
			<stop  offset="1" style="stop-color:#B2C7FF"/>
		</linearGradient>
		
			<rect x="2786.84" y="2674.64" style="fill:url(#SVGID_00000001629835853758870140000012438895010747434401_);" width="1228.67" height="25.66"/>
		
			<linearGradient id="SVGID_00000039822397055590891490000013258794740108120461_" gradientUnits="userSpaceOnUse" x1="3401.1716" y1="2763.9692" x2="3401.1716" y2="2789.1274">
			<stop  offset="0" style="stop-color:#D1DEFF"/>
			<stop  offset="1" style="stop-color:#B2C7FF"/>
		</linearGradient>
		
			<rect x="2786.84" y="2746.05" style="fill:url(#SVGID_00000039822397055590891490000013258794740108120461_);" width="1228.67" height="25.66"/>
	</g>
</g>
<g>
	<path class="st9" d="M3946.81,1525.29c-3.82-3.82-9.02-5.28-15.33-2.89l-90.16,40.45c-6.46,3.05-10.84,8.73-10.84,16.02v1.81
		c0,7.33,4.4,12.99,10.93,16.06l90.08,40.41l0.27,0.11c5.11,1.93,10.98,1.08,15.07-3.01c7.12-7.13,4.23-18.86-4.93-22.68
		l-71.54-31.79l71.43-31.75C3951.46,1544,3953.68,1532.19,3946.81,1525.29z"/>
	<path class="st9" d="M4025.1,1478.91l-59.84,175c-3.42,10.35,3.82,18.87,13.08,18.87c6.66,0,11.48-4.13,13.28-9.52l59.84-175
		c1.92-5.82,0.58-10.96-3-14.71C4041.81,1466.62,4028.62,1468.34,4025.1,1478.91z"/>
	<path class="st9" d="M4175.1,1562.81l-90.15-40.44c-8.6-3.68-19.24,2.23-19.24,12.71c0,5.79,3.91,10.83,8.9,12.9l71.54,31.79
		l-71.44,31.75c-9.67,4.06-11.87,15.89-5.01,22.73c4.31,4.32,10.72,4.87,15.33,2.89l90.15-40.44c6.46-3.03,10.85-8.74,10.85-16.02
		v-1.81C4186.03,1571.57,4181.68,1565.92,4175.1,1562.81z"/>
</g>
<g>
	<path class="st42" d="M1604.13,3945.7l-135.74-1.44l8.43-129.18l131.15,4.06l-2.6,125.48
		C1605.29,3945.24,1604.76,3945.7,1604.13,3945.7z"/>
	<path class="st43" d="M1465.18,3940.26l-23.51,98.2c-4.04,20.72,11.38,40.14,32.48,40.84c86.64,2.9,256.94,0.03,288.39-0.25
		c2.51-0.02,4.5-2,4.62-4.51l0,0c1.4-30.04-18.55-49.14-47.95-63.91l-113.34-76.33c-0.21-0.13-0.45-0.19-0.7-0.18L1465.18,3940.26z"
		/>
</g>
<g>
	<path class="st42" d="M1060.06,3877.19l-112.49-75.99l78.2-103.16l107.21,75.64l-71.29,103.29
		C1061.28,3877.45,1060.58,3877.55,1060.06,3877.19z"/>
	<path class="st43" d="M947.09,3796.1l-73.72,69c-14.78,15.07-12.61,39.77,4.61,51.98c70.71,50.15,214.42,141.58,240.81,158.67
		c2.11,1.36,4.86,0.81,6.34-1.22l0,0c17.72-24.3,11.59-51.23-4.8-79.75l-52.54-126.14c-0.11-0.22-0.27-0.41-0.49-0.53L947.09,3796.1
		z"/>
</g>
<g>
	<rect x="769.64" y="3266.23" class="st43" width="22.78" height="706.57"/>
	<path class="st44" d="M1203.38,3169.66l-221.34,560.99l121.93,98.7l286.05-452.33C1340.69,3255.65,1288.07,3147.62,1203.38,3169.66
		z"/>
	<path class="st44" d="M560.33,2884.82l-22.21,178.75c-2.42,81.43,62.93,148.76,144.4,148.76h572.17l195.27,673.11
		c2.29,28.95,179.53,14.93,177.24-14.02c0,0-67.54-780.56-151.02-851.49c-110.27-93.68-553.52-131.66-553.52-131.66L560.33,2884.82z
		"/>
	<path class="st42" d="M1018.84,2138.8c-3.43,3.87-7.03,14.06-10.64,27.14c-11.36,41.12-22.36,111.73-22.36,111.73l-139.32-96.13
		c51.13-73.22,68.62-127.33,68.62-127.33s10.55,2.7,25.07,7.48C979.62,2074.95,1048.69,2103.98,1018.84,2138.8z"/>
	<path class="st45" d="M1018.84,2138.8c-3.43,3.87-7.03,14.06-10.64,27.14c0,0-64.84-63.75-75.57-84.5
		c-3.16-6.04,0.63-12.89,7.57-19.75C979.62,2074.95,1048.69,2103.98,1018.84,2138.8z"/>
	<path class="st42" d="M1170.79,2031.58c0,9.56-21.37,11.54-21.37,11.54s-0.99,15.6-4.06,35.17c-3.35,21.01-10.63,56.54-25.88,71.15
		c-13.35,12.8-153.21,6.13-204.34-95.22l-48.34-65.47l35.17-132.56c0,0,95.86-31.92,184.59-30.3c88.91,1.53,62.4,160.6,62.4,160.6
		S1170.79,2023.1,1170.79,2031.58z"/>
	<path class="st46" d="M915.18,2054.21c0,0,3.44-19.17-5.51-41.73c-10.01-25.22-18.38-44.38-8.11-58.04
		c26.89-35.76,66.55,33.27,66.55,33.27l20.18-5.45l3.82-112.91c0,0,160.36,55.64,200.18,0c39.82-55.64,24-133.09-34.36-121.09
		c-58.36,12-142.91,15.27-142.91,15.27s-157.09-15.82-170.18,50.73C831.73,1880.8,789.16,1978.89,915.18,2054.21z"/>
	<path class="st42" d="M1657.82,2509.66c0,0,31.14,56.83,13.56,68.89c-36.58,25.11-127.22,14.06-127.22,14.06l34.15-82.94
		c0,0,15.73-89.89,38.92-80.51c23.18,9.29,15.07,48.54,15.07,48.54s110.56-55.82,123.37-35.99
		C1768.56,2461.53,1657.82,2509.66,1657.82,2509.66z"/>
	<path class="st47" d="M854.24,2440.23c59.4,86.45,212.98,330.88,289.14,343.21c64.92,10.5,477.84-174.6,477.84-174.6l-44.15-111.92
		l-344.42,86.35c0,0-157.76-242.85-206.37-287.55C939.92,2216.29,785.3,2339.91,854.24,2440.23z"/>
	<path class="st48" d="M1029.7,2680.93l16.92,221.3c0,8.57-76.2,25.16-170.52,41.3c-153.12,26.06-338.05,13.89-338.05,0
		c0,0,141.71-720.86,316.43-784.82c65.6-24.02,156.8,98.08,171.8,148.05C1064.31,2433.35,1029.7,2680.93,1029.7,2680.93z"/>
	<path class="st47" d="M1087.2,2682.65c-5.14,77.2-17.94,153.03-40.58,219.58c0,8.57-76.2,25.16-170.52,41.3
		c28.13-50.23,40.13-109.56,30.57-166.47c-16.23-96.49-86.48-176.39-108.21-271.88c-18.49-81.61-5.95-139.42,45.99-205.06l0,0
		c45.27,15.15,72.23,62.04,86.03,107.76c13.71,45.81,18.85,94.69,40.67,137.25c14.52,28.32,35.8,52.49,57.35,75.93
		C1047.7,2641.89,1067.27,2662.45,1087.2,2682.65z"/>
	<path class="st42" d="M1614.1,2822.6l-46.98-23.99l-113.89,1.53l5.05-73.13c0,0,46.26-47.07,67.54-28.04
		c20.29,18.12-3.7,31.38-5.86,32.55c5.5-1.18,109.97-2.54,109.63,24.07C1628.86,2811.86,1614.1,2822.6,1614.1,2822.6z"/>
	<path class="st48" d="M813.22,2378.07c23.54,102.21,76.72,385.95,143.05,425.36c56.54,33.59,508.58,12.9,508.58,12.9v-103.65
		l-352.08-62.71c0,0-57.66-283.79-86.47-343.21C975.08,2201.18,785.9,2259.45,813.22,2378.07z"/>
	<path class="st49" d="M1196.85,3237.2v26.92c0,13.9-11.26,25.16-25.16,25.16H517.88c-13.9,0-25.16-11.26-25.16-25.16v-26.92
		c0-13.9,11.26-25.16,25.16-25.16h653.81C1185.58,3212.03,1196.85,3223.3,1196.85,3237.2z"/>
	<path class="st49" d="M544.47,3285.1l-26.59,4.17c-13.73,2.15-26.6-7.23-28.75-20.96L365.07,2479.5
		c-2.15-13.73,7.23-26.6,20.96-28.75l26.59-4.17c13.73-2.15,26.6,7.23,28.75,20.96l124.06,788.81
		C567.58,3270.08,558.2,3282.95,544.47,3285.1z"/>
	<path class="st43" d="M1042.22,4078.5c-2.45-14.15-14.11-25.41-28.89-26.69c-110.86-9.55-220.84-79.02-220.84-79.02h-22.86
		c0,0-109.97,69.47-220.84,79.02c-14.77,1.28-26.44,12.54-28.88,26.69H1042.22z"/>
	<path class="st43" d="M1830.8,2865.85h-359.31c0-10.33,4.15-19.74,10.93-26.43c6.78-6.88,16.1-11.04,26.43-11.04h284.59
		C1814.09,2828.39,1830.8,2845.2,1830.8,2865.85z"/>
	<g>
		<path class="st43" d="M1264.89,4078.5l177.99-1034.74c11.74-68.24,70.51-117.77,139.75-117.77h715.81
			c69.24,0,128.02,49.53,139.75,117.77l177.99,1034.74h30.82l-178.88-1039.89c-14.25-82.86-85.62-143-169.69-143h-715.81
			c-84.07,0-155.44,60.14-169.69,142.99L1234.07,4078.5H1264.89z"/>
	</g>
	<path d="M2463.63,2884.96v21.97c0,10.53-8.5,19.04-19.13,19.04H1436.54c-10.53,0-19.13-8.51-19.13-19.04v-21.97
		c0-10.53,8.61-19.14,19.13-19.14H2444.5C2455.13,2865.82,2463.63,2874.43,2463.63,2884.96z"/>
	<g>
		<g>
			<path d="M2232.48,2865.85h-180.39c-8.39,0-15.19-6.8-15.19-15.19v0c0-8.39,6.8-15.19,15.19-15.19h181.3
				c25.72,0,50.86-10.82,66.62-31.16c16.41-21.18,21.25-48.13,13.27-73.57l-142.57-455.33l28.99-9.08l142.57,455.33
				c10.75,34.34,4.57,70.67-16.96,99.56C2303.72,2850.18,2268.59,2865.85,2232.48,2865.85z"/>
		</g>
		<path class="st46" d="M2223.88,2156.16c10.69-26.68,51.46-11.85,44.07,15.92l-102.59,385.73c-0.5,1.87-1.1,3.68-1.8,5.44
			c-10.67,26.7-51.47,11.89-44.08-15.9l102.6-385.75C2222.58,2159.73,2223.18,2157.91,2223.88,2156.16z"/>
		<path class="st43" d="M2274.84,1994.77l-183.35,689.39c-10.73,40.33-52.04,64.38-92.37,53.66l183.38-689.5
			C2193.2,2008.09,2234.63,1984.07,2274.84,1994.77z"/>
	</g>
	
		<ellipse transform="matrix(0.0158 -0.9999 0.9999 0.0158 -863.5241 3064.5686)" class="st46" cx="1124.89" cy="1970.91" rx="17.19" ry="8.85"/>
	<path class="st46" d="M1140.28,1947.72c-11.15,0.87-13.39-2.49-22.52,2.12c-2.37,1.23-4.99,2.87-8.27,3.88
		c0.69-3.33,1.9-6.19,3.98-8.83c4.48-5.92,12.22-7.48,19.56-3.56C1135.92,1942.84,1138.36,1944.9,1140.28,1947.72z"/>
	<path class="st9" d="M1145.36,2078.29c-0.99,6.22-2.16,12.8-3.7,19.39h-0.9c-10.82,0-19.48-8.66-19.66-19.39H1145.36z"/>
</g>
<linearGradient id="SVGID_00000069386229949269807030000013979800913138473904_" gradientUnits="userSpaceOnUse" x1="1033.1801" y1="1494.0255" x2="1493.316" y2="1494.0255" gradientTransform="matrix(-1 0 0 1 3094.043 0)">
	<stop  offset="0" style="stop-color:#D1DEFF"/>
	<stop  offset="1" style="stop-color:#B2C7FF"/>
</linearGradient>
<path style="fill:url(#SVGID_00000069386229949269807030000013979800913138473904_);" d="M2007.52,1641.34l8.11,50.33
	c0.94,6.59-4.71,12.44-11.31,11.31l-58.81-9.43c-33.74,19.42-72.95,30.54-114.61,30.54c-127.05,0-230.16-102.92-230.16-229.97
	s103.11-230.16,230.16-230.16s229.97,103.11,229.97,230.16C2060.86,1550.1,2040.69,1601.57,2007.52,1641.34z"/>
<g>
	<path class="st9" d="M1978.37,1521.17v-44.37h-32.33c-3.08-15.88-9.24-30.7-18-43.59l22.81-22.81l-31.57-31.47l-22.71,22.71
		c-12.89-8.76-27.62-15.01-43.59-18.1v-32.14h-44.46v32.14c-15.88,3.08-30.7,9.34-43.59,18.1l-22.71-22.71l-31.47,31.47l22.81,22.81
		c-8.76,12.89-15.01,27.71-18,43.59h-32.34v44.37h32.24c3.08,15.88,9.24,30.6,17.99,43.59l-22.71,22.81l31.47,31.37l22.71-22.62
		c12.9,8.76,27.72,15.02,43.59,18v32.15h44.46v-32.15c15.98-2.98,30.7-9.24,43.69-18l22.62,22.62l31.57-31.37l-22.81-22.81
		c8.76-12.99,15.01-27.71,18-43.59H1978.37z M1830.75,1555.42c-31.16,0-56.39-25.32-56.39-56.38c0-31.15,25.23-56.58,56.39-56.58
		c31.25,0,56.48,25.42,56.48,56.58C1887.23,1530.09,1862,1555.42,1830.75,1555.42z"/>
</g>
</svg>
