<?xml version="1.0" encoding="utf-8"?>
<!-- Generator: Adobe Illustrator 26.0.1, SVG Export Plug-In . SVG Version: 6.00 Build 0)  -->
<svg version="1.1" xmlns="http://www.w3.org/2000/svg" xmlns:xlink="http://www.w3.org/1999/xlink" x="0px" y="0px"
	 viewBox="0 0 500 500" style="enable-background:new 0 0 500 500;" xml:space="preserve">
<style type="text/css">
	.st0{fill:#F9DEE8;}
	.st1{fill:#CACACC;}
	.st2{fill:#7C7C7F;}
	.st3{fill:#FFFFFF;}
	.st4{fill:#F28F8F;}
	.st5{fill:#FFB2AE;}
	.st6{fill:#C6C5C4;}
	.st7{fill:#E6E6E7;}
	.st8{fill:#E3185C;}
	.st9{opacity:0.62;fill:#CACACC;}
	.st10{opacity:0.62;fill:#7C7C7F;}
	.st11{opacity:0.62;fill:#FFFFFF;}
	.st12{opacity:0.62;}
	.st13{opacity:0.62;fill:#F28F8F;}
	.st14{opacity:0.62;fill:#FFB2AE;}
	.st15{opacity:0.62;fill:#C6C5C4;}
	.st16{opacity:0.62;fill:#E6E6E7;}
	.st17{opacity:0.76;fill:#E3185C;}
	.st18{opacity:0.93;fill:#FFFFFF;}
	.st19{opacity:0.93;}
	.st20{opacity:0.93;fill:#CECED8;}
	.st21{opacity:0.93;fill:#FFB2AE;}
	.st22{opacity:0.93;fill:#BFBFBF;}
	.st23{fill:#9D9DA0;}
	.st24{fill:#EF8A5E;}
	.st25{fill:#FFA16F;}
	.st26{fill:#8D8D8E;}
	.st27{fill:#26345B;}
	.st28{fill:#606060;}
	.st29{fill:#25335A;}
	.st30{fill:#232733;}
	.st31{fill:#555556;}
	.st32{fill:#EFEFEF;}
	.st33{fill:#D85692;}
	.st34{fill:#E872A2;}
</style>
<g id="BACKGROUND">
</g>
<g id="OBJECT">
	<path class="st0" d="M101.76,117.1c14.14,2.93,28.54,3.76,42.72,1.83c21.87-2.97,50.8-11.25,70.92-33.45
		c36.43-40.2,102.42-80.73,144.03-29.5c41.62,51.23,27.07,109.47,65.84,122.5c38.77,13.03,77.24,60.58,48.61,122.85
		c-34.29,74.58-101.06,25.73-63.45,117.64c19.23,47-105.92,53.68-167.77,20.49c-56.68-30.42-112.55,49.68-165.67-1.63
		S105,323.27,64.64,288.81c-40.37-34.46-70.56-55.6-51.32-117C27.74,125.76,79.97,112.58,101.76,117.1z"/>
	<path id="XMLID_37_" class="st1" d="M322.59,297.23H181.66c-9.02,0-16.34-7.32-16.34-16.34V67.79c0-9.02,7.32-16.34,16.34-16.34
		h140.93c9.02,0,16.34,7.32,16.34,16.34v213.09C338.93,289.91,331.61,297.23,322.59,297.23z"/>
	<path id="XMLID_66_" class="st2" d="M329.19,171.16h-149.8v-4.91c0-4.64,3.76-8.41,8.41-8.41h132.98c4.64,0,8.41,3.76,8.41,8.41
		V171.16z"/>
	<path id="XMLID_70_" class="st3" d="M320.26,216.68H188.31c-4.93,0-8.92-4-8.92-8.92v-36.6h149.8v36.6
		C329.19,212.69,325.19,216.68,320.26,216.68z"/>
	<path id="XMLID_74_" class="st2" d="M329.05,237.67h-149.8v-4.91c0-4.64,3.76-8.41,8.41-8.41h132.98c4.64,0,8.41,3.76,8.41,8.41
		V237.67z"/>
	<path id="XMLID_73_" class="st3" d="M320.13,283.19H188.18c-4.93,0-8.92-4-8.92-8.92v-36.6h149.8v36.6
		C329.05,279.19,325.06,283.19,320.13,283.19z"/>
	<rect id="XMLID_202_" x="187.92" y="244.74" class="st1" width="133.41" height="2.6"/>
	<rect id="XMLID_199_" x="187.92" y="252.07" class="st1" width="133.41" height="2.6"/>
	<rect id="XMLID_196_" x="187.92" y="259.41" class="st1" width="133.41" height="2.6"/>
	<rect id="XMLID_193_" x="187.92" y="266.74" class="st1" width="133.41" height="2.6"/>
	<path id="XMLID_50_" class="st3" d="M245.15,146.06h-57.79c-2.09,0-3.79-1.69-3.79-3.79V76.84c0-2.09,1.69-3.79,3.79-3.79h57.79
		c2.09,0,3.79,1.69,3.79,3.79v65.43C248.94,144.37,247.24,146.06,245.15,146.06z"/>
	<path id="XMLID_59_" d="M239.56,116.28c-1.13-0.81-14.57-5.67-14.57-5.67l-8.73,3.41l-8.73-3.41c0,0-13.44,4.86-14.57,5.67
		c-1.13,0.81,2.09,29.79,2.09,29.79h20.93h0.57h20.93C237.47,146.06,240.69,117.08,239.56,116.28z"/>
	<path id="XMLID_55_" class="st4" d="M222,100.71l-5.47,0.64l-5.47-0.64c0,0,0.35,6.65-1.32,10.04l6.79,3.38l6.79-3.38
		C221.66,107.37,222,100.71,222,100.71z"/>
	<path id="XMLID_53_" class="st5" d="M228.43,91.97c-0.26-2.48-2.07-2.08-2.66-1.89v-4.53h-9.08h-9.08v4.53
		c-0.59-0.2-2.4-0.59-2.66,1.89c-0.28,2.71,1.72,3.92,2.66,4.34v0.08c0,5.17,4.04,11.03,9.08,11.03c4.84,0,9.08-5.86,9.08-11.03
		v-0.08C226.71,95.89,228.71,94.68,228.43,91.97z"/>
	<path id="XMLID_57_" d="M230.82,83.2c-0.84,0.04-2.36-0.29-2.36-0.29c1.17-0.29,1.52-2.4,1.52-2.4
		c-2.44,0.67-13.29-3.07-18.42-2.14c-5.13,0.93-4.67,3.41-4.67,3.41c-5.21,1.98-1.59,8.96-1.59,8.96c0.73-1.21,2.3-0.65,2.3-0.65
		l0.8,3.76c0,0,1.44-2.46,0.87-4.85c0,0,0,0,0-0.01c1.54-1.48,1.7-3.43,1.7-3.43l12.78,0.04c-0.15,1.18,0.4,2.35,0.97,3.19
		c-0.11,0.15-0.2,0.38-0.28,0.7c-0.57,2.38,0.87,4.85,0.87,4.85l1.18-4.39c0.94-0.04,1.38,0.49,1.38,0.49
		c1.71-1.54,1.48-4.89,1.48-4.89C230.77,85.05,230.82,83.2,230.82,83.2z"/>
	<polygon id="XMLID_51_" class="st6" points="210.82,106.78 216.54,114.13 212.43,117.97 207.52,110.61 	"/>
	<polygon id="XMLID_54_" class="st6" points="222.26,106.78 216.54,114.13 220.64,117.97 225.55,110.61 	"/>
	<path id="XMLID_56_" class="st6" d="M192.95,116.28c0,0-4.99,3.24-4.99,12.06l-1.29,17.73h8.37L192.95,116.28z"/>
	<path id="XMLID_58_" class="st6" d="M239.32,116.28c0,0,4.99,3.24,4.99,12.06l1.29,17.73h-8.37L239.32,116.28z"/>
	<polygon id="XMLID_52_" class="st3" points="262,97.4 263.95,101.35 268.31,101.99 265.16,105.06 265.9,109.41 262,107.36 
		258.1,109.41 258.84,105.06 255.69,101.99 260.05,101.35 	"/>
	<polygon id="XMLID_61_" class="st3" points="276.83,97.4 278.78,101.35 283.15,101.99 279.99,105.06 280.73,109.41 276.83,107.36 
		272.93,109.41 273.68,105.06 270.52,101.99 274.88,101.35 	"/>
	<polygon id="XMLID_62_" class="st3" points="291.67,97.4 293.62,101.35 297.98,101.99 294.82,105.06 295.57,109.41 291.67,107.36 
		287.77,109.41 288.51,105.06 285.35,101.99 289.72,101.35 	"/>
	<polygon id="XMLID_63_" class="st3" points="306.5,97.4 308.45,101.35 312.81,101.99 309.66,105.06 310.4,109.41 306.5,107.36 
		302.6,109.41 303.34,105.06 300.19,101.99 304.55,101.35 	"/>
	<polygon id="XMLID_64_" class="st3" points="321.33,97.4 323.28,101.35 327.65,101.99 324.49,105.06 325.23,109.41 321.33,107.36 
		317.43,109.41 318.18,105.06 315.02,101.99 319.38,101.35 	"/>
	<g id="XMLID_60_">
		<path id="XMLID_144_" class="st7" d="M322.68,147.47h-61.62c-2.24,0-4.07-1.82-4.07-4.07v-26.97c0-2.24,1.82-4.07,4.07-4.07h61.62
			c2.24,0,4.07,1.82,4.07,4.07v26.97C326.75,145.65,324.93,147.47,322.68,147.47z M261.07,114.37c-1.14,0-2.07,0.93-2.07,2.07v26.97
			c0,1.14,0.93,2.07,2.07,2.07h61.62c1.14,0,2.07-0.93,2.07-2.07v-26.97c0-1.14-0.93-2.07-2.07-2.07H261.07z"/>
	</g>
	<path id="XMLID_65_" class="st7" d="M318.8,122.36h-54.13c-0.43,0-0.78-0.35-0.78-0.78v-0.28c0-0.43,0.35-0.78,0.78-0.78h54.13
		c0.43,0,0.78,0.35,0.78,0.78v0.28C319.58,122.01,319.23,122.36,318.8,122.36z"/>
	<path id="XMLID_67_" class="st7" d="M318.8,127.74h-54.13c-0.43,0-0.78-0.35-0.78-0.78v-0.28c0-0.43,0.35-0.78,0.78-0.78h54.13
		c0.43,0,0.78,0.35,0.78,0.78v0.28C319.58,127.39,319.23,127.74,318.8,127.74z"/>
	<path id="XMLID_69_" class="st7" d="M318.8,133.12h-54.13c-0.43,0-0.78-0.35-0.78-0.78v-0.28c0-0.43,0.35-0.78,0.78-0.78h54.13
		c0.43,0,0.78,0.35,0.78,0.78v0.28C319.58,132.77,319.23,133.12,318.8,133.12z"/>
	<path id="XMLID_68_" class="st7" d="M318.8,138.49h-54.13c-0.43,0-0.78-0.35-0.78-0.78v-0.28c0-0.43,0.35-0.78,0.78-0.78h54.13
		c0.43,0,0.78,0.35,0.78,0.78v0.28C319.58,138.15,319.23,138.49,318.8,138.49z"/>
	
		<ellipse id="XMLID_72_" transform="matrix(0.2286 -0.9735 0.9735 0.2286 144.4165 347.7831)" class="st3" cx="291.67" cy="82.76" rx="11.58" ry="11.58"/>
	<polygon id="XMLID_75_" class="st8" points="279.53,82.55 283.39,78.95 288.32,83.72 299.65,70.94 303.8,75.15 289.09,92 	"/>
	<rect id="XMLID_128_" x="187.92" y="177.82" class="st1" width="133.41" height="2.6"/>
	<rect id="XMLID_134_" x="187.92" y="185.15" class="st1" width="133.41" height="2.6"/>
	<rect id="XMLID_145_" x="187.92" y="192.48" class="st1" width="133.41" height="2.6"/>
	<rect id="XMLID_184_" x="187.92" y="199.82" class="st1" width="133.41" height="2.6"/>
	<path id="XMLID_166_" class="st2" d="M165.32,63.93h173.15v-10c0-7.17-5.81-12.99-12.99-12.99H178.31
		c-7.17,0-12.99,5.81-12.99,12.99V63.93z"/>
	<path id="XMLID_00000022546126602931064750000009094081562902356881_" class="st9" d="M125.3,255.94H43.12
		c-9.02,0-16.34-7.32-16.34-16.34V109.67c0-9.02,7.32-16.34,16.34-16.34h82.18c9.02,0,16.34,7.32,16.34,16.34V239.6
		C141.64,248.62,134.32,255.94,125.3,255.94z"/>
	<path id="XMLID_00000093889329210750572190000007433477530330012550_" class="st10" d="M135.19,172.53H36.09v-0.41
		c0-4.64,3.76-8.41,8.41-8.41h82.29c4.64,0,8.41,3.76,8.41,8.41V172.53z"/>
	<path id="XMLID_00000044160557956812041480000018406012032144031125_" class="st11" d="M126.27,202.65H45.01
		c-4.93,0-8.92-4-8.92-8.92v-21.19h99.11v21.19C135.19,198.65,131.2,202.65,126.27,202.65z"/>
	<path id="XMLID_00000091009270224148568350000007726012082083468478_" class="st10" d="M135.11,216.53H36v-0.41
		c0-4.64,3.76-8.41,8.41-8.41h82.29c4.64,0,8.41,3.76,8.41,8.41V216.53z"/>
	<path id="XMLID_00000057843047052330026780000003211639075234053505_" class="st11" d="M126.18,246.65H44.92
		c-4.93,0-8.92-4-8.92-8.92v-21.19h99.11v21.19C135.11,242.65,131.11,246.65,126.18,246.65z"/>
	
		<rect id="XMLID_00000158020391994061533560000000426586086021305778_" x="41.73" y="221.21" class="st9" width="88.26" height="1.72"/>
	
		<rect id="XMLID_00000054231765592835044510000011488125161950162873_" x="41.73" y="226.06" class="st9" width="88.26" height="1.72"/>
	
		<rect id="XMLID_00000166639671758862094560000014828968825269493899_" x="41.73" y="230.91" class="st9" width="88.26" height="1.72"/>
	
		<rect id="XMLID_00000025406781546099320270000006999995155383865010_" x="41.73" y="235.76" class="st1" width="88.26" height="1.72"/>
	<path id="XMLID_00000178183422616981862320000007773494843536096411_" class="st11" d="M78.32,155.93H42.64
		c-2.09,0-3.79-1.69-3.79-3.79v-40.73c0-2.09,1.69-3.79,3.79-3.79h35.67c2.09,0,3.79,1.69,3.79,3.79v40.73
		C82.1,154.23,80.41,155.93,78.32,155.93z"/>
	<path id="XMLID_00000131350678929593511600000004392810278581710240_" class="st12" d="M75.9,136.22
		c-0.75-0.53-9.64-3.75-9.64-3.75l-5.78,2.25l-5.78-2.25c0,0-8.89,3.22-9.64,3.75c-0.75,0.53,1.38,19.71,1.38,19.71h13.85h0.38
		h13.85C74.51,155.93,76.64,136.75,75.9,136.22z"/>
	<path id="XMLID_00000049204887521560386800000010244063968756910471_" class="st13" d="M64.28,125.92l-3.62,0.43l-3.62-0.43
		c0,0,0.23,4.4-0.88,6.64l4.49,2.24l4.49-2.24C64.05,130.33,64.28,125.92,64.28,125.92z"/>
	<path id="XMLID_00000035531840578966373390000014600352592769977262_" class="st14" d="M68.53,120.14
		c-0.17-1.64-1.37-1.38-1.76-1.25v-2.99h-6.01h-6.01v2.99c-0.39-0.13-1.59-0.39-1.76,1.25c-0.19,1.79,1.14,2.6,1.76,2.87v0.05
		c0,3.42,2.67,7.3,6.01,7.3c3.2,0,6.01-3.88,6.01-7.3v-0.05C67.39,122.74,68.72,121.93,68.53,120.14z"/>
	<path id="XMLID_00000013163576208975295760000014311609788371022517_" class="st12" d="M70.11,114.34
		c-0.56,0.03-1.56-0.19-1.56-0.19c0.78-0.19,1-1.59,1-1.59c-1.61,0.45-8.79-2.03-12.18-1.42c-3.39,0.61-3.09,2.25-3.09,2.25
		c-3.45,1.31-1.05,5.93-1.05,5.93c0.48-0.8,1.52-0.43,1.52-0.43l0.53,2.49c0,0,0.95-1.63,0.57-3.21c0,0,0,0,0,0
		c1.02-0.98,1.12-2.27,1.12-2.27l8.46,0.03c-0.1,0.78,0.27,1.55,0.64,2.11c-0.07,0.1-0.13,0.25-0.19,0.46
		c-0.38,1.58,0.57,3.21,0.57,3.21l0.78-2.9c0.62-0.03,0.91,0.32,0.91,0.32c1.13-1.02,0.98-3.24,0.98-3.24
		C70.08,115.56,70.11,114.34,70.11,114.34z"/>
	<polygon id="XMLID_00000011744720081149136890000006535899123494710182_" class="st15" points="56.88,129.94 60.67,134.8 
		57.95,137.34 54.7,132.47 	"/>
	<polygon id="XMLID_00000048500490304810242440000009100653792899070109_" class="st15" points="64.45,129.94 60.67,134.8 
		63.38,137.34 66.63,132.47 	"/>
	<path id="XMLID_00000154386553772895168330000018230162138052168617_" class="st15" d="M45.06,136.22c0,0-3.3,2.15-3.3,7.98
		l-0.85,11.73h5.54L45.06,136.22z"/>
	<path id="XMLID_00000096045404431924779940000017121719698656642179_" class="st15" d="M75.74,136.22c0,0,3.3,2.15,3.3,7.98
		l0.85,11.73h-5.54L75.74,136.22z"/>
	<polygon id="XMLID_00000104676612848815227250000014006283610568854157_" class="st11" points="90.74,123.73 92.03,126.35 
		94.92,126.77 92.83,128.8 93.32,131.67 90.74,130.32 88.16,131.67 88.66,128.8 86.57,126.77 89.45,126.35 	"/>
	<polygon id="XMLID_00000120558732111361300330000013519673469250876051_" class="st11" points="100.56,123.73 101.85,126.35 
		104.73,126.77 102.65,128.8 103.14,131.67 100.56,130.32 97.98,131.67 98.47,128.8 96.38,126.77 99.27,126.35 	"/>
	<g id="XMLID_00000149340612998898267390000006672884579191025055_" class="st12">
		<path id="XMLID_00000178207160881741670340000008714303997973167797_" class="st7" d="M130.89,156.86H90.13
			c-1.48,0-2.69-1.21-2.69-2.69v-17.84c0-1.48,1.21-2.69,2.69-2.69h40.77c1.48,0,2.69,1.21,2.69,2.69v17.84
			C133.58,155.65,132.37,156.86,130.89,156.86z M90.13,134.96c-0.75,0-1.37,0.61-1.37,1.37v17.84c0,0.75,0.61,1.37,1.37,1.37h40.77
			c0.75,0,1.37-0.61,1.37-1.37v-17.84c0-0.75-0.61-1.37-1.37-1.37H90.13z"/>
	</g>
	<path id="XMLID_00000017514940442128003750000000189688783593278618_" class="st16" d="M128.23,140.25H92.61
		c-0.34,0-0.61-0.27-0.61-0.61l0,0c0-0.34,0.27-0.61,0.61-0.61h35.63c0.34,0,0.61,0.27,0.61,0.61l0,0
		C128.84,139.97,128.57,140.25,128.23,140.25z"/>
	<path id="XMLID_00000157284448294320674800000015152180605438208156_" class="st16" d="M128.23,143.8H92.61
		c-0.34,0-0.61-0.27-0.61-0.61l0,0c0-0.34,0.27-0.61,0.61-0.61h35.63c0.34,0,0.61,0.27,0.61,0.61l0,0
		C128.84,143.53,128.57,143.8,128.23,143.8z"/>
	<path id="XMLID_00000180337231760938153970000008649714539309420471_" class="st16" d="M128.23,147.36H92.61
		c-0.34,0-0.61-0.27-0.61-0.61l0,0c0-0.34,0.27-0.61,0.61-0.61h35.63c0.34,0,0.61,0.27,0.61,0.61v0
		C128.84,147.09,128.57,147.36,128.23,147.36z"/>
	<path id="XMLID_00000014627610267214068150000009354067224228181178_" class="st16" d="M128.23,150.92H92.61
		c-0.34,0-0.61-0.27-0.61-0.61l0,0c0-0.34,0.27-0.61,0.61-0.61h35.63c0.34,0,0.61,0.27,0.61,0.61l0,0
		C128.84,150.65,128.57,150.92,128.23,150.92z"/>
	
		<ellipse id="XMLID_00000036239014599403789410000001824268435312672693_" transform="matrix(0.2286 -0.9735 0.9735 0.2286 -25.8887 195.4218)" class="st11" cx="110.37" cy="114.05" rx="7.66" ry="7.66"/>
	
		<rect id="XMLID_00000158731130247100565050000010722313262660708764_" x="41.73" y="176.93" class="st9" width="88.26" height="1.72"/>
	
		<rect id="XMLID_00000106135440620498535040000012971615246555074443_" x="41.73" y="181.79" class="st9" width="88.26" height="1.72"/>
	
		<rect id="XMLID_00000109019955327877871460000002568976925784969628_" x="41.73" y="186.64" class="st9" width="88.26" height="1.72"/>
	
		<rect id="XMLID_00000050662820950771290810000000899695055323917195_" x="41.73" y="191.49" class="st9" width="88.26" height="1.72"/>
	<path id="XMLID_00000179610832282389686150000000799186821919130765_" class="st10" d="M26.78,101.59h114.55v-6.61
		c0-4.74-3.85-8.59-8.59-8.59H35.37c-4.74,0-8.59,3.85-8.59,8.59V101.59z"/>
	<polygon id="XMLID_102_" class="st17" points="116.25,110.59 113.19,107.83 110.37,110.95 107.56,107.83 104.49,110.59 
		107.57,114.05 104.49,117.47 107.65,120.26 110.37,117.2 113.09,120.26 116.25,117.47 113.17,114.05 	"/>
	<path id="XMLID_00000163070099169079290660000013808615691600250776_" class="st9" d="M462.93,257.27h-82.18
		c-9.02,0-16.34-7.32-16.34-16.34V111.01c0-9.02,7.32-16.34,16.34-16.34h82.18c9.02,0,16.34,7.32,16.34,16.34v129.92
		C479.27,249.96,471.95,257.27,462.93,257.27z"/>
	<path id="XMLID_00000175285476223350228100000009165934742525183899_" class="st10" d="M472.82,173.87h-99.11v-0.41
		c0-4.64,3.76-8.41,8.41-8.41h82.29c4.64,0,8.41,3.76,8.41,8.41V173.87z"/>
	<path id="XMLID_00000093881954627425882880000006188022018338553997_" class="st11" d="M463.9,203.99h-81.26
		c-4.93,0-8.92-4-8.92-8.92v-21.19h99.11v21.19C472.82,199.99,468.83,203.99,463.9,203.99z"/>
	<path id="XMLID_00000046313696433356297030000002941743788651897989_" class="st10" d="M472.73,217.87h-99.11v-0.41
		c0-4.64,3.76-8.41,8.41-8.41h82.29c4.64,0,8.41,3.76,8.41,8.41V217.87z"/>
	<path id="XMLID_00000162353867270003111720000015953035157733103752_" class="st11" d="M463.81,247.99h-81.26
		c-4.93,0-8.92-4-8.92-8.92v-21.19h99.11v21.19C472.73,243.99,468.74,247.99,463.81,247.99z"/>
	
		<rect id="XMLID_00000150068095059284950000000009184526273526545069_" x="379.36" y="222.55" class="st9" width="88.26" height="1.72"/>
	
		<rect id="XMLID_00000170262060145761720950000000162797652062538650_" x="379.36" y="227.4" class="st9" width="88.26" height="1.72"/>
	
		<rect id="XMLID_00000033358948046242035630000002643634892588169134_" x="379.36" y="232.25" class="st9" width="88.26" height="1.72"/>
	<path id="XMLID_121_" class="st18" d="M416.56,162.81h-44.4c-1.61,0-2.91-1.3-2.91-2.91v-50.27c0-1.61,1.3-2.91,2.91-2.91h44.4
		c1.61,0,2.91,1.3,2.91,2.91v50.27C419.47,161.51,418.17,162.81,416.56,162.81z"/>
	<path id="XMLID_167_" class="st19" d="M403.28,117.87c-1.62-5.01-8.03-5.53-8.8-5.58l0,0c0,0-0.03,0-0.04,0c-0.01,0-0.04,0-0.04,0
		l0,0c-0.77,0.05-7.19,0.57-8.8,5.58c-1.72,5.33-1.12,24.45-1.12,24.45s7.77-0.39,7.7-9.29c-0.05-7.36,1.24-12.33,2.26-13.83
		c1.01,1.51,2.2,6.65,2.15,14.01c-0.06,8.91,7.82,9.12,7.82,9.12S405,123.2,403.28,117.87z"/>
	<path id="XMLID_120_" class="st19" d="M410.26,139.12c-0.87-0.62-9.4-3.54-9.4-3.54l-6.71,2.62l-6.71-2.62c0,0-7.96,2.69-8.83,3.31
		c-0.87,0.62,3.36,23.93,3.36,23.93h11.96h0.44h13.27C407.63,162.81,411.12,139.74,410.26,139.12z"/>
	<path id="XMLID_119_" class="st20" d="M396.74,130.07l-2.4-0.65l-2.45,0.87c0,0-0.03,3.38-2.31,5.71l4.75,2.37l4.75-2.37
		C397.08,133.89,396.74,130.07,396.74,130.07z"/>
	<path id="XMLID_118_" class="st21" d="M402.66,122.85c-0.18-1.74-1.45-1.46-1.86-1.32v-3.17h-6.36h-6.36v3.17
		c-0.41-0.14-1.68-0.42-1.86,1.32c-0.2,1.89,1.21,2.75,1.86,3.04v0.06c0,3.62,4.01,7.72,6.36,7.72c2.73,0,6.36-4.1,6.36-7.72v-0.06
		C401.46,125.6,402.86,124.75,402.66,122.85z"/>
	<path id="XMLID_114_" class="st22" d="M378.74,138.92c0,0-3.83,2.49-3.83,9.27l-0.99,14.63h8.05L378.74,138.92z"/>
	<path id="XMLID_113_" class="st22" d="M410.12,138.92c0,0,3.83,2.49,3.83,9.27l0.99,14.63h-7.31L410.12,138.92z"/>
	<path id="XMLID_76_" class="st22" d="M390.36,133.02l-2.92,2.55c0,0-1.91,5.21,1.23,6.54c3.14,1.33,5.7-3.84,5.7-3.84
		L390.36,133.02z"/>
	<path id="XMLID_115_" class="st22" d="M398.3,132.82l2.95,2.75c0,0,1.91,5.21-1.23,6.54c-3.14,1.33-5.7-3.84-5.7-3.84L398.3,132.82
		z"/>
	<path id="XMLID_116_" class="st19" d="M399.72,118.91c0,0-1.53,1.45-5.11,1.95c-3.58,0.5-5.72,0.41-5.72,0.41s0.21,3.94-1.37,5.4
		c-1.58,1.46-2.69-4.62-1.3-7.29c1.39-2.67,11.39-3.83,11.64-3.83s1.62,0.42,1.62,0.42s2.67,1.01,3.42,5.26s-1.67,6.09-1.67,6.09
		S399.38,123.16,399.72,118.91z"/>
	<path id="XMLID_289_" class="st19" d="M399.33,123.21h-3.25c-0.55,0-1,0.45-1,1v0.15h-0.93v-0.04c0-0.55-0.45-1-1-1h-3.25
		c-0.55,0-1,0.45-1,1v0.77c0,0.55,0.45,1,1,1h3.25c0.55,0,1-0.45,1-1v-0.18h0.93v0.07c0,0.55,0.45,1,1,1h3.25c0.55,0,1-0.45,1-1
		v-0.77C400.33,123.66,399.88,123.21,399.33,123.21z M393.64,125.1c0,0.28-0.23,0.5-0.5,0.5h-3.25c-0.28,0-0.5-0.23-0.5-0.5v-0.77
		c0-0.28,0.23-0.5,0.5-0.5h3.25c0.28,0,0.5,0.23,0.5,0.5V125.1z M399.83,124.99c0,0.28-0.23,0.5-0.5,0.5h-3.25
		c-0.28,0-0.5-0.23-0.5-0.5v-0.77c0-0.28,0.23-0.5,0.5-0.5h3.25c0.28,0,0.5,0.23,0.5,0.5V124.99z"/>
	
		<rect id="XMLID_00000155109624732928813990000011223322133229887631_" x="379.36" y="237.1" class="st1" width="88.26" height="1.72"/>
	<polygon id="XMLID_00000009569371798819469090000000935632636279307648_" class="st11" points="428.37,123.07 429.66,125.68 
		432.55,126.1 430.46,128.14 430.95,131.01 428.37,129.66 425.79,131.01 426.28,128.14 424.2,126.1 427.08,125.68 	"/>
	<polygon id="XMLID_00000113324487578958389530000007089333241038433440_" class="st11" points="438.19,123.07 439.48,125.68 
		442.36,126.1 440.27,128.14 440.77,131.01 438.19,129.66 435.6,131.01 436.1,128.14 434.01,126.1 436.9,125.68 	"/>
	<g id="XMLID_00000159457332776394642100000017552670981137860750_" class="st12">
		<path id="XMLID_00000167368035315910415880000012500940639167988127_" class="st7" d="M468.52,158.2h-40.77
			c-1.48,0-2.69-1.21-2.69-2.69v-17.84c0-1.48,1.21-2.69,2.69-2.69h40.77c1.48,0,2.69,1.21,2.69,2.69v17.84
			C471.21,156.99,470,158.2,468.52,158.2z M427.75,136.3c-0.75,0-1.37,0.61-1.37,1.37v17.84c0,0.75,0.61,1.37,1.37,1.37h40.77
			c0.75,0,1.37-0.61,1.37-1.37v-17.84c0-0.75-0.61-1.37-1.37-1.37H427.75z"/>
	</g>
	<path id="XMLID_00000086660406156721015170000014154916606220205229_" class="st16" d="M465.86,141.58h-35.63
		c-0.34,0-0.61-0.27-0.61-0.61l0,0c0-0.34,0.27-0.61,0.61-0.61h35.63c0.34,0,0.61,0.27,0.61,0.61l0,0
		C466.47,141.31,466.2,141.58,465.86,141.58z"/>
	<path id="XMLID_00000118356536750384490550000013137982738299011214_" class="st16" d="M465.86,145.14h-35.63
		c-0.34,0-0.61-0.27-0.61-0.61l0,0c0-0.34,0.27-0.61,0.61-0.61h35.63c0.34,0,0.61,0.27,0.61,0.61l0,0
		C466.47,144.87,466.2,145.14,465.86,145.14z"/>
	<path id="XMLID_00000062905354435770438910000015368202906302765460_" class="st16" d="M465.86,148.7h-35.63
		c-0.34,0-0.61-0.27-0.61-0.61l0,0c0-0.34,0.27-0.61,0.61-0.61h35.63c0.34,0,0.61,0.27,0.61,0.61v0
		C466.47,148.43,466.2,148.7,465.86,148.7z"/>
	<path id="XMLID_00000119115704985795510000000008409647049199435925_" class="st16" d="M465.86,152.26h-35.63
		c-0.34,0-0.61-0.27-0.61-0.61l0,0c0-0.34,0.27-0.61,0.61-0.61h35.63c0.34,0,0.61,0.27,0.61,0.61l0,0
		C466.47,151.99,466.2,152.26,465.86,152.26z"/>
	
		<ellipse id="XMLID_00000158724679132326187870000008860901173992748192_" transform="matrix(0.2286 -0.9735 0.9735 0.2286 235.1957 523.5985)" class="st11" cx="448" cy="113.39" rx="7.66" ry="7.66"/>
	
		<rect id="XMLID_00000059991408958366320870000010805936927028687528_" x="379.36" y="178.27" class="st9" width="88.26" height="1.72"/>
	
		<rect id="XMLID_00000115497106654888248120000012406270140981411494_" x="379.36" y="183.12" class="st9" width="88.26" height="1.72"/>
	
		<rect id="XMLID_00000150072780164658092840000006445264956231084464_" x="379.36" y="187.98" class="st9" width="88.26" height="1.72"/>
	
		<rect id="XMLID_00000004517608051332639970000005730539614881119914_" x="379.36" y="192.83" class="st9" width="88.26" height="1.72"/>
	<path id="XMLID_00000049218828004595512170000012303230274406605204_" class="st10" d="M364.41,102.93h114.55v-6.61
		c0-4.74-3.85-8.59-8.59-8.59H373c-4.74,0-8.59,3.85-8.59,8.59V102.93z"/>
	<polygon id="XMLID_00000031192164603556869730000010400866627728217240_" class="st17" points="453.88,109.92 450.81,107.17 
		448,110.29 445.18,107.17 442.12,109.92 445.2,113.39 442.12,116.81 445.28,119.6 448,116.54 450.72,119.6 453.88,116.81 
		450.8,113.39 	"/>
	<g id="XMLID_38_">
		<path id="XMLID_132_" class="st23" d="M179.4,454.99c-0.09,0-0.18-0.01-0.27-0.02c-0.81-0.15-1.35-0.93-1.21-1.74l16.72-91.8h13.8
			l18.6,91.15c0.17,0.81-0.36,1.6-1.17,1.77c-0.81,0.17-1.6-0.36-1.77-1.17L206,364.42h-8.85l-16.28,89.34
			C180.75,454.48,180.11,454.99,179.4,454.99z"/>
	</g>
	<g id="XMLID_10_">
		<path id="XMLID_131_" class="st23" d="M215.66,456.74c-0.09,0-0.18-0.01-0.27-0.02c-0.81-0.15-1.35-0.93-1.21-1.74l16.72-91.8
			h13.74l22.72,90.79c0.2,0.8-0.29,1.62-1.09,1.82c-0.81,0.2-1.62-0.29-1.82-1.09l-22.15-88.52h-8.9l-16.28,89.34
			C217,456.24,216.37,456.74,215.66,456.74z"/>
	</g>
	<path id="XMLID_340_" class="st24" d="M202.42,453.7c-3.92,0.17-9.67,0.58-12.42,0.5c-2.75-0.08-5.08-0.08-5.25-1.25
		c-0.1-0.71,0.71-4.02,1.36-6.53c0.44-1.66,0.81-2.97,0.81-2.97l5.08,1.75c0,0,1.49,1.38,4.33,2.75c0.23,0.11,0.49,0.24,0.77,0.39
		C200.27,449.98,206.01,453.54,202.42,453.7z"/>
	<path id="XMLID_27_" class="st24" d="M192.49,400.79c0,0-5.48,7.16-5.15,18.33c0.33,11.17-1.34,27.33-1.34,27.33h6.49
		c0,0,9.32-44.9,9.58-47C202.33,397.35,192.49,400.79,192.49,400.79z"/>
	<path id="XMLID_23_" class="st25" d="M206.5,384.45c0,0,3.7,0.29,5.98,6.65c2.27,6.35-12.47,56.07-12.47,56.07l-5.09-4.8
		c0,0-0.93-19.34,2.58-30.58c3.51-11.25,3.75-11.08,3.75-11.08L206.5,384.45z"/>
	<path id="XMLID_332_" class="st25" d="M211.62,454.78c-0.62,1.09-3.74,1.67-7.86,0c-4.11-1.66-11.64-3.08-11.26-4.58
		c0.28-1.11,1.73-6.28,2.46-8.87c0.25-0.91,0.42-1.5,0.42-1.5s2.87-2.5,4.62,2.74c0.8,2.4,3.43,4.94,5.98,7.07
		C209.02,452.19,211.96,454.19,211.62,454.78z"/>
	<rect id="XMLID_20_" x="198.62" y="359.62" class="st26" width="33.5" height="2.53"/>
	<rect id="XMLID_22_" x="231.46" y="359.62" class="st26" width="8.21" height="2.53"/>
	<path id="XMLID_19_" class="st24" d="M168.25,361.45c0,0,17.42,1.98,29.25,0.7l-0.22-4.19l-28.67-6.8L168.25,361.45z"/>
	<g id="XMLID_17_">
		<g id="XMLID_162_">
			<path id="XMLID_164_" class="st27" d="M124.97,456.29c-0.16,0-0.32-0.02-0.47-0.08c-0.79-0.26-1.21-1.11-0.95-1.9l16.81-50.48
				h13.48l16.98,50.48c0.26,0.79-0.16,1.64-0.94,1.9c-0.79,0.26-1.64-0.16-1.9-0.94l-16.29-48.44h-9.16l-16.13,48.43
				C126.18,455.89,125.6,456.29,124.97,456.29z"/>
		</g>
	</g>
	<rect id="XMLID_13_" x="175.23" y="362.15" class="st28" width="79.44" height="4.48"/>
	<path id="XMLID_8_" class="st25" d="M161.63,300.88c0,0,0.4-2.66,2.2-3.35c1.8-0.69,1.98,0,1.98,0s0.52,0.87,0.52,4.06
		c0,3.19,0.29,6.38,0,10.26c-0.29,3.88-1.15,6.32-2.28,6.61c-1.14,0.29-2.41,0-2.41,0l-1.74,4.7l-3.83-1.22L161.63,300.88z"/>
	<path id="XMLID_7_" class="st25" d="M174.16,322.78c0,0,3.71,10.17,5.16,20.68c1.44,10.51,5.16,17.94,7.32,18.64
		c2.17,0.7,5.29-5.11,1.12-16.77c-2.15-5.99-7.79-24.31-7.79-24.31L174.16,322.78z"/>
	<path id="XMLID_4_" class="st23" d="M138.59,336.7c1.09,7.31,6.03,28,7.03,32.5v10h25.75l-1.62-16.75l-0.76-33.37l-8.24-3.01
		l-11.62-3.75C149.12,322.33,136.88,325.2,138.59,336.7z"/>
	<path id="XMLID_5_" class="st23" d="M147.31,319.51c0,0,10.19,2.12,12.06,3.38s1.88,3.69,1.88,3.69l-15.5-3.19L147.31,319.51z"/>
	<path id="XMLID_6_" class="st23" d="M162.67,332.83c0,0-2.57,5.05,0.53,10.62c3.1,5.57,12.47,17.18,18.88,19.25
		c5.17,1.67,7.42-2.05,7.42-2.05c-0.34-3.95-4.92-4.28-20.19-31.2C167.89,326.94,163.5,330.08,162.67,332.83z"/>
	<path id="XMLID_11_" d="M145.62,376.94c0,0-5.12,13.52,2.62,23.77s53,0,53,0l5.25-16.25l-35.34-7.52H145.62z"/>
	<path id="XMLID_9_" d="M156.6,291.37c0,0-5.64-2.01-10.2,1.86c-4.56,3.87-2.24,13.53-6.26,18.71c-4.02,5.18,0.32,8.68,0.32,8.68
		s0.3,5.55,6.79,5.97c6.49,0.43,10.75-3.67,11.75-8.23c0,0,2.16-0.62,2.09-5.49c-0.08-4.87-0.12-11.44,1.24-13.3
		c0.75-1.03,3.67-1.51,3.67-1.51S165.18,289.9,156.6,291.37z"/>
	<path id="XMLID_18_" class="st25" d="M175.87,316.86c-1.65-1.38-2.39-2.11-2.98-2.43c-0.6-0.32-1.7-1.06-2.52-0.87
		c-0.61,0.14-0.82-0.33-1.31-0.54l0,0c0,0-0.62-0.7-1.76-0.33c0,0-1.9,1.84-2.16,3.31c-0.27,1.47,1.67-0.11,2.33-1.18v0
		c0.02,0.02,0.04,0.05,0.05,0.07c-0.47,0.6-0.95,1.35-1.07,2.02c-0.23,1.28,1.3,0.11,2.03-0.87c0.76,0.9,1.55,1.9,1.38,2.3
		c-0.29,0.69-1.04,1.15-2.65,0.64c-1.61-0.51-2.94-0.09-1.38,0.76c1.56,0.85,3.26,1.95,5.14,2.27c1.88,0.32,3.61,1.16,3.61,1.16
		s5.59-1.67,5.39-2.14C179.76,320.54,177.52,318.24,175.87,316.86z"/>
	<g id="XMLID_16_">
		<g id="XMLID_159_">
			<path id="XMLID_160_" class="st27" d="M162.47,406.76h-25.26l-7.93-38.17c-0.17-0.81,0.35-1.6,1.16-1.77
				c0.81-0.17,1.61,0.35,1.77,1.16l7.43,35.78h19.07l-7.97-35.14c-0.18-0.81,0.32-1.61,1.13-1.79c0.8-0.18,1.61,0.32,1.79,1.13
				L162.47,406.76z"/>
		</g>
	</g>
	<path id="XMLID_15_" class="st28" d="M121.25,366.7c4.5,7.25,15.62,0.67,20,1.58c4.38,0.92,15.03,4.67,18.52-1.33
		c3.48-6-4.37-18.32-17.52-20.25C123,343.87,116.75,359.45,121.25,366.7z"/>
	<polygon id="XMLID_12_" class="st28" points="212.75,334.95 207,359.62 239.67,359.62 244.16,336.29 242.33,334.95 	"/>
	<polygon id="XMLID_24_" class="st23" points="214.08,336.58 209.31,358.15 236.4,358.15 240.13,336.58 	"/>
	<path id="XMLID_14_" class="st24" d="M196.58,358.24c0,0,7.08-2.88,8.71-3.29s3.04,0.33,4.21,1.04c1.17,0.71,1.71,1.5,2.58,2.08
		s0.17,1.17-0.92,0.96c-1.08-0.21-1.75-1.04-1.75-1.04l-1.75-1.04c0,0-1.67,1.04-2.29,1.62s0.58,0.54,2.46,1.21
		c1.88,0.67,2.71,0.08,3.25,0.92c0.54,0.83-0.58,1.04-3.17,1.04c-2.58,0-2.58,0-2.58,0s-3.46,0.98-7.83,0.41L196.58,358.24z"/>
	<polygon id="XMLID_21_" class="st26" points="237.42,359.62 242.33,334.95 244.16,336.29 239.67,359.62 	"/>
	<path id="XMLID_41_" d="M192.74,409.96h-54.98c-1.8,0-3.26-1.46-3.26-3.26v-0.32c0-1.8,1.46-3.26,3.26-3.26h54.98
		c1.8,0,3.26,1.46,3.26,3.26v0.32C196,408.5,194.54,409.96,192.74,409.96z"/>
	<path id="XMLID_326_" class="st29" d="M211.62,454.78c-0.62,1.09-3.74,1.67-7.86,0c-4.11-1.66-11.64-3.08-11.26-4.58
		c0.28-1.11,1.73-6.28,2.46-8.87c0.42,0.1,0.99,0.42,1.66,1.24c1.5,1.82,2.5,5.08,5.19,6.26c1.76,0.77,3.31,0.85,4.17,0.81
		C209.02,452.19,211.96,454.19,211.62,454.78z"/>
	<path id="XMLID_318_" class="st29" d="M202.42,453.7c-3.92,0.17-9.67,0.58-12.42,0.5c-2.75-0.08-5.08-0.08-5.25-1.25
		c-0.1-0.71,0.71-4.02,1.36-6.53c0.45-0.09,2.27-0.33,4.72,1.11c1.88,1.1,4.7,1.08,6.27,0.81
		C200.27,449.98,206.01,453.54,202.42,453.7z"/>
	<path id="XMLID_169_" class="st23" d="M124.91,285.45H97.58c-3.73,0-6.75,3.02-6.75,6.75v11.23c0,3.73,3.02,6.75,6.75,6.75h19.28
		l8.48,9.85v-9.87c3.53-0.22,6.33-3.14,6.33-6.73v-11.23C131.67,288.48,128.64,285.45,124.91,285.45z"/>
	<circle id="XMLID_26_" class="st3" cx="101.38" cy="297.01" r="2.69"/>
	<circle id="XMLID_83_" class="st3" cx="112.19" cy="297.01" r="2.69"/>
	<circle id="XMLID_250_" class="st3" cx="121.56" cy="297.01" r="2.69"/>
	<path id="XMLID_29_" class="st23" d="M309.62,293.08c0,0-0.25-2.88,3.62-5.12s5.75-2.75,11.5-3.88s13.75-0.12,13.75-0.12
		l10.25,6.25c0,0-0.38,16.38-3.12,27.12s0.18,25.91,0.18,25.91l-33.18,2.96L309.62,293.08z"/>
	<path id="XMLID_33_" class="st30" d="M325.67,437.62c0,0-0.17,10.5,0,14c0.17,3.5,1.33,4-6.83,4c-8.17,0-14.67,1-17.33-1
		c-2.67-2,10.5-6.33,13.17-9.33c2.67-3,1.5-5.83,1.5-5.83L325.67,437.62z"/>
	<path id="XMLID_34_" class="st30" d="M342.33,439.45c0,0,0.67,5.58,0,7.29c-0.67,1.71-4.5,3.25-6.33,4.08
		c-1.83,0.83-3.17,2.12-2.17,3.12s18.09,1.33,19.21,0.67c1.12-0.67-2.38-15.17-2.38-15.17H342.33z"/>
	<path id="XMLID_35_" class="st23" d="M348.75,290.2c0,0,9.5,25.75,10.75,36.25S345,350.29,345,350.29l-4.89-12.33l7.39-11.5
		l-4.75-11L348.75,290.2z"/>
	<path id="XMLID_30_" d="M325.18,253.99c0,0,5.44-0.15,9.12,2.06c3.68,2.21,4.48,5.07,4.48,5.07s1.1,1.32,1.32,4.12
		c0.22,2.79-5.73,11.62-5.73,11.62s-6.87,0.1-9.46-1.46c-2.59-1.56-6.41-13.27-6.41-13.27s-2.13-1.59-2.65-3.94l2.08-0.37
		c0,0-2.81-1.32-2.08-3.46L325.18,253.99z"/>
	<path id="XMLID_31_" class="st25" d="M334.37,276.85c0,0-6.65-0.41-9.46-1.46c0,0,1.74-1.19,2.18-3.25
		c0.44-2.06-0.73-5.51-2.28-5.44c-1.54,0.07-1.66,2.06-1.66,2.06l-0.97-3.68c0,0-0.36-2.35-1.94-2.96c-1.59-0.61-1.74,0-1.74,0
		s-0.46,0.77-0.46,3.58c0,2.81-0.26,5.63,0,9.05c0.26,3.43,1.01,5.57,2.01,5.83c1,0.26,3.2,0.42,3.2,0.42l0.46,3.73l3.38-1.07
		c0,0,5.15-0.34,7.35-0.34L334.37,276.85z"/>
	<path id="XMLID_32_" class="st23" d="M312.11,289.45c0,0,4,6.12,1.12,15.12c-1.48,4.64-7.55,9.74-13.08,13.6
		c-5.44,3.79-12.84,2.99-17.34-1.88l-13.71-14.84l5.88-6.25l15.25,11.69C290.24,306.89,310.24,288.7,312.11,289.45z"/>
	<path id="XMLID_36_" d="M312.62,344.7v5.58c0,0,1.12,47.67,1.38,55.42s-0.52,38.88-0.52,38.88h12.5c0,0,4.52-25.62,3.2-34.38
		c-0.76-5.08-1.2-6.93-1.2-11.93s3.41-34.39,3.41-34.39s6.35,39.82,6.35,45.32s3.55,37.54,3.55,37.54h11.75
		c0,0,0.45-35.79-1.8-43.29s-3.55-53.28-5.68-61.29L312.62,344.7z"/>
	<path id="XMLID_39_" class="st25" d="M274.39,295.84c0,0-4.41-5.45-5.28-6.83s-5.8-5.69-7.05-5.81s1.06,3.5,2.56,4.62
		c0,0-2.38,0.88-2.06,2.44c0,0-1.94,0.62-1.62,2.19c0,0-1.19,1.65-0.56,3.39c0.62,1.74,1.88,2.67,2.5,2.8s1.31,0,1.31,0
		s1.46,1.44,3.1,1.5l1.82,1.31L274.39,295.84z"/>
	<path id="XMLID_28_" class="st23" d="M321.3,284.04c0,0,3.23-2.2,8.38-2.98c5.15-0.78,7.06,0,7.06,0l0.77,2.98
		C337.51,284.04,316.56,287.68,321.3,284.04z"/>
	<g id="XMLID_370_">
		<path id="XMLID_247_" class="st23" d="M353.74,243.04h27.33c3.73,0,6.75,3.02,6.75,6.75v11.23c0,3.73-3.02,6.75-6.75,6.75H361.8
			l-8.48,9.85v-9.87c-3.53-0.22-6.33-3.14-6.33-6.73v-11.23C346.99,246.06,350.01,243.04,353.74,243.04z"/>
		<circle id="XMLID_283_" class="st23" cx="357.31" cy="254.67" r="2.69"/>
		<circle id="XMLID_267_" class="st23" cx="368.12" cy="254.67" r="2.69"/>
		<circle id="XMLID_42_" class="st23" cx="377.5" cy="254.67" r="2.69"/>
	</g>
	<path id="XMLID_133_" class="st31" d="M481.7,459.05H25.8c-1.27,0-2.3-1.03-2.3-2.3v0c0-1.27,1.03-2.3,2.3-2.3H481.7
		c1.27,0,2.3,1.03,2.3,2.3v0C484,458.02,482.97,459.05,481.7,459.05z"/>
	<path id="XMLID_46_" d="M423.98,445.88h-14.7v-40.87h-3.19v40.87h-15.32c-0.88,0-1.72,0.38-2.31,1.04l-4.19,4.73
		c-0.81,0.91-0.55,2.34,0.53,2.92l0,0c0.78,0.41,1.74,0.23,2.31-0.43l4.52-5.25h14.45v4.15c0,0.88,0.71,1.6,1.6,1.6l0,0
		c0.88,0,1.6-0.71,1.6-1.6v-4.15h12.45l4.49,5.22c0.59,0.68,1.57,0.85,2.35,0.41l0,0c1.05-0.59,1.28-1.99,0.49-2.89L423.98,445.88z"
		/>
	<path id="XMLID_43_" class="st23" d="M397.62,331.3l-2.78,73.71h40.5l6.27-72.09c0.66-7.61-5.34-14.16-12.98-14.16h-17.98
		C403.64,318.76,397.89,324.3,397.62,331.3z"/>
	<path id="XMLID_44_" d="M431.98,407.88H370.7c-1.85,0-3.36-1.29-3.36-2.88l0,0c0-1.59,1.5-2.88,3.36-2.88h61.29
		c1.85,0,3.36,1.29,3.36,2.88l0,0C435.34,406.6,433.84,407.88,431.98,407.88z"/>
	<g id="XMLID_45_">
		<path id="XMLID_49_" d="M372.18,402.36h-2.79l2.64-18.68c0.16-1.11,1.1-1.93,2.22-1.93h21.41v3h-20.78L372.18,402.36z"/>
	</g>
	<g id="XMLID_47_">
		<path id="XMLID_48_" d="M413.71,402.13h-3l2.8-18.5c0.16-1.08,1.09-1.88,2.19-1.88h21.46v3h-20.78L413.71,402.13z"/>
	</g>
	<rect id="XMLID_136_" x="39.16" y="366.63" class="st23" width="73.03" height="87.81"/>
	<rect id="XMLID_137_" x="46.25" y="373.79" class="st32" width="56.5" height="22.67"/>
	<rect id="XMLID_333_" x="46.25" y="403.83" class="st32" width="56.5" height="46.45"/>
	<circle id="XMLID_315_" class="st23" cx="74.25" cy="384.95" r="3"/>
	<rect id="XMLID_341_" x="73.25" y="401.95" class="st23" width="3.25" height="50.5"/>
	<rect id="XMLID_342_" x="47.83" y="335.79" class="st33" width="9" height="30.85"/>
	<circle id="XMLID_148_" class="st34" cx="52.19" cy="342.14" r="2.19"/>
	<rect id="XMLID_150_" x="47.83" y="345.83" class="st34" width="9" height="4.75"/>
	<rect id="XMLID_367_" x="65.83" y="335.79" class="st33" width="9" height="30.85"/>
	<circle id="XMLID_351_" class="st34" cx="70.19" cy="342.14" r="2.19"/>
	<rect id="XMLID_348_" x="65.83" y="345.83" class="st34" width="9" height="4.75"/>
	<rect id="XMLID_354_" x="56.83" y="335.79" class="st34" width="9" height="30.85"/>
	<rect id="XMLID_382_" x="74.25" y="335.79" class="st34" width="9" height="30.85"/>
</g>
</svg>
