<?xml version="1.0" encoding="utf-8"?>
<!-- Generator: Adobe Illustrator 26.0.1, SVG Export Plug-In . SVG Version: 6.00 Build 0)  -->
<svg version="1.1" id="Layer_1" xmlns="http://www.w3.org/2000/svg" xmlns:xlink="http://www.w3.org/1999/xlink" x="0px" y="0px"
	 viewBox="0 0 1364 960" style="enable-background:new 0 0 1364 960;" xml:space="preserve">
<style type="text/css">
	.st0{fill:#FCBEDA;}
	.st1{fill:#E6F2FF;}
	.st2{fill:#D38CAF;}
	.st3{fill:#D4E3FF;}
	.st4{fill:#FFFFFF;}
	.st5{fill:#F2F2F2;}
	.st6{fill:#6E90FF;}
	.st7{fill:#A6BBFF;}
	.st8{fill:#E6E6E6;}
	.st9{fill:#4D4D4D;}
	.st10{fill:#F1584C;}
	.st11{fill:#F56AAE;}
	.st12{fill:#27519B;}
	.st13{fill:#CCCCCC;}
	.st14{fill:#96AFFF;}
	.st15{fill:#46BDA9;}
	.st16{fill:#1A7569;}
	.st17{fill:#FFC257;}
	.st18{fill:#FF87D7;}
	.st19{fill:#FFCFCF;}
	.st20{fill:#FF87C2;}
	.st21{fill:#30334D;}
	.st22{fill:#444444;}
	.st23{fill:#FDBEB2;}
	.st24{fill:#43435E;}
	.st25{fill:#3A374D;}
	.st26{fill:#3F4883;}
	.st27{fill:#E05398;}
	.st28{fill:#F5DFEA;}
	.st29{fill:#E6735A;}
	.st30{fill:#FFE2DC;}
	.st31{fill:#B85083;}
	.st32{fill:#BD608E;}
	.st33{fill:#9B8AEA;}
	.st34{fill:#8E7BE0;}
	.st35{fill:#8B77EA;}
	.st36{fill:#725FD1;}
	.st37{fill:#F9A6CE;}
	.st38{fill:#F092BF;}
	.st39{fill:#7D65E0;}
	.st40{fill:#9D8DE0;}
	.st41{fill:#FF75AA;}
	.st42{fill:#EB5E93;}
</style>
<path class="st0" d="M1259.1,742.3l-1083.59-0.42c-30.53,13.6-66.03,27.47-86.01,57.36c-12.68,24.96,4.49,56.84,29.33,69.75
	c50.95,26.16,74.08,4.1,151.46,26.02c51.42,14.57,138.99,31.27,209.32,12.95c112.19-29.23,324.43-24.36,501.97-8.66
	c99.74,8.82,306.38,1.06,334.78-65.26C1325.9,811.76,1307.64,751.61,1259.1,742.3z"/>
<ellipse class="st1" cx="978.58" cy="804.72" rx="96.3" ry="12.29"/>
<ellipse class="st2" cx="536.77" cy="832.46" rx="372.85" ry="34.08"/>
<path class="st0" d="M1155.52,736.09c46.26-35.45,91.16-76.34,113.89-130c22.73-53.66,17.67-122.85-25.73-161.74
	c-14.74-13.2-33.5-22.92-43.12-40.21c-18.31-32.9,4.95-72.11,15.45-108.27c21.65-74.6-16.26-156.85-75.72-206.82
	c-20.25-17.02-43.2-31.31-68.56-38.87c-65.23-19.45-137.18,9.05-187.11,55.32c-49.93,46.27-82.2,108.01-113.49,168.46
	c-19.58-28.71-51.93-48.34-86.44-52.45c-26.22-3.13-53.15,2.27-79.03-2.99c-39.83-8.09-62.14-47.99-94.62-72.43
	C203.53-85.3-127.05,345.41,147.94,570.66L1155.52,736.09z"/>
<g>
	<path class="st3" d="M1187.03,581.88c-13.41-48.72-48.09-91.18-93.14-114.05c-38.94-19.77-87.22-27.27-113.46-62.18
		c-22.05-29.33-21.5-69.15-22.17-105.84c-0.9-49.38-6.08-99.93-27.74-144.31c-21.66-44.38-62.5-81.9-111.48-88.22
		c-79.51-10.27-146.3,59.59-224.57,76.96c-71.55,15.88-154.73-11.51-214.65,30.7c-41.55,29.27-57.07,82.87-66.94,132.72
		c-9.88,49.86-18.33,103.29-52.27,141.12c-21.96,24.48-52.42,39.69-76.23,62.38c-32.24,30.73-50.88,75.24-50.15,119.77
		c0.73,44.53,20.81,88.41,54.03,118.07l978.22,0.38C1193.49,706.66,1200.45,630.59,1187.03,581.88z"/>
	<path class="st3" d="M1041.92,337.33c0,10.58-8.58,19.16-19.16,19.16s-19.17-8.58-19.17-19.16c0-10.58,8.58-19.17,19.17-19.17
		S1041.92,326.75,1041.92,337.33z"/>
	<path class="st3" d="M1156.91,442.74c0,10.58-8.58,19.17-19.17,19.17c-10.58,0-19.16-8.58-19.16-19.17
		c0-10.58,8.58-19.16,19.16-19.16C1148.33,423.58,1156.91,432.16,1156.91,442.74z"/>
	<path class="st3" d="M1080.25,399.62c0,0,2.14,0,4.79,0c2.65,0,4.79,0,4.79,0s-2.15,0-4.79,0
		C1082.39,399.62,1080.25,399.62,1080.25,399.62z"/>
	<path class="st3" d="M1065.88,399.62c0,5.29-4.29,9.58-9.58,9.58c-5.29,0-9.58-4.29-9.58-9.58c0-5.29,4.29-9.58,9.58-9.58
		C1061.59,390.04,1065.88,394.33,1065.88,399.62z"/>
	<path class="st3" d="M510.09,102.56c0,5.29-4.29,9.58-9.58,9.58c-5.29,0-9.58-4.29-9.58-9.58c0-5.29,4.29-9.58,9.58-9.58
		C505.8,92.98,510.09,97.27,510.09,102.56z"/>
	<path class="st3" d="M198.66,356.5c0,5.29-4.29,9.58-9.58,9.58c-5.29,0-9.58-4.29-9.58-9.58c0-5.29,4.29-9.58,9.58-9.58
		C194.37,346.92,198.66,351.21,198.66,356.5z"/>
	<path class="st3" d="M1147.33,337.33c0,21.17-17.16,38.33-38.33,38.33s-38.33-17.16-38.33-38.33c0-21.17,17.16-38.33,38.33-38.33
		S1147.33,316.16,1147.33,337.33z"/>
	<path class="st3" d="M593.27,125.12c-17.75,11.54-41.49,6.51-53.03-11.24c-11.54-17.75-6.51-41.49,11.24-53.03
		c17.75-11.54,41.49-6.5,53.03,11.24C616.05,89.84,611.02,113.58,593.27,125.12z"/>
	<path class="st3" d="M237.29,431.76c-13.39,8.71-30.82,5.67-38.92-6.79c-8.1-12.46-3.81-29.62,9.58-38.33
		c13.39-8.71,30.82-5.67,38.92,6.8C254.97,405.9,250.68,423.06,237.29,431.76z"/>
	<path class="st3" d="M1080.25,260.67c0,7.94-6.44,14.37-14.37,14.37s-14.37-6.43-14.37-14.37c0-7.94,6.44-14.37,14.37-14.37
		S1080.25,252.74,1080.25,260.67z"/>
	<path class="st3" d="M661.09,80.35c4.33,6.66,2.44,15.56-4.22,19.89c-6.66,4.33-15.56,2.44-19.89-4.22
		c-4.33-6.66-2.44-15.56,4.22-19.88C647.86,71.81,656.76,73.7,661.09,80.35z"/>
	<path class="st3" d="M277.79,329.5c4.33,6.65,2.44,15.56-4.22,19.88c-6.66,4.33-15.56,2.44-19.89-4.22
		c-4.33-6.65-2.44-15.56,4.22-19.88C264.56,320.96,273.46,322.84,277.79,329.5z"/>
</g>
<g>
	<rect x="259.58" y="79.18" class="st4" width="885.68" height="493.62"/>
	<path class="st3" d="M726.66,506.7h-353.5c-21.67,0-39.23-17.57-39.23-39.23V184.5c0-21.67,17.57-39.23,39.23-39.23h353.5
		c21.67,0,39.23,17.57,39.23,39.23v282.97C765.89,489.14,748.33,506.7,726.66,506.7z"/>
	<polygon class="st5" points="1145.26,79.18 1145.26,572.79 259.58,572.79 259.58,554.09 1125.58,554.09 1125.58,79.18 	"/>
	<path class="st6" d="M1156.06,97.18H248.78c-7.88,0-14.27-6.39-14.27-14.27v-2.32c0-7.88,6.39-14.27,14.27-14.27h907.28
		c7.88,0,14.27,6.39,14.27,14.27v2.32C1170.33,90.79,1163.94,97.18,1156.06,97.18z"/>
	<g>
		<path class="st6" d="M1074.88,219.72H830.1c-2.19,0-3.96-1.77-3.96-3.96v-0.64c0-2.19,1.77-3.96,3.96-3.96h244.79
			c2.19,0,3.96,1.77,3.96,3.96v0.64C1078.84,217.95,1077.07,219.72,1074.88,219.72z"/>
		<path class="st6" d="M1074.88,275H830.1c-2.19,0-3.96-1.77-3.96-3.96v-0.64c0-2.19,1.77-3.96,3.96-3.96h244.79
			c2.19,0,3.96,1.77,3.96,3.96v0.64C1078.84,273.22,1077.07,275,1074.88,275z"/>
		<path class="st6" d="M1074.88,330.27H830.1c-2.19,0-3.96-1.77-3.96-3.96v-0.64c0-2.19,1.77-3.96,3.96-3.96h244.79
			c2.19,0,3.96,1.77,3.96,3.96v0.64C1078.84,328.5,1077.07,330.27,1074.88,330.27z"/>
		<path class="st6" d="M1074.88,385.55H830.1c-2.19,0-3.96-1.77-3.96-3.96v-0.64c0-2.19,1.77-3.96,3.96-3.96h244.79
			c2.19,0,3.96,1.77,3.96,3.96v0.64C1078.84,383.77,1077.07,385.55,1074.88,385.55z"/>
		<path class="st6" d="M1074.88,440.82H830.1c-2.19,0-3.96-1.77-3.96-3.96v-0.64c0-2.19,1.77-3.96,3.96-3.96h244.79
			c2.19,0,3.96,1.77,3.96,3.96v0.64C1078.84,439.05,1077.07,440.82,1074.88,440.82z"/>
	</g>
	<g>
		<g>
			<path class="st7" d="M697.67,330.17c-2.36,83.41-70.43,149.17-152.03,146.86c-15.56-0.44-30.47-3.32-44.44-8.29
				c-59.23-21.04-100.96-79.42-99.05-146.93c1.21-42.86,19.8-81.08,48.64-107.75c27.26-25.27,63.74-40.22,103.4-39.1
				C635.79,177.26,700.03,246.76,697.67,330.17z"/>
		</g>
		<g>
			<path class="st4" d="M636.53,236.16c-0.84-2-4.41-2.58-6.82-2.49c-3.73,0.15-6.08,2.08-14.03,8.8
				c-6.23,5.26-9.79,8.28-14.15,13.38c-4.63,5.38-6.96,8.14-7.21,11.28c-0.47,6.02,4.62,7.91,4.2,13.89
				c-0.43,6.1-6.27,11.99-9.51,11.22c-3.95-0.96-1.59-11.18-8.72-16.32c-2.39-1.72-4.65-1.99-9.11-2.56
				c-5.86-0.72-18.9-1.06-20.78,4.01c-1.54,4.12,7.6,7.94,6.49,13.96c-0.91,4.96-7.68,6.35-7.14,8.99
				c0.71,3.46,12.43,1.11,15.87,7.34c1.38,2.49,1.66,6.74-0.26,9.18c-1.04,1.33-2.03,1.2-2.36,2.23c-0.93,2.9,5.08,9.53,11.22,9.51
				c4.24-0.03,5.95-3.21,9.25-2.04c2.14,0.77,3.38,2.8,4.46,4.72c1.05,1.87,2.38,4.3,2.1,6.95c-0.41,3.97-4.81,7.84-9.44,8.92
				c-7.33,1.74-10.44-4.59-18.3-2.82c-3.72,0.83-3.37,2.34-9.31,4.32c-5.71,1.91-10.35,1.99-11.54,1.97
				c-4.55,0.01-11.97,0.01-15.93-5.04c-0.51-0.66-3.17-4.04-2.1-6.95c1.32-3.55,6.61-2.14,11.67-6.56
				c0.33-0.28,6.23-5.59,4.92-11.34c-1.09-4.74-6.39-6.96-6.69-7.08c-8.7-3.51-18.25,4.74-20.72,1.71c-1-1.24-0.2-3.58,0.13-4.59
				c1.31-3.89,4.82-4.48,4.78-6.76c-0.01-0.77-0.41-1.25-1.03-1.72c-0.91-0.7-2.26-1.39-3.43-3c-3.01-4.1,0.34-7.18-1.9-13.84
				c-1.57-4.61-3.75-4.83-4.33-9.31c-0.43-3.34,0.68-3.88,0.19-6.89c-0.53-3.23-2.74-7.91-6.63-9.37c-2.06-0.77-2.67,0.08-13.83,1.9
				c-2.81,0.45-4.73,0.72-6.89-0.19c-2.11-0.89-4.83-3.05-4.46-4.72c0.74-3.29,12.74-0.49,16.26-6.43c1.16-1.97,1.45-4.92,0.19-6.89
				c-2.55-4.03-10.26-1.9-11.34-4.92c-0.78-2.2,3.13-4.06,2.49-6.81c-0.76-3.33-7.44-4.74-11.34-4.92
				c-6.26-0.29-11.54,1.97-11.54,1.97c-1.79,0.75-3.12,1.59-4.57,1.97c-0.74,0.19-1.5,0.26-2.38,0.13c0,0-2.63-0.37-4.52-2.42
				c-2.32-2.5-0.55-8.22,2.36-14.5c-28.84,26.68-47.42,64.89-48.64,107.75c-1.91,67.51,39.82,125.9,99.05,146.93
				c-1.33-1-3.42-2.49-6.62-4.64c-9.91-6.67-11.11-6.77-13.51-9.57c-4.38-5.13-2.17-6.91-6.56-11.67c-5.16-5.61-9.94-4.98-11.22-9.5
				c-0.94-3.33,1.42-4.55,0.27-9.18c-0.27-1.09-1.22-4.88-4.39-7.02c-3.11-2.08-5.52-0.69-6.82-2.49c-1.53-2.11-0.25-6.69,2.56-9.11
				c0.94-0.82,2.55-1.83,13.83-1.9c5.19-0.04,7.79-0.06,11.47,0.32c3.39,0.35,8.01,0.85,13.7,2.69c4.47,1.44,4.01,1.9,6.82,2.48
				c1.78,0.38,8.31,1.73,13.84-1.9c2.34-1.54,5.53-4.67,4.78-6.76c-0.49-1.39-2.5-1.63-6.82-2.49c-8.95-1.79-13.47-2.75-15.93-5.05
				c-2.19-2.06-2.91-4.47-4.33-9.31c-1.71-5.81-0.43-6.46-1.97-11.54c-2.02-6.63-4.86-7.69-4.26-11.6c0.62-4.07,4.24-6.43,4.78-6.76
				c5.64-3.53,12.59-0.17,13.77,0.4c3.82,1.85,3.35,3.33,8.98,7.14c2.34,1.59,4.56,2.66,9.05,4.85c3.35,1.63,6.73,3.27,11.35,4.91
				c4.84,1.72,7.27,2.6,9.11,2.56c5.68-0.12,6.61-3.95,13.97-6.5c5.95-2.06,6.47,0.07,13.83-1.9c3.54-0.96,7.02-2.79,13.97-6.5
				c7.2-3.84,10.87-5.82,14.02-8.79c2.34-2.21,1.6-2.06,7.15-8.98c7.64-9.52,9.71-10.56,11.93-15.74c0.91-2.13,1.46-4.46,2.56-9.11
				c1.38-5.91,1.6-8.82,2.75-16c2.34-14.81,3.11-13.23,2.75-16c-1.05-8.37-6.3-9.75-6.37-18.55c-0.02-2.6-0.06-6.52,2.56-9.11
				c3.05-3.02,6.67-1.21,9.31-4.33c1.9-2.24,0.4-3.55,2.56-9.11C635.63,238.89,637.17,237.72,636.53,236.16z"/>
			<path class="st4" d="M597.62,385.22c-2.59-1.67-5.76,3.69-11.8,3.41c-6.13-0.29-8.89-6.11-12.67-4.56
				c-2.16,0.89-1.72,2.95-4.36,4.16c-3.08,1.42-4.8-0.89-8.51-0.2c-4.23,0.78-7.53,4.8-8.72,8.31c-0.3,0.88-0.42,1.6-0.45,2.24
				c-0.13,3.11,0.2,4.75,0.24,6.28c0.15,4.94-5.63,6.73-4.83,9.64c0.68,2.44,5.42,3.51,8.78,3.24c3.42-0.28,5.74-2.01,8.62-4.06
				c1.69-1.2,4.06-3.59,8.72-8.31c3.64-3.69,3.68-3.83,4.36-4.16c4.56-2.21,7.39,1.7,12.77,0.3c4.19-1.09,7.61-4.73,8.72-8.31
				C599.23,390.82,599.65,386.53,597.62,385.22z"/>
			<path class="st4" d="M510.54,247.89c0.98,1.39,2.93,3.35,6.8,7.2c3.02,3.01,3.13,3.04,3.4,3.6c1.8,3.76-1.42,6.07-0.3,10.5
				c1.23,4.83,6.3,6.99,6.81,7.2c1.92,0.79,5.86,1.77,7,0.2c1.44-1.98-3.63-5.16-3.2-10.6c0.39-5,5.05-7.3,3.8-10.4
				c-0.72-1.78-2.42-1.43-3.4-3.6c-1.15-2.54,0.75-3.95,0.2-7c-0.63-3.48-3.92-6.21-6.8-7.2c-3.03-1.04-3.82,0.45-7-0.2
				c-6.26-1.27-8.32-8.06-10.31-7.3c-1.78,0.68-1.34,6.62-0.3,10.5C508.22,244.45,509.93,247.03,510.54,247.89z"/>
		</g>
		<g>
			<path class="st5" d="M602.64,184.73c21.52,27.07,34,61.86,32.94,99.48c-2.36,83.41-70.43,149.17-152.03,146.86
				c-15.56-0.44-30.47-3.32-44.43-8.29c-1.35-0.48-2.68-0.98-4.01-1.5c17.09,21.5,39.88,38.14,66.1,47.45
				c13.96,4.97,28.88,7.85,44.44,8.29c81.6,2.31,149.67-63.44,152.03-146.86C699.53,264.2,659.73,206.94,602.64,184.73z"/>
		</g>
		<g>
			<path class="st8" d="M612.82,189.15c37.95,28.33,62.06,74.65,60.6,126.33c-2.36,83.41-70.43,149.17-152.03,146.86
				c-15.56-0.44-30.47-3.32-44.43-8.29c-4.86-1.73-9.61-3.71-14.22-5.93c11.63,8.69,24.57,15.68,38.47,20.62
				c13.96,4.97,28.88,7.85,44.44,8.29c81.6,2.31,149.67-63.44,152.03-146.86C699.42,268.2,664.4,213.91,612.82,189.15z"/>
		</g>
		<path class="st9" d="M568.44,203.49c-16.28-21.53-58.49-17.05-94.27,10.01c-7.1,5.37-13.41,11.22-18.84,17.33
			c-21.95,24.66-29.5,53.39-16.45,70.65c13.8,18.26,46.23,17.82,77.58,0.78c5.64-3.05,11.24-6.65,16.7-10.78
			C568.93,264.42,584.73,225.03,568.44,203.49z"/>
	</g>
	<g>
		<g>
			<polygon class="st10" points="421.7,285.73 421.7,285.73 421.7,285.73 			"/>
		</g>
		<g>
			<g>
				<path class="st11" d="M435.82,259.93c-14.31-0.14-26.19,11.41-26.45,25.71c-0.1,5.52,1.51,10.67,4.33,14.93h0v0l0.01,0.01
					c7.81,9.28,15.1,19.94,20.5,30.05c0.56,1.04,2.06,1.03,2.59-0.03c4.9-9.87,14.21-20.98,21.09-30.73c2.47-4,3.89-8.7,3.89-13.74
					C461.77,271.75,450.18,260.07,435.82,259.93z M435.57,302.73c-3.12,0-6.04-0.86-8.54-2.36c-4.83-2.9-8.06-8.19-8.06-14.23
					c0-9.16,7.43-16.59,16.59-16.59c9.16,0,16.59,7.43,16.59,16.59c0,5.85-3.03,11-7.61,13.95
					C441.96,301.76,438.88,302.73,435.57,302.73z"/>
			</g>
			<g>
				<path class="st11" d="M429.78,341.93c0-3.38,2.74-6.12,6.12-6.12c3.38,0,6.12,2.74,6.12,6.12c0,3.38-2.74,6.12-6.12,6.12
					C432.52,348.05,429.78,345.31,429.78,341.93z"/>
			</g>
		</g>
		<g>
			<path class="st8" d="M437.32,335.97c1.48,1.12,2.44,2.89,2.44,4.89c0,3.38-2.74,6.12-6.12,6.12c-0.49,0-0.96-0.06-1.42-0.17
				c1.03,0.77,2.3,1.23,3.69,1.23c3.38,0,6.12-2.74,6.12-6.12C442.03,339.04,440.02,336.61,437.32,335.97z"/>
		</g>
		<g>
			<g>
				<path class="st8" d="M416.04,284.79c0,6.04,3.23,11.33,8.06,14.23c0.98,0.59,2.04,1.08,3.14,1.46
					c-0.07-0.04-0.14-0.08-0.21-0.12c-4.83-2.9-8.06-8.19-8.06-14.23c0-9.16,7.43-16.59,16.59-16.59c1.89,0,3.71,0.32,5.4,0.9
					c-2.45-1.43-5.3-2.25-8.33-2.25C423.47,268.2,416.04,275.63,416.04,284.79z"/>
			</g>
			<g>
				<path class="st8" d="M444.97,261.67c8.25,4.41,13.87,13.11,13.87,23.12c0,5.04-1.42,9.74-3.89,13.74
					c-0.64,1.04-1.35,2.02-2.12,2.95c-6.57,9.01-14.55,18.9-18.97,27.78c-0.06,0.12-0.14,0.23-0.22,0.33
					c0.19,0.35,0.38,0.7,0.57,1.05c0.56,1.04,2.06,1.03,2.59-0.03c4.9-9.87,14.21-20.98,21.09-30.73c2.47-4,3.89-8.7,3.89-13.74
					C461.77,274.98,454.8,265.45,444.97,261.67z"/>
			</g>
		</g>
	</g>
	<g>
		<g>
			<polygon class="st10" points="593.69,212.41 593.69,212.41 593.69,212.41 			"/>
		</g>
		<g>
			<g>
				<path class="st11" d="M607.82,186.62c-14.31-0.14-26.19,11.41-26.45,25.71c-0.1,5.52,1.51,10.67,4.33,14.93h0v0l0.01,0.01
					c7.81,9.28,15.1,19.94,20.5,30.05c0.56,1.04,2.06,1.03,2.59-0.03c4.9-9.87,14.21-20.97,21.09-30.73c2.47-4,3.89-8.7,3.89-13.74
					C633.77,198.43,622.17,186.75,607.82,186.62z M607.56,229.42c-3.12,0-6.04-0.86-8.54-2.36c-4.83-2.9-8.06-8.19-8.06-14.23
					c0-9.16,7.43-16.59,16.59-16.59c9.16,0,16.59,7.43,16.59,16.59c0,5.85-3.03,11-7.61,13.95
					C613.96,228.44,610.87,229.42,607.56,229.42z"/>
			</g>
			<g>
				<path class="st11" d="M601.77,268.61c0-3.38,2.74-6.12,6.12-6.12c3.38,0,6.12,2.74,6.12,6.12c0,3.38-2.74,6.12-6.12,6.12
					C604.52,274.74,601.77,271.99,601.77,268.61z"/>
			</g>
		</g>
		<g>
			<path class="st8" d="M609.32,262.66c1.48,1.12,2.44,2.89,2.44,4.89c0,3.38-2.74,6.12-6.12,6.12c-0.49,0-0.96-0.06-1.42-0.17
				c1.03,0.77,2.3,1.23,3.69,1.23c3.38,0,6.12-2.74,6.12-6.12C614.02,265.72,612.01,263.3,609.32,262.66z"/>
		</g>
		<g>
			<g>
				<path class="st8" d="M588.04,211.48c0,6.04,3.23,11.33,8.06,14.23c0.98,0.59,2.04,1.08,3.14,1.46
					c-0.07-0.04-0.14-0.08-0.21-0.12c-4.83-2.9-8.06-8.19-8.06-14.23c0-9.16,7.43-16.59,16.59-16.59c1.89,0,3.71,0.32,5.4,0.9
					c-2.45-1.43-5.3-2.25-8.33-2.25C595.47,194.89,588.04,202.31,588.04,211.48z"/>
			</g>
			<g>
				<path class="st8" d="M616.97,188.36c8.25,4.41,13.87,13.11,13.87,23.12c0,5.04-1.42,9.74-3.89,13.74
					c-0.64,1.04-1.35,2.02-2.12,2.95c-6.57,9.01-14.55,18.9-18.97,27.78c-0.06,0.12-0.14,0.23-0.22,0.33
					c0.19,0.35,0.38,0.7,0.57,1.05c0.56,1.04,2.06,1.03,2.59-0.03c4.9-9.87,14.21-20.97,21.09-30.73c2.47-4,3.89-8.7,3.89-13.74
					C633.77,201.66,626.79,192.14,616.97,188.36z"/>
			</g>
		</g>
	</g>
</g>
<g>
	<g>
		<g>
			<rect x="972.18" y="672.04" class="st12" width="10.74" height="101.9"/>
			<g>
				<polygon class="st12" points="920.64,768.17 1034.37,768.17 1041.95,768.17 1041.95,775.83 1041.95,786.57 1034.37,786.57 
					1034.37,775.83 920.64,775.83 920.64,786.57 913.06,786.57 913.06,775.83 913.06,768.17 				"/>
				<g>
					<path class="st6" d="M1052.52,795.44c1.19-9.41-6.73-17.33-16.14-16.15c-6.42,0.81-11.6,5.99-12.4,12.4
						c-1.19,9.42,6.73,17.33,16.15,16.14C1046.53,807.04,1051.71,801.86,1052.52,795.44z"/>
					<path d="M1044.51,793.57c0-3.46-2.81-6.27-6.27-6.27c-3.46,0-6.27,2.81-6.27,6.27c0,3.46,2.81,6.27,6.27,6.27
						C1041.7,799.84,1044.51,797.04,1044.51,793.57z"/>
				</g>
				<g>
					<path class="st6" d="M931.14,795.45c1.19-9.42-6.73-17.34-16.15-16.15c-6.41,0.81-11.59,5.99-12.4,12.4
						c-1.19,9.41,6.73,17.33,16.14,16.15C925.15,807.04,930.33,801.86,931.14,795.45z"/>
					<path d="M923.13,793.57c0-3.46-2.81-6.27-6.27-6.27c-3.46,0-6.27,2.81-6.27,6.27c0,3.46,2.81,6.27,6.27,6.27
						C920.33,799.84,923.13,797.04,923.13,793.57z"/>
				</g>
			</g>
		</g>
		<path class="st6" d="M1012.64,510.39c1.83-11.56,4.8-29.05,21.78-28.09c16.98-0.95,19.95,16.53,21.78,28.09
			c2.69,16.96-0.77,113.72-0.48,152.13v9.71c0,4.98-0.81,9.34-2.05,11.95v0.06c-0.77,1.68-1.73,2.62-2.74,2.62h-16.51h-16.51
			c-1.02,0-1.97-0.94-2.74-2.62v-0.06c-1.24-2.62-2.05-6.98-2.05-11.95v-9.71C1013.41,624.11,1009.95,527.34,1012.64,510.39z"/>
		<path class="st13" d="M1013.3,676.22c0.3,3.28,0.98,6.08,1.87,7.97v0.06c0.77,1.68,1.72,2.62,2.74,2.62h33.01
			c1.02,0,1.97-0.94,2.74-2.62v-0.06c1.24-2.62,2.05-6.98,2.05-11.95v-9.71c-0.29-38.42,3.17-135.18,0.48-152.14
			c-1.35-8.53-3.32-20.3-11.1-25.49c1.84,4.88,2.74,10.32,3.45,14.84c2.69,16.96-0.77,113.72-0.48,152.14v9.71
			c0,4.98-0.81,9.34-2.05,11.95v0.06c-0.77,1.68-1.72,2.62-2.74,2.62H1013.3z"/>
		<path class="st6" d="M911.38,664.01h132.34c7.16,0,12.97,5.81,12.97,12.97v5.55c0,7.16-5.81,12.97-12.97,12.97H911.38
			c-7.17,0-12.97-5.81-12.97-12.97v-5.55C898.41,669.82,904.22,664.01,911.38,664.01z"/>
		<path class="st13" d="M899.58,687.93c2.04,4.47,6.56,7.58,11.8,7.58h132.34c7.16,0,12.97-5.8,12.97-12.97v-5.55
			c0-5.46-3.38-10.14-8.16-12.05c0.76,1.64,1.17,3.47,1.17,5.39v5.55c0,7.16-5.81,12.97-12.97,12.97H904.4
			C902.69,688.86,901.07,688.53,899.58,687.93z"/>
	</g>
	<g>
		<path class="st6" d="M424.75,598.83c50.26-1.4,108.1-2.19,169.64-2.19s119.39,0.8,169.64,2.19h180.52v15.36
			c0,9.69-156.77,17.55-350.16,17.55s-350.16-7.86-350.16-17.55v-15.36H424.75z"/>
		<ellipse class="st14" cx="594.39" cy="598.83" rx="350.16" ry="17.55"/>
	</g>
	<g>
		
			<rect x="846.77" y="618.94" transform="matrix(-1 -1.224647e-16 1.224647e-16 -1 1713.2456 1426.9023)" class="st6" width="19.71" height="189.03"/>
		
			<rect x="322.3" y="618.94" transform="matrix(-1 -1.224647e-16 1.224647e-16 -1 664.3156 1426.9023)" class="st6" width="19.71" height="189.03"/>
	</g>
	<path class="st8" d="M799.47,601.23c0,1.97,23.24,3.57,51.92,3.57c28.67,0,51.92-1.6,51.92-3.57c0-1.97-23.24-3.57-51.92-3.57
		C822.71,597.66,799.47,599.26,799.47,601.23z"/>
	<g>
		<g>
			<polygon class="st12" points="808.87,522.42 821.41,591.71 892.33,591.71 892.33,601.25 823,601.25 816.62,601.25 811.95,601.25 
				798.8,522.42 			"/>
		</g>
	</g>
	<g>
		<path class="st8" d="M749.88,601.08c0,1.32,6.53,2.39,14.59,2.39c8.06,0,14.59-1.07,14.59-2.39c0-1.32-6.53-2.39-14.59-2.39
			C756.41,598.68,749.88,599.75,749.88,601.08z"/>
		<g>
			<g>
				<path class="st15" d="M772.11,544.82c0.95-1.27,2.66-1.73,4.24-1.79c1.82-0.06,3.71,0.32,5.2,1.37
					c0.49,0.34,0.93,0.76,1.35,1.18c1.06,1.07,1.99,2.26,2.79,3.54c-0.99-0.76-2.25-1.15-3.49-1.09c-1.79,0.09-3.43,1.06-5.22,1.17
					c-1.22,0.08-2.48-0.28-3.4-1.07c-0.93-0.79-1.48-2.03-1.34-3.25L772.11,544.82z"/>
				<g>
					<path class="st16" d="M776.7,529.01c2.19,5.1-0.03,10.44-3.05,14.67c-1.66,2.33-3.52,4.46-5.46,6.56
						c-1.8,1.96-3.04,4.15-3.69,6.74c-0.74,2.93-0.8,5.98-0.75,8.99c0.01,0.83-1.28,0.83-1.3,0c-0.08-4.81,0.15-9.99,2.84-14.16
						c1.46-2.27,3.57-4.1,5.27-6.2c1.72-2.13,3.39-4.38,4.52-6.88c1.26-2.81,1.75-6.15,0.5-9.06
						C775.25,528.91,776.37,528.25,776.7,529.01L776.7,529.01z"/>
				</g>
				<g>
					<path class="st17" d="M769.04,523.12c0.07,0.05,0.13,0.1,0.2,0.15c0.15,0.09,0.32,0.13,0.49,0.13h0.02
						c0.13,0,0.26-0.02,0.37-0.08c0.02-0.01,0.04-0.02,0.06-0.03c1.25,1.13,2.22,2.53,2.84,4.1c0.07-0.01,0.14,0,0.2,0.04
						c0.01,0,0.03-0.01,0.04-0.01c0.15-0.02,0.31-0.01,0.47,0c-0.64-1.76-1.71-3.35-3.1-4.6c0-0.01,0.01-0.01,0.01-0.02
						c0.06-0.12,0.09-0.24,0.08-0.37c-0.01-0.09-0.02-0.17-0.03-0.26c-0.05-0.16-0.13-0.31-0.25-0.43l-0.2-0.15
						c-0.15-0.09-0.32-0.13-0.49-0.13h-0.02c-0.13-0.01-0.26,0.02-0.37,0.08c-0.12,0.04-0.23,0.11-0.31,0.2
						c-0.1,0.09-0.16,0.19-0.2,0.31c-0.06,0.12-0.09,0.24-0.08,0.37c0.01,0.09,0.02,0.17,0.03,0.26
						C768.84,522.85,768.92,523,769.04,523.12z"/>
					<path class="st17" d="M771.56,528.55c-0.08-0.12-0.04-0.29,0.05-0.39c0.07-0.07,0.15-0.12,0.23-0.18
						c-0.87-0.64-1.87-1.05-2.94-1.21c-0.04-0.08-0.09-0.15-0.15-0.21l-0.2-0.15c-0.15-0.09-0.32-0.13-0.49-0.13
						c-0.09,0.01-0.17,0.02-0.26,0.03c-0.16,0.05-0.31,0.13-0.43,0.25l-0.02,0.02c-0.09,0.09-0.16,0.19-0.2,0.31
						c-0.06,0.12-0.09,0.24-0.08,0.37c0,0.13,0.02,0.26,0.08,0.37c0.04,0.12,0.11,0.22,0.2,0.31l0.2,0.15
						c0.15,0.09,0.32,0.13,0.49,0.13c0.09-0.01,0.17-0.02,0.26-0.03c0.16-0.05,0.31-0.13,0.43-0.25c0.01-0.01,0.01-0.01,0.02-0.02
						c0.09-0.09,0.16-0.19,0.2-0.31c0.03-0.06,0.05-0.12,0.07-0.18c0.93,0.17,1.83,0.56,2.57,1.14c0,0,0,0,0,0
						C771.58,528.57,771.57,528.56,771.56,528.55z"/>
					<path class="st17" d="M768.85,525.01c1.32,0.6,2.47,1.54,3.34,2.69c0.03-0.02,0.06-0.05,0.09-0.07c0,0,0,0,0,0
						c0.09-0.08,0.19-0.14,0.3-0.18c0.03-0.05,0.08-0.09,0.13-0.12c-0.98-1.31-2.28-2.33-3.78-2.99c-0.08-0.41-0.38-0.76-0.92-0.76
						c-1.25,0-1.25,1.94,0,1.94C768.44,525.52,768.71,525.3,768.85,525.01z"/>
					<path class="st17" d="M774.38,527.02c-0.48-2.31-1.38-4.51-2.64-6.5c0.4-0.56,0.16-1.58-0.75-1.58c-1.25,0-1.25,1.94,0,1.94
						c0.07,0,0.14-0.01,0.2-0.02c1.23,1.94,2.1,4.07,2.56,6.32C773.84,527.6,774.46,527.42,774.38,527.02z"/>
					<path class="st17" d="M780.27,522.5c-0.05-0.16-0.13-0.31-0.25-0.43l-0.2-0.15c-0.15-0.09-0.32-0.13-0.49-0.13h-0.04
						c-0.13-0.01-0.26,0.02-0.37,0.08c-0.12,0.04-0.22,0.11-0.31,0.2c-0.09,0.09-0.16,0.19-0.2,0.31c-0.06,0.12-0.09,0.24-0.08,0.37
						c0,0,0,0.01,0,0.01c-0.84,0.83-1.36,1.95-1.45,3.14c-0.01,0.17,0.16,0.32,0.32,0.32c0.19,0,0.31-0.15,0.32-0.32
						c0.07-0.92,0.47-1.79,1.07-2.48c0.01,0.01,0.01,0.01,0.02,0.02l0.2,0.15c0.15,0.09,0.31,0.13,0.49,0.13h0.04
						c0.13,0.01,0.26-0.02,0.37-0.08c0.12-0.04,0.22-0.11,0.31-0.2c0.09-0.09,0.16-0.19,0.2-0.31c0.06-0.12,0.09-0.24,0.08-0.37
						C780.29,522.67,780.28,522.59,780.27,522.5z"/>
					<path class="st17" d="M777.98,520.11c-0.04-0.12-0.11-0.23-0.2-0.31c-0.09-0.09-0.19-0.16-0.31-0.2
						c-0.12-0.06-0.24-0.09-0.37-0.08c-0.09,0.01-0.17,0.02-0.26,0.03c-0.16,0.05-0.31,0.13-0.43,0.25l-0.15,0.2
						c-0.09,0.15-0.13,0.32-0.13,0.49v0.02c-0.01,0.13,0.02,0.26,0.08,0.37c0.04,0.12,0.11,0.22,0.2,0.31c0,0,0.01,0.01,0.01,0.01
						c-0.75,1.83-0.94,3.83-0.54,5.77c0.08,0.41,0.71,0.24,0.62-0.17c-0.36-1.78-0.18-3.65,0.5-5.33c0.03,0,0.06,0.01,0.09,0.01
						c0.09-0.01,0.17-0.02,0.26-0.03c0.16-0.05,0.31-0.13,0.43-0.25l0.15-0.2c0.09-0.15,0.13-0.32,0.13-0.49v-0.02
						C778.07,520.35,778.04,520.23,777.98,520.11z"/>
					<path class="st17" d="M774.8,520.94c0.16-0.05,0.29-0.13,0.41-0.24c0.01-0.01,0.01-0.01,0.02-0.02
						c0.09-0.09,0.16-0.19,0.2-0.31c0.06-0.12,0.09-0.24,0.08-0.37c0.01-0.13-0.02-0.26-0.08-0.37c-0.04-0.12-0.11-0.22-0.2-0.31
						c-0.07-0.05-0.13-0.1-0.2-0.15c-0.15-0.09-0.32-0.13-0.49-0.13c-0.09,0.01-0.17,0.02-0.26,0.03c-0.16,0.05-0.31,0.13-0.43,0.25
						c-0.01,0.01-0.01,0.01-0.02,0.02c-0.09,0.09-0.16,0.19-0.2,0.31c-0.06,0.12-0.09,0.24-0.08,0.37
						c-0.01,0.13,0.02,0.26,0.08,0.37c0.04,0.12,0.11,0.23,0.2,0.31c0.07,0.05,0.13,0.1,0.2,0.15c0.04,0.02,0.08,0.03,0.12,0.05
						c-0.07,2.21,0.17,4.43,0.73,6.57c0.11,0.4,0.73,0.23,0.62-0.17C774.96,525.22,774.73,523.09,774.8,520.94z"/>
					<path class="st17" d="M777.42,525.18c0.49,1.37,0.45,3.03-0.5,4.13c-0.61,0.7-1.53,1.1-2.46,1.11
						c-0.93,0.02-1.85-0.33-2.57-0.91c-0.5-0.4-0.92-0.92-1.07-1.54L777.42,525.18z"/>
				</g>
			</g>
			<g>
				<path class="st15" d="M760.33,527.12c0.95-0.96,2.35-1.27,3.66-1.55c0.77-0.16,1.54-0.32,2.31-0.49
					c-0.74,0.4-1.16,1.19-1.46,1.98c-0.42,1.13-0.66,2.33-0.7,3.54c-0.02,0.56,0.01,1.13-0.06,1.69c-0.19,1.55-0.84,3.16-2.71,2.91
					l-2.18-3.84C759.01,529.85,759.26,528.19,760.33,527.12z"/>
				<g>
					<path class="st16" d="M756.04,519.47c-1.41,6.22,4.4,11.2,6.17,16.7c0.94,2.94,1.01,6.08,1,9.15
						c-0.01,3.4-0.05,6.81-0.07,10.21c-0.03,3.85-0.06,7.71-0.08,11.56c-0.01,0.83-1.3,0.84-1.3,0c0.05-6.91,0.1-13.81,0.15-20.72
						c0.02-3.2,0.07-6.48-0.86-9.58c-0.89-2.96-2.73-5.47-4.22-8.14c-1.61-2.9-2.8-6.19-2.04-9.53
						C754.98,518.32,756.22,518.66,756.04,519.47L756.04,519.47z"/>
				</g>
				<g>
					<path class="st17" d="M762.04,512.95c-0.07,0.05-0.13,0.1-0.2,0.15c-0.15,0.09-0.32,0.13-0.49,0.13h-0.02
						c-0.13,0.01-0.26-0.02-0.37-0.08c-0.02-0.01-0.04-0.02-0.06-0.03c-1.25,1.13-2.22,2.53-2.84,4.1c-0.07-0.01-0.14,0-0.2,0.04
						c-0.01,0-0.03-0.01-0.04-0.01c-0.15-0.02-0.31-0.02-0.47,0c0.64-1.76,1.71-3.35,3.1-4.6c0-0.01-0.01-0.01-0.01-0.02
						c-0.06-0.12-0.09-0.24-0.08-0.37c0.01-0.09,0.02-0.17,0.03-0.26c0.05-0.16,0.13-0.31,0.25-0.43l0.2-0.15
						c0.15-0.09,0.32-0.13,0.49-0.13h0.02c0.13,0,0.26,0.02,0.37,0.08c0.12,0.04,0.23,0.11,0.31,0.2c0.09,0.09,0.16,0.19,0.2,0.31
						c0.06,0.12,0.09,0.24,0.08,0.37c-0.01,0.09-0.02,0.17-0.03,0.26C762.24,512.69,762.16,512.83,762.04,512.95z"/>
					<path class="st17" d="M759.52,518.25c0.08-0.12,0.04-0.29-0.05-0.39c-0.07-0.07-0.15-0.12-0.23-0.18
						c0.87-0.64,1.87-1.05,2.94-1.21c0.04-0.08,0.09-0.15,0.15-0.21l0.2-0.15c0.15-0.09,0.31-0.13,0.49-0.13
						c0.09,0.01,0.17,0.02,0.26,0.03c0.16,0.05,0.31,0.13,0.43,0.25l0.02,0.02c0.09,0.09,0.16,0.19,0.2,0.31
						c0.06,0.12,0.09,0.24,0.08,0.37c0,0.13-0.02,0.26-0.08,0.37c-0.04,0.12-0.11,0.22-0.2,0.31l-0.2,0.15
						c-0.15,0.09-0.32,0.13-0.49,0.13c-0.09-0.01-0.17-0.02-0.26-0.03c-0.16-0.05-0.31-0.13-0.43-0.25
						c-0.01-0.01-0.01-0.01-0.02-0.02c-0.09-0.09-0.16-0.19-0.2-0.31c-0.03-0.06-0.05-0.12-0.07-0.18
						c-0.93,0.17-1.83,0.56-2.57,1.14c0,0,0,0,0,0C759.5,518.27,759.51,518.26,759.52,518.25z"/>
					<path class="st17" d="M762.23,514.84c-1.32,0.6-2.47,1.54-3.34,2.69c-0.03-0.02-0.06-0.05-0.09-0.07c0,0,0,0,0,0
						c-0.09-0.08-0.19-0.14-0.3-0.18c-0.03-0.05-0.08-0.09-0.13-0.12c0.98-1.31,2.28-2.33,3.78-2.99c0.08-0.41,0.38-0.76,0.92-0.76
						c1.25,0,1.25,1.94,0,1.94C762.64,515.36,762.37,515.14,762.23,514.84z"/>
					<path class="st17" d="M756.7,516.85c0.48-2.31,1.38-4.51,2.64-6.5c-0.4-0.56-0.16-1.58,0.75-1.58c1.25,0,1.25,1.94,0,1.94
						c-0.07,0-0.14-0.01-0.2-0.02c-1.23,1.94-2.1,4.07-2.56,6.32C757.24,517.43,756.62,517.26,756.7,516.85z"/>
					<path class="st17" d="M750.94,512.33c0.05-0.16,0.13-0.31,0.25-0.43l0.2-0.15c0.15-0.09,0.32-0.13,0.49-0.13h0.04
						c0.13-0.01,0.26,0.02,0.37,0.08c0.12,0.04,0.22,0.11,0.31,0.2c0.09,0.09,0.16,0.19,0.2,0.31c0.06,0.12,0.09,0.24,0.08,0.37
						c0,0,0,0.01,0,0.01c0.84,0.83,1.36,1.95,1.45,3.14c0.01,0.17-0.16,0.32-0.32,0.32c-0.19,0-0.31-0.15-0.32-0.32
						c-0.07-0.92-0.47-1.79-1.07-2.48c-0.01,0.01-0.01,0.01-0.02,0.02l-0.2,0.15c-0.15,0.09-0.32,0.13-0.49,0.13h-0.04
						c-0.13,0-0.26-0.02-0.37-0.08c-0.12-0.04-0.22-0.11-0.31-0.2c-0.09-0.09-0.16-0.19-0.2-0.31c-0.06-0.12-0.09-0.24-0.08-0.37
						C750.92,512.51,750.93,512.42,750.94,512.33z"/>
					<path class="st17" d="M753.1,509.95c0.04-0.12,0.11-0.22,0.2-0.31c0.09-0.09,0.19-0.16,0.31-0.2c0.12-0.06,0.24-0.09,0.37-0.08
						c0.09,0.01,0.17,0.02,0.26,0.03c0.16,0.05,0.31,0.13,0.43,0.25l0.15,0.2c0.09,0.15,0.13,0.32,0.13,0.49v0.02
						c0,0.13-0.02,0.26-0.08,0.37c-0.04,0.12-0.11,0.22-0.2,0.31c0,0-0.01,0.01-0.01,0.01c0.75,1.82,0.94,3.83,0.54,5.77
						c-0.08,0.41-0.71,0.24-0.62-0.17c0.37-1.78,0.18-3.65-0.5-5.33c-0.03,0-0.06,0.01-0.09,0.01c-0.09-0.01-0.17-0.02-0.26-0.03
						c-0.16-0.05-0.31-0.13-0.43-0.25l-0.15-0.2c-0.09-0.15-0.13-0.32-0.13-0.49v-0.02C753.01,510.19,753.04,510.06,753.1,509.95z"
						/>
					<path class="st17" d="M756.28,510.78c-0.16-0.05-0.29-0.13-0.41-0.24c-0.01-0.01-0.01-0.01-0.02-0.02
						c-0.09-0.09-0.16-0.19-0.2-0.31c-0.06-0.12-0.09-0.24-0.08-0.37c-0.01-0.13,0.02-0.26,0.08-0.37c0.04-0.12,0.11-0.22,0.2-0.31
						c0.07-0.05,0.13-0.1,0.2-0.15c0.15-0.09,0.32-0.13,0.49-0.13c0.09,0.01,0.17,0.02,0.26,0.04c0.16,0.05,0.31,0.13,0.43,0.25
						c0.01,0.01,0.01,0.01,0.02,0.02c0.09,0.09,0.16,0.19,0.2,0.31c0.06,0.12,0.09,0.24,0.08,0.37c0.01,0.13-0.02,0.26-0.08,0.37
						c-0.04,0.12-0.11,0.22-0.2,0.31c-0.07,0.05-0.13,0.1-0.2,0.15c-0.04,0.02-0.08,0.03-0.12,0.05c0.07,2.21-0.17,4.43-0.73,6.57
						c-0.11,0.4-0.73,0.23-0.62-0.17C756.12,515.06,756.35,512.92,756.28,510.78z"/>
					<path class="st17" d="M753.55,515.11l6.6,2.79c-0.15,0.62-0.57,1.14-1.07,1.54c-0.73,0.58-1.64,0.93-2.57,0.91
						c-0.93-0.02-1.85-0.41-2.46-1.11C753.1,518.14,753.06,516.48,753.55,515.11z"/>
				</g>
			</g>
			<path class="st6" d="M757.99,600.44c4.69,0.93,9.2,1.2,13.36,0c0.15-0.92,0.3-1.84,0.44-2.75c2.27-14.92,2.52-29.26-0.44-42.88
				c-4.45,0.79-8.91,0.8-13.36,0c-0.02,0.07-0.03,0.15-0.04,0.22C754.79,570.31,755.38,585.41,757.99,600.44z"/>
			<path class="st13" d="M757.99,600.44c4.69,0.93,9.2,1.2,13.36,0c0.15-0.92,0.3-1.84,0.44-2.75
				c-10.13-4.2-13.09-21.43-13.84-42.66C754.79,570.31,755.38,585.41,757.99,600.44z"/>
		</g>
	</g>
	<g>
		<ellipse class="st8" cx="519.79" cy="600.73" rx="57.6" ry="4.1"/>
		<g>
			<g>
				<g>
					<rect x="483.31" y="584.77" class="st12" width="80.54" height="16.48"/>
				</g>
				<g>
					<rect x="547.24" y="584.77" class="st4" width="3" height="16.48"/>
				</g>
				<g>
					<rect x="541.41" y="584.77" class="st4" width="3" height="16.48"/>
				</g>
				<g>
					<rect x="494.05" y="584.77" class="st4" width="3" height="16.48"/>
				</g>
				<g>
					<rect x="488.22" y="584.77" class="st4" width="3" height="16.48"/>
				</g>
				<g>
					<circle class="st4" cx="557.15" cy="593.01" r="3.16"/>
				</g>
				<g>
					
						<rect x="515.65" y="576.57" transform="matrix(6.123234e-17 -1 1 6.123234e-17 -73.1965 1112.8193)" class="st4" width="8.32" height="32.88"/>
				</g>
			</g>
			<g>
				<g>
					<rect x="490.36" y="568.28" class="st18" width="80.54" height="16.48"/>
				</g>
				<g>
					<rect x="554.29" y="568.28" class="st4" width="3" height="16.48"/>
				</g>
				<g>
					<rect x="548.46" y="568.28" class="st4" width="3" height="16.48"/>
				</g>
				<g>
					<rect x="501.1" y="568.28" class="st4" width="3" height="16.48"/>
				</g>
				<g>
					<rect x="495.27" y="568.28" class="st4" width="3" height="16.48"/>
				</g>
				<g>
					<path class="st4" d="M564.2,579.69c1.75,0,3.16-1.42,3.16-3.16c0-1.75-1.42-3.16-3.16-3.16c-1.75,0-3.16,1.42-3.16,3.16
						C561.03,578.27,562.45,579.69,564.2,579.69z"/>
				</g>
				<g>
					
						<rect x="522.7" y="560.09" transform="matrix(6.123234e-17 -1 1 6.123234e-17 -49.6646 1103.3884)" class="st4" width="8.32" height="32.88"/>
				</g>
			</g>
			<g>
				<g>
					<rect x="468.69" y="551.8" class="st12" width="80.54" height="16.48"/>
				</g>
				<g>
					<rect x="532.62" y="551.8" class="st4" width="3" height="16.48"/>
				</g>
				<g>
					<rect x="526.79" y="551.8" class="st4" width="3" height="16.48"/>
				</g>
				<g>
					<rect x="479.43" y="551.8" class="st4" width="3" height="16.48"/>
				</g>
				<g>
					<rect x="473.6" y="551.8" class="st4" width="3" height="16.48"/>
				</g>
				<g>
					<path class="st4" d="M542.52,563.21c1.75,0,3.16-1.42,3.16-3.16c0-1.75-1.42-3.16-3.16-3.16s-3.16,1.42-3.16,3.16
						C539.36,561.79,540.78,563.21,542.52,563.21z"/>
				</g>
				<g>
					
						<rect x="501.03" y="543.61" transform="matrix(6.123234e-17 -1 1 6.123234e-17 -54.8565 1065.2356)" class="st4" width="8.32" height="32.88"/>
				</g>
			</g>
		</g>
	</g>
	<g>
		<g>
			<path class="st19" d="M853.89,528.67c0,0-26.27-7.81-15.85-22.72c2.86-4.09,8.5,7.15,13.31,6.19c1.14-0.23-2.77-6.24-0.4-8.12
				c2.39-1.89,6.72,10.07,11.34,12.02L853.89,528.67z"/>
		</g>
		<path class="st20" d="M987.28,500.97c-28.54-1.61-66.74,37.1-80.28,31.67c-13.54-5.42-45.73-17.24-45.73-17.24l-7.58,13.41
			c0,0,14.81,12.96,41.84,27.53c24.11,12.99,57.17,1.08,57.17,1.08C967.08,516.25,987.28,500.97,987.28,500.97z"/>
		<polygon class="st19" points="989.94,757.16 980.29,771.1 967.88,761.28 977.57,747.09 		"/>
		<path class="st21" d="M977.95,769.5c0.05,9.55-17.19,25.88-0.18,33.97l26.48-38.18c-2.57-5.53-12.09-9.84-16.36-9.83
			C986.53,762.98,982.83,767.36,977.95,769.5z"/>
		<polygon class="st19" points="955.55,792.96 938.36,793.02 938.36,776.34 955.55,776.34 		"/>
		<path class="st21" d="M996.34,620.44c0,0-20.67,27.34-56.61,58.78c0,0,27.82,54.04,44.91,71.07l-14.21,16.93
			c0,0-65.61-68.69-64.26-102.27c1.05-26.13,38.99-38.82,51.96-42.73L996.34,620.44z"/>
		<path class="st22" d="M1019.5,620.24c0,0,21.28,56.87-51.69,62.81c0,0-12.97,48.5-11.28,97.28l-19.59,0.47
			c0,0-13.1-87.95-4.99-112.81c8.11-24.86,40.92-37.49,53.9-41.41L1019.5,620.24z"/>
		<path class="st21" d="M938.37,789.51c-7.86,5.42-31.07,0.4-28.16,19.01l46.47,0.34c3.12-5.25,1.31-15.53-1.1-19.06
			C948.59,792.93,942.88,792.34,938.37,789.51z"/>
		<polygon class="st19" points="991.15,513.68 971.88,513.6 971.88,486.85 990.4,482.88 		"/>
		<path class="st5" d="M990.47,486.03c-7.19,14.63-15.13,14.38-18.58,13.36v-12.54l18.51-3.97L990.47,486.03z"/>
		<path class="st11" d="M971.86,503.63c0,0-18.64,12.35-20.91,34.66c-3.06,29.97,12.23,29.27-0.27,84.92
			c-1.66,7.39,72.03,8.94,70.94-3.57c-3.67-42.13,7.78-53.48,1.63-78.06c-8.11-32.42-21.7-36.46-32.45-40.32
			C990.8,501.26,971.2,513.31,971.86,503.63z"/>
		<g>
			<path class="st19" d="M963.09,640.99c0,0-8.75,22.06-20.99,11.42c-10.51-9.14,7.59-13.34,8.32-14.75
				c0.58-1.12-7.54,4.34-8.2-0.26c-0.36-2.51,11.5-6.23,11.5-6.23L963.09,640.99z"/>
		</g>
		<path class="st20" d="M985.25,519.66c-20.81,8.24-2.72,57.05-7.14,69.07c-6.16,16.77-24.24,42.62-24.24,42.62l8.72,10.33
			c0,0,30.35-15.93,42.66-42.51c7.79-16.82,8.87-47.71,7.53-55.81C1010.95,532.27,1003.27,512.52,985.25,519.66z"/>
		<path class="st21" d="M1004.73,455.15c5.49-15.37-6.86-14.19-8.36-16.72c-1.65-2.8-3.06-7.49-6.13-8.64
			c-7.47-2.8-13.67,3.66-16.49,1.44c-2.65-2.09-8.69-2.75-11.54-0.34c-3.44,2.67-3.43,6.97-7.6,8.69
			c-11.62,4.81,0.12,13.12-2.81,18.21c-4.11,7.12,2.31,14.46,9.23,13.51c0,0,31.4,8.89,31.4,8.89
			C1003.8,477.25,1012.58,468.36,1004.73,455.15z"/>
		<path class="st19" d="M996.08,474.91c-4.98,14.33-17.04,19.97-26.45,18.72c-5.91-0.79-12.5-13.13-13.71-29.74
			c-1.06-14.54,10.38-24.02,23.67-21.59C992.88,444.73,1000.92,460.98,996.08,474.91z"/>
		<path class="st19" d="M1001.97,469.62c-0.43,3.62-3.25,6.27-6.29,5.91c-3.05-0.36-5.17-3.59-4.74-7.21
			c0.43-3.62,3.25-6.27,6.29-5.91C1000.28,462.77,1002.4,466,1001.97,469.62z"/>
		<path class="st21" d="M952.68,464.25c2.86-0.7,3.9-4.33,6.4-5.87c2.43-1.5,6.2-1.06,7.54-3.58c0.36-0.67,0.52-1.54,1.2-1.88
			c1.09-0.54,2.14,0.74,3.23,1.28c1.61,0.81,3.51-0.08,5.2-0.72c1.69-0.64,4-0.83,4.92,0.72c0.33,0.57,0.39,1.25,0.59,1.88
			c1.04,3.28,5.27,4.02,8.71,4.19c0.47,2.06-0.76,4.85,1.02,5.99c1.51,0.96,3.38-0.56,4.34-2.06c0.97-1.5,2.12-3.36,3.91-3.27
			c0,0-4.09-20.65-23.95-21.13C951.17,439.22,952.68,464.25,952.68,464.25z"/>
	</g>
	<g>
		<g>
			<g>
				<path class="st23" d="M420.25,459.34c0,0,8.72-3.6,7.42,3.1c-1.3,6.7-10.09,8.29-10.09,8.29L420.25,459.34z"/>
				<path class="st23" d="M368.84,457.71c0,0-6.78-3.38-6.02,4.73c0.41,4.44,9.75,7.38,9.75,7.38L368.84,457.71z"/>
				<g>
					<g>
						<path class="st22" d="M446.86,813.03c3.33,3.09,7.02,11.29,6.76,22.57h-34.7c-0.25-5.48,1.41-18.17,8.49-22.92L446.86,813.03z
							"/>
						<rect x="418.9" y="835.6" class="st21" width="34.72" height="2.64"/>
					</g>
					<g>
						<path class="st22" d="M360.91,813.03c3.33,3.09,7.02,11.29,6.76,22.57h-34.7c-0.25-5.48,1.41-18.17,8.49-22.92L360.91,813.03z
							"/>
						<rect x="332.94" y="835.6" class="st21" width="34.72" height="2.64"/>
					</g>
					<g>
						<path class="st21" d="M428.71,660.82c6.03,3,40.23,15.82,47.08,41.95c5.44,20.72-26.05,111.63-26.05,111.63
							s-23.39,1.46-24.05-1.17c-0.66-2.64,8.32-80.63,4.8-92.16c-2.85-9.34-46.05-42.01-46.05-42.01L428.71,660.82z"/>
						<path class="st21" d="M358.58,660.82c-6.03,3-40.23,15.82-47.08,41.95c-5.44,20.72,26.49,112.04,26.49,112.04
							s22.95,1.06,23.61-1.58c0.66-2.64-8.31-80.63-4.8-92.16c2.85-9.34,46.05-42.01,46.05-42.01L358.58,660.82z"/>
					</g>
					<g>
						<path class="st17" d="M453.25,518.33c0,0,82.61,99.71,46.84,115.54c-34.34,15.2-65.86-65.44-65.86-65.44L453.25,518.33z"/>
						<path class="st17" d="M336.43,518.2c0,0-84.97,100.02-49.12,115.68c28.99,12.67,65.86-65.44,65.86-65.44L336.43,518.2z"/>
					</g>
				</g>
				<g>
					<path class="st23" d="M357.87,662.88h73.98c-2.86-46.31,22.88-92.75,21.4-144.55c-14.58-9.27-41.1-17.9-44.88-19.09
						c-0.32-0.09-0.46-0.14-0.46-0.14l-3.46-29.29h-18.45l-4.24,29.29c0,0-0.14,0.05-0.37,0.14c-3.55,1.11-32.33,10.47-44.97,18.96
						C336.43,575.94,362.85,617.77,357.87,662.88z"/>
					<path class="st17" d="M357.87,662.88h73.98c-2.05-46.58,26.76-94.07,21.4-144.55c-14.58-9.27-41.1-17.9-44.88-19.09
						c-8.32,5.08-17.4,5.02-26.98,0c-3.55,1.11-32.33,10.47-44.97,18.96C331.57,576.04,361.97,617.79,357.87,662.88z"/>
				</g>
				<path class="st24" d="M367.05,701.22h55.64c11.4,0,20.65-9.24,20.65-20.65l0,0c0-11.4-9.24-20.65-20.65-20.65h-55.64
					c-11.4,0-20.65,9.24-20.65,20.65l0,0C346.4,691.98,355.65,701.22,367.05,701.22z"/>
				<path class="st25" d="M403.15,429.41c0,0,20.85-5.41,20.26,18.78c-0.59,24.19-13.55,35.4-29.71,35.4
					c-26.24,0-42.56-53.49-6.18-61.75C399.82,419.05,403.15,429.41,403.15,429.41z"/>
			</g>
		</g>
	</g>
	<g>
		<g>
			<polygon class="st19" points="699.9,658.53 687.65,823.57 674.16,823.57 662.38,658.56 			"/>
			<polygon class="st19" points="618.18,658.56 630.43,823.61 643.44,823.61 655.7,658.6 			"/>
		</g>
		<path class="st22" d="M680.86,814.47c3.54,0.02,6.33,2.51,6.7,5.33c0.74,5.6,6.6,24.06-6.57,24.06c-13.81,0-7.4-18.32-7.08-23.93
			c0.14-2.51,2.24-4.83,5.31-5.34C679.77,814.51,680.32,814.47,680.86,814.47z"/>
		<path class="st22" d="M636.98,814.47c3.54,0.02,6.33,2.51,6.7,5.33c0.74,5.6,6.6,24.06-6.57,24.06c-13.81,0-7.4-18.32-7.08-23.93
			c0.14-2.51,2.24-4.83,5.31-5.34C635.89,814.51,636.44,814.47,636.98,814.47z"/>
		<path class="st21" d="M625.51,749.64c27.35,1.45,48.12-6.41,65.42-3.43c3.61,0.62,6.87-2.3,6.96-5.97l2.01-84.43l-80.35,0.59
			v87.07C619.55,746.8,622.19,749.47,625.51,749.64z"/>
		<path class="st21" d="M680.62,814.47h0.23c0,0,6.81-0.9,7.44,9.35c0,0-0.18,3.44-5.07,4.73l-0.67,15.29l-3.01,0.02l-1.67-15.33
			c-2.39-0.3-5.14-2.1-4.84-3.06C673.28,824.67,672.4,814,680.62,814.47z"/>
		<path class="st21" d="M636.75,814.47h0.23c0,0,6.81-0.9,7.44,9.35c0,0-0.18,3.44-5.07,4.73l-0.67,15.29l-3.01,0.02l-1.67-15.33
			c-2.39-0.3-5.14-2.1-4.84-3.06C629.41,824.67,628.52,814,636.75,814.47z"/>
		<path class="st11" d="M608.35,526.12c15.97-7.91,12.34,35.6,12.34,35.6s-20.14,25.69-20.14,34.06c0,6.43,29.03,6.27,29.03,6.27
			v17.47c0,0-54.63,6.67-57.84-11.43C569.05,592.94,592.39,534.03,608.35,526.12z"/>
		<path class="st11" d="M687.58,602.06c0,0,29.03,0.16,29.03-6.27c0-8.38-20.14-34.06-20.14-34.06s-3.63-43.51,12.34-35.6
			c15.97,7.91,39.3,66.81,36.61,81.97c-3.21,18.1-57.84,11.43-57.84,11.43V602.06z"/>
		<g>
			<g>
				<path class="st19" d="M626.47,652.64h64.47c-2.49-40.35,19.94-80.83,18.65-125.97c-12.7-8.08-35.81-15.6-39.11-16.64
					c-0.28-0.08-0.4-0.12-0.4-0.12l-3.01-25.52h-16.08l-3.7,25.52c0,0-0.12,0.04-0.32,0.12c-3.09,0.96-28.18,9.12-39.19,16.52
					C607.78,576.87,630.81,613.33,626.47,652.64z"/>
				<path class="st11" d="M626.47,652.64h64.47c-2.06-40.57,22.5-82.13,18.65-125.97c-12.7-8.08-35.81-15.6-39.11-16.64h-23.51
					c-3.09,0.96-28.18,9.12-39.19,16.52C595.78,580.64,629.36,613.78,626.47,652.64z"/>
			</g>
			<path class="st21" d="M628.2,686.05h61.01c8.06,0,14.59-8.06,14.59-17.99l0,0c0-9.94-6.53-17.99-14.59-17.99H628.2
				c-8.06,0-14.59,8.06-14.59,17.99l0,0C613.61,677.99,620.15,686.05,628.2,686.05z"/>
		</g>
		<g>
			<path class="st21" d="M644.31,498.93c-7.62-7-12.62-15.56-14.72-20.25c-1.19-2.65-4.91-11.78-2.76-23.01
				c0.68-3.52,1.82-9.5,6.44-14.72c7.18-8.12,18.12-9.22,25.44-8.94c7.32-0.28,18.26,0.82,25.44,8.94
				c4.62,5.23,5.77,11.2,6.44,14.72c2.15,11.22-1.57,20.35-2.76,23.01c-2.1,4.68-7.1,13.25-14.72,20.25
				c-2.09,1.92-5.38,4.64-6.44,9.2c-0.71,3.05-0.27,6.26,0,8.28c0.41,3.04,1.14,5.29,1.84,7.36c3.46,10.2,4.66,10.29,5.52,14.72
				c1.09,5.6,1.93,9.91,0,14.72c-1.7,4.24-4.8,7.01-8.28,10.12c-3.19,2.85-4.78,4.27-6.44,4.6c-0.09,0.02-0.18,0.02-0.26,0.03v0.07
				c-0.11,0-0.22-0.03-0.33-0.04c-0.11,0.01-0.22,0.03-0.33,0.04v-0.07c-0.09-0.01-0.18-0.01-0.26-0.03
				c-1.66-0.33-3.26-1.75-6.44-4.6c-3.48-3.11-6.58-5.88-8.28-10.12c-1.93-4.82-1.09-9.12,0-14.72c0.86-4.44,2.06-4.52,5.52-14.72
				c0.7-2.08,1.43-4.32,1.84-7.36c0.27-2.02,0.71-5.23,0-8.28C649.69,503.56,646.41,500.85,644.31,498.93z"/>
			<path class="st11" d="M650.4,507.21c0.74,2.11,4.17,3.71,8.31,3.71c4.13,0,7.56-1.6,8.31-3.71c1.4,0.77,2.28,1.74,2.28,2.8
				c0,2.52-4.74,4.56-10.58,4.56c-5.84,0-10.58-2.04-10.58-4.56C648.13,508.95,649,507.98,650.4,507.21z"/>
		</g>
	</g>
	<g>
		<g>
			
				<rect x="653.21" y="710.95" transform="matrix(-1 -1.224647e-16 1.224647e-16 -1 1317.1583 1523.7905)" class="st12" width="10.74" height="101.9"/>
			<g>
				<polygon class="st12" points="715.49,807.08 601.76,807.08 594.18,807.08 594.18,814.74 594.18,825.48 601.76,825.48 
					601.76,814.74 715.49,814.74 715.49,825.48 723.07,825.48 723.07,814.74 723.07,807.08 				"/>
				<g>
					<path class="st6" d="M583.62,834.35c-1.19-9.41,6.73-17.33,16.14-16.15c6.42,0.81,11.6,5.99,12.4,12.4
						c1.19,9.41-6.73,17.33-16.15,16.14C589.6,845.95,584.42,840.77,583.62,834.35z"/>
					<path class="st12" d="M591.62,832.48c0-3.46,2.81-6.27,6.27-6.27c3.46,0,6.27,2.81,6.27,6.27c0,3.46-2.81,6.27-6.27,6.27
						C594.43,838.75,591.62,835.94,591.62,832.48z"/>
				</g>
				<g>
					<path class="st6" d="M704.99,834.36c-1.19-9.42,6.73-17.34,16.15-16.15c6.41,0.81,11.59,5.99,12.4,12.4
						c1.19,9.41-6.73,17.33-16.14,16.14C710.99,845.95,705.8,840.77,704.99,834.36z"/>
					<path class="st12" d="M713,832.48c0-3.46,2.81-6.27,6.27-6.27c3.46,0,6.27,2.81,6.27,6.27c0,3.46-2.81,6.27-6.27,6.27
						C715.8,838.75,713,835.94,713,832.48z"/>
				</g>
			</g>
		</g>
		<path class="st6" d="M730.49,548.65c-6.04-11.56-15.84-29.05-71.91-28.09c-56.08-0.95-65.87,16.53-71.91,28.09
			c-8.87,16.96,2.54,113.72,1.58,152.13v9.71c0,4.98,2.69,9.34,6.78,11.95v0.06c2.54,1.68,5.7,2.62,9.05,2.62h54.5h54.5
			c3.35,0,6.51-0.94,9.05-2.62v-0.06c4.09-2.62,6.78-6.98,6.78-11.95v-9.71C727.95,662.37,739.36,565.6,730.49,548.65z"/>
		<path class="st13" d="M728.91,700.78v9.71c0,4.98-2.69,9.34-6.78,11.95v0.06c-2.54,1.68-5.69,2.62-9.04,2.62H604.08
			c-3.36,0-6.5-0.94-9.04-2.62v-0.06c-4.09-2.62-6.78-6.98-6.78-11.95v-0.61c1.72,0.59,3.59,0.9,5.53,0.9h109.01
			c3.35,0,6.5-0.94,9.04-2.62v-0.06c4.09-2.62,6.78-6.98,6.78-11.95v-9.71c-0.95-37.94,10.18-132.75,1.91-151.46
			c5.13,4.56,7.8,9.5,9.97,13.66C739.37,565.6,727.94,662.37,728.91,700.78z"/>
		<path class="st13" d="M737.73,718.64c0,4.35-1.77,8.29-4.62,11.14c-2.85,2.85-6.79,4.62-11.14,4.62H595.19
			c-5.39,0-10.14-2.7-12.97-6.83c2.05,0.98,4.34,1.53,6.76,1.53h126.8c4.35,0,8.28-1.77,11.13-4.62c2.85-2.85,4.62-6.78,4.62-11.13
			c0-3.32-1.03-6.39-2.79-8.93C734.05,706.94,737.73,712.36,737.73,718.64z"/>
	</g>
	<g>
		<g>
			
				<rect x="388.48" y="710.95" transform="matrix(-1 -1.224647e-16 1.224647e-16 -1 787.6994 1523.7905)" class="st12" width="10.74" height="101.9"/>
			<g>
				<polygon class="st12" points="450.76,807.08 337.03,807.08 329.45,807.08 329.45,814.74 329.45,825.48 337.03,825.48 
					337.03,814.74 450.76,814.74 450.76,825.48 458.34,825.48 458.34,814.74 458.34,807.08 				"/>
				<g>
					<path class="st6" d="M318.89,834.35c-1.19-9.41,6.73-17.33,16.14-16.15c6.42,0.81,11.6,5.99,12.4,12.4
						c1.19,9.41-6.73,17.33-16.15,16.14C324.87,845.95,319.7,840.77,318.89,834.35z"/>
					<path class="st12" d="M326.89,832.48c0-3.46,2.81-6.27,6.27-6.27c3.46,0,6.27,2.81,6.27,6.27c0,3.46-2.81,6.27-6.27,6.27
						C329.7,838.75,326.89,835.94,326.89,832.48z"/>
				</g>
				<g>
					<path class="st6" d="M440.27,834.36c-1.19-9.42,6.73-17.34,16.15-16.15c6.41,0.81,11.6,5.99,12.4,12.4
						c1.19,9.41-6.73,17.33-16.14,16.14C446.26,845.95,441.08,840.77,440.27,834.36z"/>
					<path class="st12" d="M448.27,832.48c0-3.46,2.81-6.27,6.27-6.27s6.27,2.81,6.27,6.27c0,3.46-2.81,6.27-6.27,6.27
						S448.27,835.94,448.27,832.48z"/>
				</g>
			</g>
		</g>
		<path class="st6" d="M465.76,548.65c-6.04-11.56-15.84-29.05-71.91-28.09c-56.08-0.95-65.87,16.53-71.91,28.09
			c-8.87,16.96,2.54,113.72,1.58,152.13v9.71c0,4.98,2.69,9.34,6.78,11.95v0.06c2.54,1.68,5.7,2.62,9.05,2.62h54.5h54.5
			c3.35,0,6.51-0.94,9.05-2.62v-0.06c4.09-2.62,6.78-6.98,6.78-11.95v-9.71C463.22,662.37,474.63,565.6,465.76,548.65z"/>
		<path class="st13" d="M464.18,700.78v9.71c0,4.98-2.69,9.34-6.78,11.95v0.06c-2.54,1.68-5.69,2.62-9.04,2.62H339.35
			c-3.35,0-6.5-0.94-9.04-2.62v-0.06c-4.09-2.62-6.78-6.98-6.78-11.95v-0.61c1.72,0.59,3.59,0.9,5.53,0.9h109.01
			c3.36,0,6.5-0.94,9.04-2.62v-0.06c4.09-2.62,6.78-6.98,6.78-11.95v-9.71c-0.95-37.94,10.18-132.75,1.91-151.46
			c5.13,4.56,7.8,9.5,9.97,13.66C474.64,565.6,463.22,662.37,464.18,700.78z"/>
		<g>
			<path class="st6" d="M721.97,702.89H595.18c-8.7,0-15.75,7.05-15.75,15.75c0,8.7,7.05,15.75,15.75,15.75h126.79
				c8.7,0,15.75-7.05,15.75-15.75C737.72,709.95,730.67,702.89,721.97,702.89z"/>
			<path class="st6" d="M457.25,702.89H330.45c-8.7,0-15.75,7.05-15.75,15.75c0,8.7,7.05,15.75,15.75,15.75h126.79
				c8.7,0,15.75-7.05,15.75-15.75C472.99,709.95,465.94,702.89,457.25,702.89z"/>
		</g>
		<path class="st13" d="M473,718.64c0,4.35-1.77,8.29-4.62,11.14c-2.85,2.85-6.79,4.62-11.14,4.62H330.46
			c-5.39,0-10.14-2.7-12.97-6.83c2.05,0.98,4.34,1.53,6.76,1.53h126.8c4.35,0,8.28-1.77,11.13-4.62c2.85-2.85,4.62-6.78,4.62-11.13
			c0-3.32-1.03-6.39-2.79-8.93C469.32,706.94,473,712.36,473,718.64z"/>
	</g>
</g>
<g>
	<g>
		<g>
			<g>
				<g>
					<path class="st26" d="M861.61,687.31h-49.92v-46.13c0-4.23,3.43-7.67,7.67-7.67h34.59c4.23,0,7.67,3.43,7.67,7.67V687.31z
						 M814.71,684.28h43.87V644.2c0-4.23-3.43-7.67-7.67-7.67h-28.54c-4.23,0-7.66,3.43-7.66,7.67V684.28z"/>
				</g>
			</g>
		</g>
		<g>
			<path class="st11" d="M845.72,638.9h-19.66c-2.09,0-3.78-1.69-3.78-3.78l0,0c0-2.09,1.69-3.78,3.78-3.78h19.66
				c2.09,0,3.78,1.69,3.78,3.78l0,0C849.51,637.21,847.81,638.9,845.72,638.9z"/>
		</g>
		<g>
			
				<ellipse transform="matrix(0.2298 -0.9732 0.9732 0.2298 -196.5517 1418.8444)" class="st26" cx="798.12" cy="833.6" rx="7.56" ry="7.56"/>
		</g>
		<g>
			<path class="st26" d="M865.63,832.56c0-4.18,3.39-7.56,7.56-7.56c4.18,0,7.56,3.39,7.56,7.56c0,4.18-3.39,7.56-7.56,7.56
				C869.01,840.13,865.63,836.74,865.63,832.56z"/>
		</g>
		<g>
			<path class="st11" d="M885.81,694.67v125.95c0,5.74-4.65,10.39-10.39,10.39h-79.06c-5.74,0-10.39-4.65-10.39-10.39V694.67
				c0-5.74,4.65-10.39,10.39-10.39h79.06C881.16,684.28,885.81,688.93,885.81,694.67z"/>
		</g>
		<g>
			<path class="st27" d="M875.42,684.28h-0.47c0.29,0.95,0.44,1.95,0.44,2.99v105.59c0,16.98-13.77,30.75-30.75,30.75h-58.23
				c1.29,4.28,5.25,7.39,9.95,7.39h79.06c5.74,0,10.39-4.65,10.39-10.39V694.67C885.81,688.93,881.16,684.28,875.42,684.28z"/>
		</g>
		<g>
			<path class="st28" d="M816.09,684.3c-8.38,11.62-18.46,20.94-30.12,27.27v-8.17c8.59-4.22,15.52-10.74,21.12-19.12h8.99
				L816.09,684.3z"/>
		</g>
		<g>
			<path class="st28" d="M885.81,704.2v8.56c-12.25-8.23-21.98-17.64-28.48-28.48h8.56C871.42,692.35,878.07,698.98,885.81,704.2z"
				/>
		</g>
		<g>
			<path class="st28" d="M817.6,830.99l-0.02,0.02l-8.98,0c-5.82-8.4-13.43-15.16-22.63-20.48v-8.17
				C799.02,810.27,810.2,819.4,817.6,830.99z"/>
		</g>
		<g>
			<path class="st28" d="M854.18,830.99l0.02,0.02l8.99,0c5.92-9.51,13.49-16.29,22.63-20.48v-8.17
				C873.81,807.55,863.01,817.1,854.18,830.99z"/>
		</g>
		<g>
			<path class="st28" d="M866.14,725.12h-57.48c-3.34,0-6.05-2.71-6.05-6.05l0,0c0-3.34,2.71-6.05,6.05-6.05h57.48
				c3.34,0,6.05,2.71,6.05,6.05l0,0C872.2,722.41,869.49,725.12,866.14,725.12z"/>
		</g>
	</g>
	<g>
		<g>
			<path class="st26" d="M191.84,833.95c0-4.43,3.59-8.03,8.03-8.03c4.43,0,8.03,3.59,8.03,8.03c0,4.43-3.59,8.03-8.03,8.03
				C195.43,841.98,191.84,838.38,191.84,833.95z"/>
		</g>
		<g>
			<path class="st26" d="M278.32,833.19c0-4.43,3.59-8.03,8.03-8.03c4.43,0,8.03,3.59,8.03,8.03c0,4.43-3.59,8.03-8.03,8.03
				C281.92,841.22,278.32,837.63,278.32,833.19z"/>
		</g>
		<g>
			<g>
				<g>
					<path class="st26" d="M280.93,758.13h-77.08V652.08c0-6.17,5-11.17,11.17-11.17h54.74c6.17,0,11.17,5,11.17,11.17V758.13z
						 M208.67,753.32h67.45v-96.42c0-6.17-5-11.17-11.17-11.17h-45.11c-6.17,0-11.17,5-11.17,11.17V753.32z"/>
				</g>
			</g>
		</g>
		<g>
			<path class="st11" d="M290.84,831.2h-95.29c-4.73,0-8.56-3.83-8.56-8.56v-61.56c0-4.73,3.83-8.56,8.56-8.56h95.29
				c4.73,0,8.56,3.83,8.56,8.56v61.56C299.4,827.37,295.57,831.2,290.84,831.2z"/>
		</g>
		<g>
			<path class="st29" d="M290.72,752.58c0.79,1.41,1.24,3.03,1.24,4.76v35.48c0,18.47-14.97,33.45-33.45,33.45h-69.2
				c-0.37,0-0.73-0.02-1.09-0.06c1.67,2.98,4.86,5,8.52,5h92.88c5.39,0,9.76-4.37,9.76-9.76v-59.16
				C299.4,757.25,295.6,753.12,290.72,752.58z"/>
		</g>
		<g>
			<path class="st11" d="M256.34,648.97h-28.91c-3.55,0-6.42-2.88-6.42-6.42l0,0c0-3.55,2.88-6.42,6.42-6.42h28.91
				c3.55,0,6.42,2.88,6.42,6.42l0,0C262.77,646.1,259.89,648.97,256.34,648.97z"/>
		</g>
		<g>
			<path class="st30" d="M279.33,768.57h-73.87c-1.33,0-2.41-1.08-2.41-2.41l0,0c0-1.33,1.08-2.41,2.41-2.41h73.87
				c1.33,0,2.41,1.08,2.41,2.41l0,0C281.74,767.49,280.66,768.57,279.33,768.57z"/>
		</g>
		<g>
			<path class="st30" d="M279.33,781.42h-73.87c-1.33,0-2.41-1.08-2.41-2.41l0,0c0-1.33,1.08-2.41,2.41-2.41h73.87
				c1.33,0,2.41,1.08,2.41,2.41l0,0C281.74,780.34,280.66,781.42,279.33,781.42z"/>
		</g>
		<g>
			<path class="st30" d="M279.33,794.27h-73.87c-1.33,0-2.41-1.08-2.41-2.41l0,0c0-1.33,1.08-2.41,2.41-2.41h73.87
				c1.33,0,2.41,1.08,2.41,2.41l0,0C281.74,793.19,280.66,794.27,279.33,794.27z"/>
		</g>
		<g>
			<path class="st30" d="M279.33,807.11h-73.87c-1.33,0-2.41-1.08-2.41-2.41l0,0c0-1.33,1.08-2.41,2.41-2.41h73.87
				c1.33,0,2.41,1.08,2.41,2.41l0,0C281.74,806.03,280.66,807.11,279.33,807.11z"/>
		</g>
		<g>
			<path class="st30" d="M279.33,819.96h-73.87c-1.33,0-2.41-1.08-2.41-2.41l0,0c0-1.33,1.08-2.41,2.41-2.41h73.87
				c1.33,0,2.41,1.08,2.41,2.41l0,0C281.74,818.88,280.66,819.96,279.33,819.96z"/>
		</g>
	</g>
	<g>
		<g>
			<g>
				<path class="st11" d="M169.77,780.01c-0.12,0.04-0.24,0.06-0.37,0.04c-0.46-0.05-0.79-0.47-0.74-0.93l1.07-9.42
					c0.28-2.49,1.75-4.74,3.91-6.01l0.07-0.04l0.08-0.03l60.74-21.37c0.44-0.15,0.92,0.08,1.07,0.51c0.15,0.44-0.08,0.92-0.51,1.07
					c0,0,0,0,0,0l-60.66,21.35c-1.68,1.01-2.8,2.76-3.02,4.71l-1.07,9.42C170.29,779.64,170.06,779.91,169.77,780.01z"/>
			</g>
		</g>
		<g>
			<g>
				<path class="st11" d="M252.27,754c-0.29,0.1-0.63,0.04-0.87-0.19l-6.79-6.62c-1.41-1.38-3.41-2.02-5.36-1.73l-62.64,16.26
					c-0.45,0.12-0.91-0.15-1.02-0.6c-0.12-0.45,0.15-0.91,0.6-1.02l62.72-16.28l0.04-0.01c2.48-0.39,5.03,0.42,6.83,2.18l6.79,6.62
					c0.33,0.32,0.34,0.86,0.02,1.19C252.49,753.89,252.38,753.96,252.27,754z"/>
			</g>
		</g>
		<g>
			<g>
				<path class="st11" d="M204.68,756.46c2.54,7.19-1.89,15.31-9.9,18.14c-8,2.83-16.55-0.71-19.09-7.9
					c-2.54-7.19,1.89-15.31,9.9-18.14C193.59,745.74,202.14,749.27,204.68,756.46z"/>
			</g>
		</g>
		<g>
			<g>
				<path class="st31" d="M202.89,757.09c0.15,0.42,0.27,0.85,0.37,1.28c1.32,5.96-2.5,12.31-9.04,14.62
					c-0.37,0.13-0.74,0.25-1.12,0.35c-2.9,0.78-5.82,0.64-8.38-0.26c-2.43-0.86-4.53-2.4-5.95-4.48c-0.53-0.77-0.96-1.62-1.28-2.53
					c-0.1-0.28-0.19-0.56-0.26-0.85c-1.61-6.08,2.23-12.69,8.94-15.06c0.53-0.19,1.06-0.34,1.6-0.47c1.37-0.32,2.75-0.44,4.09-0.36
					c2.7,0.14,5.23,1.05,7.24,2.58C200.81,753.22,202.15,754.97,202.89,757.09z"/>
			</g>
		</g>
		<g>
			<g>
				<path class="st32" d="M202.89,757.09c0.15,0.42,0.27,0.85,0.37,1.28l-10.16,14.97c-2.9,0.78-5.82,0.64-8.38-0.26l14.37-21.17
					C200.81,753.22,202.15,754.97,202.89,757.09z"/>
			</g>
		</g>
		<g>
			<g>
				<path class="st32" d="M191.84,749.33l-13.08,19.27c-0.53-0.77-0.96-1.62-1.28-2.53c-0.1-0.28-0.19-0.56-0.26-0.85l10.54-15.52
					C189.13,749.37,190.5,749.26,191.84,749.33z"/>
			</g>
		</g>
		<g>
			<g>
				<path class="st11" d="M236.92,745.09c2.54,7.19-1.89,15.31-9.9,18.14c-8,2.83-16.55-0.71-19.09-7.9
					c-2.54-7.19,1.89-15.31,9.9-18.14C225.83,734.36,234.38,737.89,236.92,745.09z"/>
			</g>
		</g>
		<g>
			<g>
				<path class="st31" d="M235.13,745.71c0.15,0.42,0.27,0.85,0.37,1.28c1.32,5.96-2.5,12.31-9.04,14.62
					c-0.37,0.13-0.74,0.25-1.12,0.35c-2.9,0.78-5.82,0.64-8.38-0.26c-2.43-0.86-4.53-2.4-5.95-4.48c-0.53-0.77-0.96-1.62-1.28-2.53
					c-0.1-0.28-0.19-0.56-0.26-0.85c-1.61-6.08,2.23-12.69,8.94-15.06c0.53-0.19,1.06-0.34,1.6-0.47c1.37-0.32,2.75-0.44,4.09-0.36
					c2.7,0.14,5.23,1.05,7.24,2.58C233.05,741.84,234.39,743.59,235.13,745.71z"/>
			</g>
		</g>
		<g>
			<g>
				<path class="st32" d="M235.13,745.71c0.15,0.42,0.27,0.85,0.37,1.28l-10.16,14.97c-2.9,0.78-5.82,0.64-8.38-0.26l14.37-21.17
					C233.05,741.84,234.39,743.59,235.13,745.71z"/>
			</g>
		</g>
		<g>
			<g>
				<path class="st32" d="M224.08,737.95L211,757.22c-0.53-0.77-0.96-1.62-1.28-2.53c-0.1-0.28-0.19-0.56-0.26-0.85l10.54-15.52
					C221.37,737.99,222.74,737.88,224.08,737.95z"/>
			</g>
		</g>
		<g>
			<g>
				<path class="st11" d="M206.57,756.46c-0.95,0.34-2.01,0.58-3.19,0.73l-0.21-1.67c2.1-0.27,3.74-0.84,5.02-1.76l0.98,1.37
					C208.4,755.67,207.54,756.12,206.57,756.46z"/>
			</g>
		</g>
	</g>
	<g>
		<g>
			<g>
				<g>
					<path class="st26" d="M787.16,768.11h-70.12v-3.79c0-18.81,15.3-34.11,34.11-34.11h1.9c18.81,0,34.11,15.3,34.11,34.11V768.11z
						 M724.89,760.52h54.42c-1.84-12.84-12.92-22.74-26.26-22.74h-1.9C737.81,737.78,726.73,747.68,724.89,760.52z"/>
				</g>
			</g>
		</g>
		<g>
			<path class="st17" d="M808.92,853.39H693.38c-4.73,0-8.56-3.83-8.56-8.56v-75.74c0-4.73,3.83-8.56,8.56-8.56h115.54
				c4.73,0,8.56,3.83,8.56,8.56v75.74C817.48,849.56,813.65,853.39,808.92,853.39z"/>
		</g>
		<g>
			<path class="st8" d="M808.61,760.57c0.87,1.46,1.38,3.16,1.38,4.98v40.35c0,23.61-19.14,42.76-42.76,42.76h-80.15
				c-0.3,0-0.6-0.02-0.89-0.05c1.7,2.86,4.82,4.78,8.39,4.78h113.14c5.39,0,9.76-4.37,9.76-9.76v-73.34
				C817.48,765.2,813.58,761.02,808.61,760.57z"/>
		</g>
		<g>
			<path class="st4" d="M792.84,783.27h-85.28c-2.09,0-3.79-1.7-3.79-3.79l0,0c0-2.09,1.7-3.79,3.79-3.79h85.28
				c2.09,0,3.79,1.7,3.79,3.79l0,0C796.63,781.57,794.94,783.27,792.84,783.27z"/>
		</g>
		<g>
			<path class="st4" d="M792.84,802.22h-85.28c-2.09,0-3.79-1.7-3.79-3.79l0,0c0-2.09,1.7-3.79,3.79-3.79h85.28
				c2.09,0,3.79,1.7,3.79,3.79l0,0C796.63,800.52,794.94,802.22,792.84,802.22z"/>
		</g>
		<g>
			<path class="st4" d="M792.84,821.17h-85.28c-2.09,0-3.79-1.7-3.79-3.79l0,0c0-2.09,1.7-3.79,3.79-3.79h85.28
				c2.09,0,3.79,1.7,3.79,3.79l0,0C796.63,819.47,794.94,821.17,792.84,821.17z"/>
		</g>
		<g>
			<path class="st4" d="M792.84,840.12h-85.28c-2.09,0-3.79-1.7-3.79-3.79l0,0c0-2.09,1.7-3.79,3.79-3.79h85.28
				c2.09,0,3.79,1.7,3.79,3.79l0,0C796.63,838.43,794.94,840.12,792.84,840.12z"/>
		</g>
	</g>
	<g>
		<g>
			<path class="st33" d="M851.44,777.07c-1.7,6.7-28.42,5.71-59.69-2.22c-2.45-0.62-4.85-1.27-7.19-1.92l-0.1-0.03
				c-0.81-0.24-1.61-0.47-2.41-0.7c-26.37-7.72-45.35-17.82-43.83-23.81c1.09-4.31,12.49-5.44,28.79-3.6
				c9.09,1.02,19.7,2.98,30.89,5.81c9.59,2.43,18.5,5.23,26.19,8.14c1.28,0.49,2.53,0.97,3.74,1.46
				C843.04,766.33,852.53,772.77,851.44,777.07z"/>
		</g>
		<g>
			<path class="st34" d="M851.44,777.07c-1.7,6.7-28.42,5.71-59.69-2.22c-2.45-0.62-4.85-1.27-7.19-1.92
				c17.06,4.48,58.73,10.11,60.23,1.86c0.83-4.58-18.33-12.94-18.33-12.94l-2.36-3.13c1.28,0.49,2.53,0.97,3.74,1.46
				C843.04,766.33,852.53,772.77,851.44,777.07z"/>
		</g>
		<g>
			<path class="st35" d="M825.89,765.39c-0.05,0.2-0.1,0.4-0.16,0.6c-0.26,0.91-0.59,1.78-0.98,2.62
				c-8.48-3.43-20.18-2.33-31.37-5.17c-11.19-2.84-20.36-9.22-29.45-10.25c0.07-1.13,0.25-2.26,0.53-3.38
				c3.27-12.91,20.68-23.86,37.65-19.56C819.07,734.56,829.16,752.49,825.89,765.39z"/>
		</g>
		<g>
			<g>
				<path class="st36" d="M825.89,765.39c3.27-12.91-6.82-30.83-23.79-35.13c-0.43-0.11-0.86-0.2-1.29-0.29
					c14.38,5.94,22.56,21.93,19.57,33.73c-0.05,0.2-0.1,0.4-0.16,0.6c-0.22,0.78-0.51,1.53-0.83,2.26c1.85,0.68,3.65,1.37,5.36,2.06
					c0.39-0.84,0.72-1.72,0.98-2.62C825.79,765.79,825.84,765.59,825.89,765.39z"/>
			</g>
		</g>
		<g>
			<path class="st4" d="M825.73,765.99c-0.26,0.91-0.59,1.78-0.98,2.62c-10.34,1.94-53.58-8.74-60.82-15.41
				c0.07-1.13,0.25-2.26,0.53-3.38C781.41,760.57,816.54,766.63,825.73,765.99z"/>
		</g>
		<g>
			<g>
				<path class="st37" d="M772.46,752.1c3.04-0.39,5.36-0.37,6.83-0.39c3.85-0.06,4.05-0.45,4.66,0.01
					c2.13,1.62,1.12,7.68-2.1,11.08c-0.61,0.65-2.36,2.5-4.26,2.16c-0.68-0.12-1.08-0.47-2.89-2.57c-2.97-3.45-3.87-4.81-4.49-6.59
					c-0.54-1.55-0.47-2.26-0.16-2.73C770.48,752.41,771.31,752.25,772.46,752.1z"/>
			</g>
			<g>
				<path class="st38" d="M781.85,761.29c-0.18,0.19-0.56,0.43-1.02,0.68c-2.01,1.1-4.57,0.7-6.08-1.03
					c-0.02-0.02-0.04-0.04-0.05-0.06c-2.97-3.45-3.87-4.81-4.49-6.59c-0.13-0.37-0.22-0.69-0.29-0.97
					c-0.19,0.47-0.17,1.17,0.29,2.47c0.62,1.78,1.53,3.14,4.49,6.59c1.81,2.11,2.21,2.45,2.89,2.57c1.9,0.34,3.65-1.51,4.26-2.16
					c2.27-2.4,3.44-6.12,3.18-8.68C784.82,756.49,783.71,759.33,781.85,761.29z"/>
			</g>
			<g>
				<path class="st37" d="M767.38,749.92c-1.8-2.47-3.42-4.14-4.41-5.23c-2.61-2.83-2.46-3.25-3.21-3.38
					c-2.64-0.44-6.34,4.47-6.6,9.15c-0.05,0.89-0.19,3.44,1.36,4.58c0.55,0.41,1.08,0.46,3.86,0.33c4.54-0.22,6.15-0.5,7.87-1.28
					c1.5-0.67,1.96-1.21,2.09-1.77C768.52,751.57,768.06,750.86,767.38,749.92z"/>
			</g>
			<g>
				<path class="st11" d="M771.37,754.31c-0.61,1.42-2.25,2.07-3.67,1.46c-1.42-0.61-2.07-2.25-1.46-3.67
					c0.61-1.42,2.25-2.07,3.67-1.46C771.33,751.25,771.98,752.89,771.37,754.31z"/>
			</g>
		</g>
	</g>
</g>
<g>
	<g>
		<path class="st17" d="M1027.33,453.81c-0.03-0.59-0.05-1.18-0.05-1.79v-29.73c0-8.19,3.05-14.84,6.8-14.84h135.71
			c3.76,0,6.8,6.64,6.8,14.84v29.73c0,8.19-3.05,14.84-6.8,14.84h-133.35c-7.86,6.46-16.05,3.54-16.05,3.54
			C1026.81,469.25,1027.37,458.2,1027.33,453.81z"/>
	</g>
	<g>
		<path class="st4" d="M1121.13,424.3h-83.36c-0.58,0-1.05-0.47-1.05-1.05v-0.83c0-0.58,0.47-1.05,1.05-1.05h83.36
			c0.58,0,1.05,0.47,1.05,1.05v0.83C1122.18,423.83,1121.71,424.3,1121.13,424.3z"/>
	</g>
	<g>
		<path class="st4" d="M1136.57,452.87h-98.8c-0.58,0-1.05-0.47-1.05-1.05V451c0-0.58,0.47-1.05,1.05-1.05h98.8
			c0.58,0,1.05,0.47,1.05,1.05v0.83C1137.62,452.4,1137.15,452.87,1136.57,452.87z"/>
	</g>
	<g>
		<path class="st4" d="M1075.23,438.71h-37.45c-0.58,0-1.05-0.47-1.05-1.05v-0.83c0-0.58,0.47-1.05,1.05-1.05h37.45
			c0.58,0,1.05,0.47,1.05,1.05v0.83C1076.28,438.24,1075.81,438.71,1075.23,438.71z"/>
	</g>
	<g>
		<path class="st4" d="M1142.82,438.71h-59.14c-0.58,0-1.05-0.47-1.05-1.05v-0.83c0-0.58,0.47-1.05,1.05-1.05h59.14
			c0.58,0,1.05,0.47,1.05,1.05v0.83C1143.87,438.24,1143.4,438.71,1142.82,438.71z"/>
	</g>
	<g>
		<path class="st4" d="M1164.44,424.3h-33.49c-0.58,0-1.05-0.47-1.05-1.05v-0.83c0-0.58,0.47-1.05,1.05-1.05h33.49
			c0.58,0,1.05,0.47,1.05,1.05v0.83C1165.49,423.83,1165.02,424.3,1164.44,424.3z"/>
	</g>
	<g>
		<path class="st4" d="M1164.44,452.87l-17.37,0c-0.58,0-1.05-0.47-1.05-1.05V451c0-0.58,0.47-1.05,1.05-1.05h17.37
			c0.58,0,1.05,0.47,1.05,1.05v0.83C1165.49,452.4,1165.02,452.87,1164.44,452.87z"/>
	</g>
</g>
<g>
	<g>
		<path class="st17" d="M321.05,485.35c0.03-0.59,0.05-1.18,0.05-1.79v-29.73c0-8.19-3.05-14.84-6.8-14.84H178.59
			c-3.76,0-6.8,6.64-6.8,14.84v29.73c0,8.19,3.05,14.84,6.8,14.84h133.35c7.86,6.46,16.05,3.54,16.05,3.54
			C321.57,500.79,321.02,489.74,321.05,485.35z"/>
	</g>
	<g>
		<path class="st4" d="M227.25,455.85h83.36c0.58,0,1.05-0.47,1.05-1.05v-0.83c0-0.58-0.47-1.05-1.05-1.05h-83.36
			c-0.58,0-1.05,0.47-1.05,1.05v0.83C226.2,455.38,226.67,455.85,227.25,455.85z"/>
	</g>
	<g>
		<path class="st4" d="M211.81,484.42h98.8c0.58,0,1.05-0.47,1.05-1.05v-0.83c0-0.58-0.47-1.05-1.05-1.05h-98.8
			c-0.58,0-1.05,0.47-1.05,1.05v0.83C210.76,483.95,211.23,484.42,211.81,484.42z"/>
	</g>
	<g>
		<path class="st4" d="M273.16,470.26h37.45c0.58,0,1.05-0.47,1.05-1.05v-0.83c0-0.58-0.47-1.05-1.05-1.05h-37.45
			c-0.58,0-1.05,0.47-1.05,1.05v0.83C272.11,469.79,272.58,470.26,273.16,470.26z"/>
	</g>
	<g>
		<path class="st4" d="M205.56,470.26h59.14c0.58,0,1.05-0.47,1.05-1.05v-0.83c0-0.58-0.47-1.05-1.05-1.05h-59.14
			c-0.58,0-1.05,0.47-1.05,1.05v0.83C204.51,469.79,204.98,470.26,205.56,470.26z"/>
	</g>
	<g>
		<path class="st4" d="M183.94,455.85h33.49c0.58,0,1.05-0.47,1.05-1.05v-0.83c0-0.58-0.47-1.05-1.05-1.05h-33.49
			c-0.58,0-1.05,0.47-1.05,1.05v0.83C182.89,455.38,183.36,455.85,183.94,455.85z"/>
	</g>
	<g>
		<path class="st4" d="M183.94,484.42l17.37,0c0.58,0,1.05-0.47,1.05-1.05v-0.83c0-0.58-0.47-1.05-1.05-1.05h-17.37
			c-0.58,0-1.05,0.47-1.05,1.05v0.83C182.89,483.95,183.36,484.42,183.94,484.42z"/>
	</g>
</g>
<g>
	<path class="st39" d="M1088.23,752.29c1.89-11.3,15.48-0.82,19.27,4.22c-1.88-5.65-3.43-11.4-4.67-17.22
		c-30.6,3.84-21.13-25.59-0.36-1.75c-1.44-7.16-2.38-14.42-2.68-21.7c-30.31-1.15-16.72-28.36-0.07-2.13
		c-0.19-7.84,0.32-16.01,3.13-23.37c-30.83-5.87-11.87-30.69,0.48-1.25c3.29-8.28,8.12-15.99,11.12-24.37
		c-31.3-5.74-12.08-30.99,0.35-0.98c2.28-6.42,2.94-13.38,1.52-20.11c-32.02,2.97-20.29-27.07-0.18-0.85
		c-1.59-7.26-5.14-14.2-9.78-19.78c-29.85-0.34-16.92-26.93,0.43-2.29c5.3,5.53,8.71,12.81,10.78,20.14
		c5.83-30.91,28.6-10.64,0.51,2.05c1.72,6.97,0.98,14.39-1.35,21.07c19.27-25.55,30.99,3.29-0.59,1.68
		c-3.17,8.67-8.18,16.56-11.4,25.15c18.45-27.23,33.19,1.83-0.21,0.58c-2.66,7.27-3.06,15.17-2.9,22.85
		c14.94-27.69,30.9-1.58,0.06,1.87c0.29,7.12,1.26,14.22,2.68,21.21c7.9-31.1,30.53-9.28,0.27,1.31c1.26,6,2.84,11.93,4.8,17.74
		c8.13-30.5,30.07-8.87,0.54,1.56c1.96,5.59,4.28,11.04,7.03,16.27c-1.22,6.29-8.09-13.94-8.81-15.62
		C1101.73,759.33,1091.33,759,1088.23,752.29z"/>
	<path class="st40" d="M1091.48,809.35c4.94-9.75,14.32,3.66,16.34,9.32c-0.1-5.68,0.12-11.34,0.65-17
		c-28.95-5.2-11.95-29.3,0.17-1.7c0.72-6.92,1.94-13.8,3.74-20.51c-27.26-9.67-7.15-30.56,0.54-1.96c2.05-7.2,4.84-14.48,9.5-20.38
		c-26.39-14.11-2.08-31.31,0.79-1c5.35-6.6,11.94-12.24,17.05-19.02c-26.86-14.13-2.18-31.64,0.6-0.79
		c3.9-5.2,6.48-11.34,7.11-17.87c-29.98-6.41-10.77-30.41,0.08-0.82c0.61-7.06-0.64-14.38-3.28-20.78
		c-26.95-8.62-7.68-29.31,1.04-1.96c3.25,6.54,4.29,14.13,4.09,21.4c14.1-26.48,29.05-1.55-0.12,2.01
		c-0.42,6.83-3.2,13.37-7.22,18.79c24.81-17.77,27.27,11.81-1.01,1.36c-5.35,6.99-12.15,12.74-17.52,19.65
		c24.53-19.54,29.69,11.11-0.36,0.46c-4.48,5.86-7.1,12.94-9.14,19.97c21.39-20.95,28.39,7.45-0.48,1.72
		c-1.76,6.56-2.9,13.3-3.6,20.06c16.04-26.06,30.42,0.24-0.12,1.27c-0.56,5.82-0.8,11.66-0.67,17.52
		c16.07-25.44,29.89,0.48,0.05,1.57c0.19,5.64,0.76,11.26,1.77,16.81c-2.9,5.37-3.39-14.99-3.58-16.72
		C1101.77,819.6,1092.4,816.34,1091.48,809.35z"/>
	<g>
		<path class="st41" d="M1146.47,772.72c-0.31,4-5.59,71.18-6.07,77.41h-46.52c-0.57-6.55-6.34-73.13-6.71-77.41H1146.47z"/>
		<path class="st42" d="M1087.17,772.72c0.05,0.62,0.22,2.54,0.47,5.39h17.91c16.28,0,29.11,13.87,27.84,30.1
			c-1.22,15.55-2.59,33.05-3.29,41.92h10.3c0.49-6.23,5.76-73.41,6.08-77.41H1087.17z"/>
		<path class="st41" d="M1145.3,772.72h-56.97c-3.82,0-6.92-2.51-6.92-5.62l0,0c0-3.1,3.1-5.61,6.92-5.61h56.97
			c3.82,0,6.92,2.51,6.92,5.61l0,0C1152.23,770.21,1149.13,772.72,1145.3,772.72z"/>
	</g>
</g>
</svg>
